%TF.GenerationSoftware,KiCad,Pcbnew,9.0.7*%
%TF.CreationDate,2026-01-29T08:14:23+01:00*%
%TF.ProjectId,AudioPlayground_HeadsetShield,41756469-6f50-46c6-9179-67726f756e64,rev?*%
%TF.SameCoordinates,Original*%
%TF.FileFunction,Legend,Top*%
%TF.FilePolarity,Positive*%
%FSLAX46Y46*%
G04 Gerber Fmt 4.6, Leading zero omitted, Abs format (unit mm)*
G04 Created by KiCad (PCBNEW 9.0.7) date 2026-01-29 08:14:23*
%MOMM*%
%LPD*%
G01*
G04 APERTURE LIST*
G04 Aperture macros list*
%AMRotRect*
0 Rectangle, with rotation*
0 The origin of the aperture is its center*
0 $1 length*
0 $2 width*
0 $3 Rotation angle, in degrees counterclockwise*
0 Add horizontal line*
21,1,$1,$2,0,0,$3*%
G04 Aperture macros list end*
%ADD10C,0.150000*%
%ADD11C,0.250000*%
%ADD12C,0.120000*%
%ADD13C,1.100000*%
%ADD14C,0.800000*%
%ADD15RotRect,1.500000X1.000000X315.000000*%
%ADD16C,1.300000*%
%ADD17R,1.600000X2.300000*%
%ADD18R,0.900000X1.700000*%
%ADD19R,1.700000X0.900000*%
G04 APERTURE END LIST*
D10*
X114699300Y-110422200D02*
X114699300Y-111793800D01*
X120020600Y-94369400D02*
X119131600Y-94369400D01*
X118687100Y-111793800D02*
X114699300Y-111793800D01*
X118215400Y-99830400D02*
X114583200Y-99830400D01*
X118687100Y-110422200D02*
X118687100Y-111793800D01*
X116020100Y-92997800D02*
X114800900Y-92997800D01*
D11*
X129855700Y-94311000D02*
X129855700Y-92837800D01*
X123277100Y-118232700D02*
X123277100Y-116315000D01*
D10*
X118661700Y-114664000D02*
X118661700Y-116035600D01*
X118215400Y-98458800D02*
X114583200Y-98458800D01*
X114800900Y-92997800D02*
X114800900Y-94369400D01*
D11*
X129855700Y-94336400D02*
X123302500Y-94336400D01*
D10*
X118215400Y-98458800D02*
X118215400Y-99830400D01*
X118661700Y-116035600D02*
X114673900Y-116035600D01*
D11*
X123293800Y-96480400D02*
X123293800Y-92837800D01*
D10*
X118687100Y-110422200D02*
X114699300Y-110422200D01*
D11*
X128814300Y-118220000D02*
X128814300Y-116746800D01*
D10*
X115689900Y-94369400D02*
X114800900Y-94369400D01*
X120350800Y-92997800D02*
X119131600Y-92997800D01*
X114583200Y-98458800D02*
X114583200Y-99830400D01*
X114673900Y-114664000D02*
X114673900Y-116035600D01*
D11*
X128814300Y-116734100D02*
X123285800Y-116734100D01*
D10*
X118661700Y-114664000D02*
X114673900Y-114664000D01*
X119131600Y-92997800D02*
X119131600Y-94369400D01*
D11*
X128814300Y-118232700D02*
X123285800Y-118232700D01*
X129855700Y-92837800D02*
X123302500Y-92837800D01*
D10*
G36*
X120051299Y-94349130D02*
G01*
X119107999Y-94349130D01*
X119107999Y-93646449D01*
X119219110Y-93646449D01*
X119220201Y-93650064D01*
X119220201Y-93653840D01*
X119224395Y-93663965D01*
X119227563Y-93674465D01*
X119229954Y-93677388D01*
X119231400Y-93680877D01*
X119239153Y-93688630D01*
X119246094Y-93697113D01*
X119249420Y-93698897D01*
X119252092Y-93701569D01*
X119262219Y-93705764D01*
X119271881Y-93710947D01*
X119275640Y-93711322D01*
X119279129Y-93712768D01*
X119290090Y-93712768D01*
X119301000Y-93713859D01*
X119304616Y-93712768D01*
X119308391Y-93712768D01*
X119318516Y-93708573D01*
X119329016Y-93705406D01*
X119331939Y-93703014D01*
X119335428Y-93701569D01*
X119346793Y-93692242D01*
X119385806Y-93653229D01*
X119454322Y-93618971D01*
X119657007Y-93618971D01*
X119725523Y-93653229D01*
X119755930Y-93683636D01*
X119790188Y-93752152D01*
X119790188Y-93954837D01*
X119755929Y-94023353D01*
X119725522Y-94053761D01*
X119657007Y-94088019D01*
X119454322Y-94088019D01*
X119385806Y-94053761D01*
X119346794Y-94014748D01*
X119335428Y-94005420D01*
X119308392Y-93994221D01*
X119279129Y-93994221D01*
X119252093Y-94005419D01*
X119231400Y-94026112D01*
X119220201Y-94053148D01*
X119220201Y-94082411D01*
X119231399Y-94109447D01*
X119240726Y-94120812D01*
X119288345Y-94168432D01*
X119294094Y-94173150D01*
X119295395Y-94174650D01*
X119297654Y-94176072D01*
X119299711Y-94177760D01*
X119301538Y-94178517D01*
X119307838Y-94182482D01*
X119403076Y-94230101D01*
X119416807Y-94235356D01*
X119419496Y-94235547D01*
X119421985Y-94236578D01*
X119436617Y-94238019D01*
X119674712Y-94238019D01*
X119689344Y-94236578D01*
X119691833Y-94235546D01*
X119694521Y-94235356D01*
X119708253Y-94230101D01*
X119803491Y-94182482D01*
X119809790Y-94178517D01*
X119811618Y-94177760D01*
X119813674Y-94176072D01*
X119815934Y-94174650D01*
X119817234Y-94173150D01*
X119822984Y-94168432D01*
X119870602Y-94120813D01*
X119875320Y-94115063D01*
X119876819Y-94113764D01*
X119878240Y-94111505D01*
X119879930Y-94109447D01*
X119880687Y-94107617D01*
X119884651Y-94101321D01*
X119932270Y-94006083D01*
X119937525Y-93992352D01*
X119937716Y-93989662D01*
X119938747Y-93987174D01*
X119940188Y-93972542D01*
X119940188Y-93734447D01*
X119938747Y-93719815D01*
X119937716Y-93717326D01*
X119937525Y-93714637D01*
X119932270Y-93700906D01*
X119884651Y-93605668D01*
X119880686Y-93599368D01*
X119879929Y-93597541D01*
X119878240Y-93595484D01*
X119876819Y-93593225D01*
X119875320Y-93591925D01*
X119870602Y-93586176D01*
X119822983Y-93538557D01*
X119817233Y-93533838D01*
X119815934Y-93532340D01*
X119813674Y-93530918D01*
X119811618Y-93529230D01*
X119809790Y-93528472D01*
X119803491Y-93524508D01*
X119708253Y-93476889D01*
X119694521Y-93471634D01*
X119691833Y-93471443D01*
X119689344Y-93470412D01*
X119674712Y-93468971D01*
X119436617Y-93468971D01*
X119421985Y-93470412D01*
X119419496Y-93471442D01*
X119416807Y-93471634D01*
X119403076Y-93476889D01*
X119384434Y-93486209D01*
X119409253Y-93238019D01*
X119817569Y-93238019D01*
X119832201Y-93236578D01*
X119859237Y-93225379D01*
X119879929Y-93204687D01*
X119891128Y-93177651D01*
X119891128Y-93148387D01*
X119879929Y-93121351D01*
X119859237Y-93100659D01*
X119832201Y-93089460D01*
X119817569Y-93088019D01*
X119341379Y-93088019D01*
X119335967Y-93088551D01*
X119334139Y-93088369D01*
X119332352Y-93088907D01*
X119326747Y-93089460D01*
X119316620Y-93093654D01*
X119306123Y-93096822D01*
X119303199Y-93099213D01*
X119299711Y-93100659D01*
X119291957Y-93108412D01*
X119283475Y-93115353D01*
X119281690Y-93118679D01*
X119279019Y-93121351D01*
X119274823Y-93131480D01*
X119269641Y-93141140D01*
X119268533Y-93146664D01*
X119267820Y-93148387D01*
X119267820Y-93150223D01*
X119266751Y-93155556D01*
X119219132Y-93631746D01*
X119219110Y-93646449D01*
X119107999Y-93646449D01*
X119107999Y-92976908D01*
X120051299Y-92976908D01*
X120051299Y-94349130D01*
G37*
G36*
X126687641Y-93192390D02*
G01*
X126761754Y-93266503D01*
X126800247Y-93343490D01*
X126843631Y-93517024D01*
X126843631Y-93641413D01*
X126800247Y-93814947D01*
X126761753Y-93891934D01*
X126687641Y-93966047D01*
X126573128Y-94004219D01*
X126422203Y-94004219D01*
X126422203Y-93154219D01*
X126573128Y-93154219D01*
X126687641Y-93192390D01*
G37*
G36*
X125814574Y-93718504D02*
G01*
X125546498Y-93718504D01*
X125680536Y-93316389D01*
X125814574Y-93718504D01*
G37*
G36*
X129817587Y-94265330D02*
G01*
X123351568Y-94265330D01*
X123351568Y-93079219D01*
X123462679Y-93079219D01*
X123462679Y-94079219D01*
X123464120Y-94093851D01*
X123475319Y-94120887D01*
X123496011Y-94141579D01*
X123523047Y-94152778D01*
X123552311Y-94152778D01*
X123579347Y-94141579D01*
X123600039Y-94120887D01*
X123611238Y-94093851D01*
X123612679Y-94079219D01*
X123612679Y-93630409D01*
X124034107Y-93630409D01*
X124034107Y-94079219D01*
X124035548Y-94093851D01*
X124046747Y-94120887D01*
X124067439Y-94141579D01*
X124094475Y-94152778D01*
X124123739Y-94152778D01*
X124150775Y-94141579D01*
X124171467Y-94120887D01*
X124182666Y-94093851D01*
X124184107Y-94079219D01*
X124184107Y-93079219D01*
X124510298Y-93079219D01*
X124510298Y-94079219D01*
X124511739Y-94093851D01*
X124522938Y-94120887D01*
X124543630Y-94141579D01*
X124570666Y-94152778D01*
X124585298Y-94154219D01*
X125061488Y-94154219D01*
X125076120Y-94152778D01*
X125103156Y-94141579D01*
X125123848Y-94120887D01*
X125135047Y-94093851D01*
X125135047Y-94069839D01*
X125272792Y-94069839D01*
X125274867Y-94099029D01*
X125287953Y-94125202D01*
X125310060Y-94144376D01*
X125337823Y-94153630D01*
X125367013Y-94151555D01*
X125393186Y-94138469D01*
X125412360Y-94116362D01*
X125418354Y-94102936D01*
X125496498Y-93868504D01*
X125864574Y-93868504D01*
X125942718Y-94102936D01*
X125948712Y-94116361D01*
X125967886Y-94138468D01*
X125994059Y-94151555D01*
X126023249Y-94153630D01*
X126051011Y-94144376D01*
X126073119Y-94125202D01*
X126086205Y-94099028D01*
X126088280Y-94069838D01*
X126085020Y-94055502D01*
X125759593Y-93079219D01*
X126272203Y-93079219D01*
X126272203Y-94079219D01*
X126273644Y-94093851D01*
X126284843Y-94120887D01*
X126305535Y-94141579D01*
X126332571Y-94152778D01*
X126347203Y-94154219D01*
X126585298Y-94154219D01*
X126592703Y-94153489D01*
X126594678Y-94153630D01*
X126597275Y-94153039D01*
X126599930Y-94152778D01*
X126601761Y-94152019D01*
X126609015Y-94150370D01*
X126751872Y-94102751D01*
X126765297Y-94096757D01*
X126767332Y-94094991D01*
X126769823Y-94093960D01*
X126781188Y-94084633D01*
X126876427Y-93989393D01*
X126881144Y-93983644D01*
X126882643Y-93982345D01*
X126884064Y-93980086D01*
X126885754Y-93978028D01*
X126886511Y-93976198D01*
X126890475Y-93969902D01*
X126938094Y-93874664D01*
X126938503Y-93873594D01*
X126938826Y-93873159D01*
X126941018Y-93867022D01*
X126943349Y-93860933D01*
X126943387Y-93860392D01*
X126943773Y-93859313D01*
X126991392Y-93668837D01*
X126991767Y-93666300D01*
X126992190Y-93665279D01*
X126992732Y-93659766D01*
X126993542Y-93654293D01*
X126993379Y-93653200D01*
X126993631Y-93650647D01*
X126993631Y-93507790D01*
X126993379Y-93505236D01*
X126993542Y-93504144D01*
X126992732Y-93498670D01*
X126992190Y-93493158D01*
X126991767Y-93492136D01*
X126991392Y-93489600D01*
X126943773Y-93299124D01*
X126943387Y-93298044D01*
X126943349Y-93297504D01*
X126941018Y-93291414D01*
X126938826Y-93285278D01*
X126938503Y-93284842D01*
X126938094Y-93283773D01*
X126931055Y-93269695D01*
X127224584Y-93269695D01*
X127224584Y-93364933D01*
X127226025Y-93379565D01*
X127227056Y-93382054D01*
X127227247Y-93384742D01*
X127232502Y-93398474D01*
X127280121Y-93493712D01*
X127284085Y-93500011D01*
X127284843Y-93501839D01*
X127286531Y-93503895D01*
X127287953Y-93506155D01*
X127289451Y-93507454D01*
X127294170Y-93513204D01*
X127341789Y-93560823D01*
X127347538Y-93565541D01*
X127348838Y-93567040D01*
X127351097Y-93568461D01*
X127353154Y-93570150D01*
X127354981Y-93570907D01*
X127361281Y-93574872D01*
X127456519Y-93622491D01*
X127457588Y-93622900D01*
X127458024Y-93623223D01*
X127464160Y-93625415D01*
X127470250Y-93627746D01*
X127470790Y-93627784D01*
X127471870Y-93628170D01*
X127654360Y-93673792D01*
X127731347Y-93712286D01*
X127761754Y-93742693D01*
X127796012Y-93811209D01*
X127796012Y-93871037D01*
X127761753Y-93939553D01*
X127731346Y-93969961D01*
X127662831Y-94004219D01*
X127454611Y-94004219D01*
X127323301Y-93960449D01*
X127308964Y-93957189D01*
X127279774Y-93959264D01*
X127253601Y-93972350D01*
X127234427Y-93994457D01*
X127225173Y-94022220D01*
X127227248Y-94051410D01*
X127240334Y-94077583D01*
X127262441Y-94096757D01*
X127275867Y-94102751D01*
X127418723Y-94150370D01*
X127425978Y-94152019D01*
X127427809Y-94152778D01*
X127430462Y-94153039D01*
X127433060Y-94153630D01*
X127435034Y-94153489D01*
X127442441Y-94154219D01*
X127680536Y-94154219D01*
X127695168Y-94152778D01*
X127697657Y-94151746D01*
X127700345Y-94151556D01*
X127714077Y-94146301D01*
X127809315Y-94098682D01*
X127815614Y-94094717D01*
X127817442Y-94093960D01*
X127819498Y-94092272D01*
X127821758Y-94090850D01*
X127823058Y-94089350D01*
X127828808Y-94084632D01*
X127876426Y-94037013D01*
X127881144Y-94031263D01*
X127882643Y-94029964D01*
X127884064Y-94027705D01*
X127885754Y-94025647D01*
X127886511Y-94023817D01*
X127890475Y-94017521D01*
X127938094Y-93922283D01*
X127943349Y-93908552D01*
X127943540Y-93905862D01*
X127944571Y-93903374D01*
X127946012Y-93888742D01*
X127946012Y-93793504D01*
X127944571Y-93778872D01*
X127943540Y-93776383D01*
X127943349Y-93773694D01*
X127938094Y-93759963D01*
X127890475Y-93664725D01*
X127886510Y-93658425D01*
X127885753Y-93656598D01*
X127884064Y-93654541D01*
X127882643Y-93652282D01*
X127881144Y-93650982D01*
X127876426Y-93645233D01*
X127828807Y-93597614D01*
X127823057Y-93592895D01*
X127821758Y-93591397D01*
X127819498Y-93589975D01*
X127817442Y-93588287D01*
X127815614Y-93587529D01*
X127809315Y-93583565D01*
X127714077Y-93535946D01*
X127713007Y-93535536D01*
X127712572Y-93535214D01*
X127706426Y-93533018D01*
X127700345Y-93530691D01*
X127699805Y-93530652D01*
X127698726Y-93530267D01*
X127516236Y-93484644D01*
X127439249Y-93446151D01*
X127408842Y-93415744D01*
X127374584Y-93347228D01*
X127374584Y-93287400D01*
X127408842Y-93218884D01*
X127439249Y-93188477D01*
X127507765Y-93154219D01*
X127715985Y-93154219D01*
X127847294Y-93197989D01*
X127861631Y-93201249D01*
X127890821Y-93199174D01*
X127916995Y-93186088D01*
X127936169Y-93163980D01*
X127945423Y-93136218D01*
X127943348Y-93107028D01*
X127930261Y-93080855D01*
X127928375Y-93079219D01*
X128224584Y-93079219D01*
X128224584Y-94079219D01*
X128226025Y-94093851D01*
X128237224Y-94120887D01*
X128257916Y-94141579D01*
X128284952Y-94152778D01*
X128299584Y-94154219D01*
X128775774Y-94154219D01*
X128790406Y-94152778D01*
X128817442Y-94141579D01*
X128838134Y-94120887D01*
X128849333Y-94093851D01*
X128849333Y-94064587D01*
X128838134Y-94037551D01*
X128817442Y-94016859D01*
X128790406Y-94005660D01*
X128775774Y-94004219D01*
X128374584Y-94004219D01*
X128374584Y-93630409D01*
X128632917Y-93630409D01*
X128647549Y-93628968D01*
X128674585Y-93617769D01*
X128695277Y-93597077D01*
X128706476Y-93570041D01*
X128706476Y-93540777D01*
X128695277Y-93513741D01*
X128674585Y-93493049D01*
X128647549Y-93481850D01*
X128632917Y-93480409D01*
X128374584Y-93480409D01*
X128374584Y-93154219D01*
X128775774Y-93154219D01*
X128790406Y-93152778D01*
X128817442Y-93141579D01*
X128838134Y-93120887D01*
X128849333Y-93093851D01*
X128849333Y-93064587D01*
X128987930Y-93064587D01*
X128987930Y-93093851D01*
X128999129Y-93120887D01*
X129019821Y-93141579D01*
X129046857Y-93152778D01*
X129061489Y-93154219D01*
X129272203Y-93154219D01*
X129272203Y-94079219D01*
X129273644Y-94093851D01*
X129284843Y-94120887D01*
X129305535Y-94141579D01*
X129332571Y-94152778D01*
X129361835Y-94152778D01*
X129388871Y-94141579D01*
X129409563Y-94120887D01*
X129420762Y-94093851D01*
X129422203Y-94079219D01*
X129422203Y-93154219D01*
X129632917Y-93154219D01*
X129647549Y-93152778D01*
X129674585Y-93141579D01*
X129695277Y-93120887D01*
X129706476Y-93093851D01*
X129706476Y-93064587D01*
X129695277Y-93037551D01*
X129674585Y-93016859D01*
X129647549Y-93005660D01*
X129632917Y-93004219D01*
X129061489Y-93004219D01*
X129046857Y-93005660D01*
X129019821Y-93016859D01*
X128999129Y-93037551D01*
X128987930Y-93064587D01*
X128849333Y-93064587D01*
X128838134Y-93037551D01*
X128817442Y-93016859D01*
X128790406Y-93005660D01*
X128775774Y-93004219D01*
X128299584Y-93004219D01*
X128284952Y-93005660D01*
X128257916Y-93016859D01*
X128237224Y-93037551D01*
X128226025Y-93064587D01*
X128224584Y-93079219D01*
X127928375Y-93079219D01*
X127908154Y-93061681D01*
X127894729Y-93055687D01*
X127751872Y-93008068D01*
X127744618Y-93006418D01*
X127742787Y-93005660D01*
X127740132Y-93005398D01*
X127737535Y-93004808D01*
X127735560Y-93004948D01*
X127728155Y-93004219D01*
X127490060Y-93004219D01*
X127475428Y-93005660D01*
X127472939Y-93006690D01*
X127470250Y-93006882D01*
X127456519Y-93012137D01*
X127361281Y-93059756D01*
X127354981Y-93063720D01*
X127353154Y-93064478D01*
X127351097Y-93066166D01*
X127348838Y-93067588D01*
X127347538Y-93069086D01*
X127341789Y-93073805D01*
X127294170Y-93121424D01*
X127289451Y-93127173D01*
X127287953Y-93128473D01*
X127286531Y-93130732D01*
X127284843Y-93132789D01*
X127284085Y-93134616D01*
X127280121Y-93140916D01*
X127232502Y-93236154D01*
X127227247Y-93249886D01*
X127227056Y-93252573D01*
X127226025Y-93255063D01*
X127224584Y-93269695D01*
X126931055Y-93269695D01*
X126890475Y-93188535D01*
X126886512Y-93182240D01*
X126885754Y-93180408D01*
X126884062Y-93178346D01*
X126882643Y-93176092D01*
X126881146Y-93174793D01*
X126876426Y-93169043D01*
X126781188Y-93073805D01*
X126769823Y-93064478D01*
X126767332Y-93063446D01*
X126765297Y-93061681D01*
X126751872Y-93055687D01*
X126609015Y-93008068D01*
X126601761Y-93006418D01*
X126599930Y-93005660D01*
X126597275Y-93005398D01*
X126594678Y-93004808D01*
X126592703Y-93004948D01*
X126585298Y-93004219D01*
X126347203Y-93004219D01*
X126332571Y-93005660D01*
X126305535Y-93016859D01*
X126284843Y-93037551D01*
X126273644Y-93064587D01*
X126272203Y-93079219D01*
X125759593Y-93079219D01*
X125751687Y-93055502D01*
X125745693Y-93042076D01*
X125742181Y-93038027D01*
X125739786Y-93033236D01*
X125732682Y-93027074D01*
X125726519Y-93019969D01*
X125721725Y-93017572D01*
X125717678Y-93014062D01*
X125708756Y-93011088D01*
X125700346Y-93006883D01*
X125695001Y-93006503D01*
X125689916Y-93004808D01*
X125680536Y-93005474D01*
X125671156Y-93004808D01*
X125666070Y-93006503D01*
X125660726Y-93006883D01*
X125652318Y-93011087D01*
X125643393Y-93014062D01*
X125639342Y-93017575D01*
X125634553Y-93019970D01*
X125628394Y-93027070D01*
X125621286Y-93033236D01*
X125618889Y-93038029D01*
X125615379Y-93042077D01*
X125609385Y-93055502D01*
X125276052Y-94055502D01*
X125272792Y-94069839D01*
X125135047Y-94069839D01*
X125135047Y-94064587D01*
X125123848Y-94037551D01*
X125103156Y-94016859D01*
X125076120Y-94005660D01*
X125061488Y-94004219D01*
X124660298Y-94004219D01*
X124660298Y-93630409D01*
X124918631Y-93630409D01*
X124933263Y-93628968D01*
X124960299Y-93617769D01*
X124980991Y-93597077D01*
X124992190Y-93570041D01*
X124992190Y-93540777D01*
X124980991Y-93513741D01*
X124960299Y-93493049D01*
X124933263Y-93481850D01*
X124918631Y-93480409D01*
X124660298Y-93480409D01*
X124660298Y-93154219D01*
X125061488Y-93154219D01*
X125076120Y-93152778D01*
X125103156Y-93141579D01*
X125123848Y-93120887D01*
X125135047Y-93093851D01*
X125135047Y-93064587D01*
X125123848Y-93037551D01*
X125103156Y-93016859D01*
X125076120Y-93005660D01*
X125061488Y-93004219D01*
X124585298Y-93004219D01*
X124570666Y-93005660D01*
X124543630Y-93016859D01*
X124522938Y-93037551D01*
X124511739Y-93064587D01*
X124510298Y-93079219D01*
X124184107Y-93079219D01*
X124182666Y-93064587D01*
X124171467Y-93037551D01*
X124150775Y-93016859D01*
X124123739Y-93005660D01*
X124094475Y-93005660D01*
X124067439Y-93016859D01*
X124046747Y-93037551D01*
X124035548Y-93064587D01*
X124034107Y-93079219D01*
X124034107Y-93480409D01*
X123612679Y-93480409D01*
X123612679Y-93079219D01*
X123611238Y-93064587D01*
X123600039Y-93037551D01*
X123579347Y-93016859D01*
X123552311Y-93005660D01*
X123523047Y-93005660D01*
X123496011Y-93016859D01*
X123475319Y-93037551D01*
X123464120Y-93064587D01*
X123462679Y-93079219D01*
X123351568Y-93079219D01*
X123351568Y-92893108D01*
X129817587Y-92893108D01*
X129817587Y-94265330D01*
G37*
G36*
X115766777Y-94347689D02*
G01*
X114777538Y-94347689D01*
X114777538Y-93820305D01*
X114888649Y-93820305D01*
X114889501Y-93832290D01*
X114889501Y-93844317D01*
X114890533Y-93846808D01*
X114890724Y-93849495D01*
X114896098Y-93860244D01*
X114900700Y-93871353D01*
X114902605Y-93873258D01*
X114903810Y-93875668D01*
X114912892Y-93883545D01*
X114921392Y-93892045D01*
X114923880Y-93893075D01*
X114925917Y-93894842D01*
X114937320Y-93898643D01*
X114948428Y-93903244D01*
X114952254Y-93903620D01*
X114953680Y-93904096D01*
X114955654Y-93903955D01*
X114963060Y-93904685D01*
X115364250Y-93904685D01*
X115364250Y-94163019D01*
X115365691Y-94177651D01*
X115376890Y-94204687D01*
X115397582Y-94225379D01*
X115424618Y-94236578D01*
X115453882Y-94236578D01*
X115480918Y-94225379D01*
X115501610Y-94204687D01*
X115512809Y-94177651D01*
X115514250Y-94163019D01*
X115514250Y-93904685D01*
X115582107Y-93904685D01*
X115596739Y-93903244D01*
X115623775Y-93892045D01*
X115644467Y-93871353D01*
X115655666Y-93844317D01*
X115655666Y-93815053D01*
X115644467Y-93788017D01*
X115623775Y-93767325D01*
X115596739Y-93756126D01*
X115582107Y-93754685D01*
X115514250Y-93754685D01*
X115514250Y-93496352D01*
X115512809Y-93481720D01*
X115501610Y-93454684D01*
X115480918Y-93433992D01*
X115453882Y-93422793D01*
X115424618Y-93422793D01*
X115397582Y-93433992D01*
X115376890Y-93454684D01*
X115365691Y-93481720D01*
X115364250Y-93496352D01*
X115364250Y-93754685D01*
X115067117Y-93754685D01*
X115272306Y-93139118D01*
X115275566Y-93124781D01*
X115273491Y-93095591D01*
X115260405Y-93069417D01*
X115238297Y-93050243D01*
X115210535Y-93040989D01*
X115181345Y-93043064D01*
X115155172Y-93056151D01*
X115135998Y-93078258D01*
X115130004Y-93091683D01*
X114891909Y-93805968D01*
X114890259Y-93813221D01*
X114889501Y-93815053D01*
X114889501Y-93816558D01*
X114888649Y-93820305D01*
X114777538Y-93820305D01*
X114777538Y-92929878D01*
X115766777Y-92929878D01*
X115766777Y-94347689D01*
G37*
G36*
X116952417Y-99288704D02*
G01*
X116684341Y-99288704D01*
X116818379Y-98886589D01*
X116952417Y-99288704D01*
G37*
G36*
X115250142Y-98758677D02*
G01*
X115280549Y-98789084D01*
X115314807Y-98857600D01*
X115314807Y-98965047D01*
X115280549Y-99033563D01*
X115250142Y-99063970D01*
X115181626Y-99098228D01*
X114893379Y-99098228D01*
X114893379Y-98724419D01*
X115181626Y-98724419D01*
X115250142Y-98758677D01*
G37*
G36*
X118194947Y-99835530D02*
G01*
X114632268Y-99835530D01*
X114632268Y-98649419D01*
X114743379Y-98649419D01*
X114743379Y-99649419D01*
X114744820Y-99664051D01*
X114756019Y-99691087D01*
X114776711Y-99711779D01*
X114803747Y-99722978D01*
X114833011Y-99722978D01*
X114860047Y-99711779D01*
X114880739Y-99691087D01*
X114891938Y-99664051D01*
X114893379Y-99649419D01*
X114893379Y-99248228D01*
X115199331Y-99248228D01*
X115213963Y-99246787D01*
X115216452Y-99245755D01*
X115219140Y-99245565D01*
X115232872Y-99240310D01*
X115328110Y-99192691D01*
X115334409Y-99188726D01*
X115336237Y-99187969D01*
X115338293Y-99186280D01*
X115340553Y-99184859D01*
X115341852Y-99183360D01*
X115347602Y-99178642D01*
X115395221Y-99131023D01*
X115399939Y-99125273D01*
X115401438Y-99123974D01*
X115402859Y-99121714D01*
X115404548Y-99119658D01*
X115405305Y-99117830D01*
X115409270Y-99111531D01*
X115456889Y-99016293D01*
X115462144Y-99002562D01*
X115462335Y-98999872D01*
X115463366Y-98997384D01*
X115464807Y-98982752D01*
X115464807Y-98839895D01*
X115463366Y-98825263D01*
X115462335Y-98822774D01*
X115462144Y-98820085D01*
X115456889Y-98806354D01*
X115409270Y-98711116D01*
X115405305Y-98704816D01*
X115404548Y-98702989D01*
X115402859Y-98700932D01*
X115401438Y-98698673D01*
X115399939Y-98697373D01*
X115395221Y-98691624D01*
X115353016Y-98649419D01*
X115743379Y-98649419D01*
X115743379Y-99649419D01*
X115744820Y-99664051D01*
X115756019Y-99691087D01*
X115776711Y-99711779D01*
X115803747Y-99722978D01*
X115818379Y-99724419D01*
X116294569Y-99724419D01*
X116309201Y-99722978D01*
X116336237Y-99711779D01*
X116356929Y-99691087D01*
X116368128Y-99664051D01*
X116368128Y-99640039D01*
X116410635Y-99640039D01*
X116412710Y-99669229D01*
X116425796Y-99695402D01*
X116447903Y-99714576D01*
X116475666Y-99723830D01*
X116504856Y-99721755D01*
X116531029Y-99708669D01*
X116550203Y-99686562D01*
X116556197Y-99673136D01*
X116634341Y-99438704D01*
X117002417Y-99438704D01*
X117080561Y-99673136D01*
X117086555Y-99686561D01*
X117105729Y-99708668D01*
X117131902Y-99721755D01*
X117161092Y-99723830D01*
X117188854Y-99714576D01*
X117210962Y-99695402D01*
X117224048Y-99669228D01*
X117226123Y-99640038D01*
X117222863Y-99625702D01*
X116896878Y-98647745D01*
X117267208Y-98647745D01*
X117272275Y-98676567D01*
X117278914Y-98689685D01*
X117600522Y-99195069D01*
X117600522Y-99649419D01*
X117601963Y-99664051D01*
X117613162Y-99691087D01*
X117633854Y-99711779D01*
X117660890Y-99722978D01*
X117690154Y-99722978D01*
X117717190Y-99711779D01*
X117737882Y-99691087D01*
X117749081Y-99664051D01*
X117750522Y-99649419D01*
X117750522Y-99195068D01*
X118072130Y-98689684D01*
X118078770Y-98676566D01*
X118083836Y-98647745D01*
X118077488Y-98619179D01*
X118060692Y-98595215D01*
X118036003Y-98579504D01*
X118007181Y-98574438D01*
X117978615Y-98580786D01*
X117954652Y-98597582D01*
X117945580Y-98609153D01*
X117675521Y-99033530D01*
X117405464Y-98609153D01*
X117396392Y-98597583D01*
X117372429Y-98580786D01*
X117343863Y-98574438D01*
X117315041Y-98579505D01*
X117290353Y-98595216D01*
X117273556Y-98619179D01*
X117267208Y-98647745D01*
X116896878Y-98647745D01*
X116889530Y-98625702D01*
X116883536Y-98612276D01*
X116880024Y-98608227D01*
X116877629Y-98603436D01*
X116870525Y-98597274D01*
X116864362Y-98590169D01*
X116859568Y-98587772D01*
X116855521Y-98584262D01*
X116846599Y-98581288D01*
X116838189Y-98577083D01*
X116832844Y-98576703D01*
X116827759Y-98575008D01*
X116818379Y-98575674D01*
X116808999Y-98575008D01*
X116803913Y-98576703D01*
X116798569Y-98577083D01*
X116790161Y-98581287D01*
X116781236Y-98584262D01*
X116777185Y-98587775D01*
X116772396Y-98590170D01*
X116766237Y-98597270D01*
X116759129Y-98603436D01*
X116756732Y-98608229D01*
X116753222Y-98612277D01*
X116747228Y-98625702D01*
X116413895Y-99625702D01*
X116410635Y-99640039D01*
X116368128Y-99640039D01*
X116368128Y-99634787D01*
X116356929Y-99607751D01*
X116336237Y-99587059D01*
X116309201Y-99575860D01*
X116294569Y-99574419D01*
X115893379Y-99574419D01*
X115893379Y-98649419D01*
X115891938Y-98634787D01*
X115880739Y-98607751D01*
X115860047Y-98587059D01*
X115833011Y-98575860D01*
X115803747Y-98575860D01*
X115776711Y-98587059D01*
X115756019Y-98607751D01*
X115744820Y-98634787D01*
X115743379Y-98649419D01*
X115353016Y-98649419D01*
X115347602Y-98644005D01*
X115341852Y-98639286D01*
X115340553Y-98637788D01*
X115338293Y-98636366D01*
X115336237Y-98634678D01*
X115334409Y-98633920D01*
X115328110Y-98629956D01*
X115232872Y-98582337D01*
X115219140Y-98577082D01*
X115216452Y-98576891D01*
X115213963Y-98575860D01*
X115199331Y-98574419D01*
X114818379Y-98574419D01*
X114803747Y-98575860D01*
X114776711Y-98587059D01*
X114756019Y-98607751D01*
X114744820Y-98634787D01*
X114743379Y-98649419D01*
X114632268Y-98649419D01*
X114632268Y-98463308D01*
X118194947Y-98463308D01*
X118194947Y-99835530D01*
G37*
G36*
X116286885Y-114963877D02*
G01*
X116358827Y-115035819D01*
X116399169Y-115197186D01*
X116399169Y-115512051D01*
X116358827Y-115673417D01*
X116286884Y-115745361D01*
X116218369Y-115779619D01*
X116063303Y-115779619D01*
X115994787Y-115745361D01*
X115922844Y-115673417D01*
X115882503Y-115512051D01*
X115882503Y-115197186D01*
X115922844Y-115035819D01*
X115994787Y-114963877D01*
X116063303Y-114929619D01*
X116218369Y-114929619D01*
X116286885Y-114963877D01*
G37*
G36*
X118658840Y-116040730D02*
G01*
X114669600Y-116040730D01*
X114669600Y-114863999D01*
X114780711Y-114863999D01*
X114783971Y-114878336D01*
X115117304Y-115878336D01*
X115123298Y-115891761D01*
X115126808Y-115895808D01*
X115129205Y-115900602D01*
X115136313Y-115906767D01*
X115142472Y-115913868D01*
X115147261Y-115916262D01*
X115151312Y-115919776D01*
X115160237Y-115922750D01*
X115168645Y-115926955D01*
X115173989Y-115927334D01*
X115179075Y-115929030D01*
X115188455Y-115928363D01*
X115197835Y-115929030D01*
X115202920Y-115927334D01*
X115208265Y-115926955D01*
X115216675Y-115922749D01*
X115225597Y-115919776D01*
X115229644Y-115916265D01*
X115234438Y-115913869D01*
X115240601Y-115906763D01*
X115247705Y-115900602D01*
X115250100Y-115895810D01*
X115253612Y-115891762D01*
X115259606Y-115878336D01*
X115489734Y-115187952D01*
X115732503Y-115187952D01*
X115732503Y-115521285D01*
X115732754Y-115523838D01*
X115732592Y-115524931D01*
X115733401Y-115530404D01*
X115733944Y-115535917D01*
X115734366Y-115536938D01*
X115734742Y-115539475D01*
X115782361Y-115729951D01*
X115787308Y-115743797D01*
X115790627Y-115748276D01*
X115792761Y-115753428D01*
X115802089Y-115764794D01*
X115897327Y-115860033D01*
X115903077Y-115864753D01*
X115904376Y-115866250D01*
X115906630Y-115867669D01*
X115908692Y-115869361D01*
X115910524Y-115870119D01*
X115916819Y-115874082D01*
X116012057Y-115921701D01*
X116025788Y-115926956D01*
X116028477Y-115927147D01*
X116030966Y-115928178D01*
X116045598Y-115929619D01*
X116236074Y-115929619D01*
X116250706Y-115928178D01*
X116253195Y-115927146D01*
X116255883Y-115926956D01*
X116269615Y-115921701D01*
X116364853Y-115874082D01*
X116371152Y-115870117D01*
X116372980Y-115869360D01*
X116375036Y-115867671D01*
X116377296Y-115866250D01*
X116378595Y-115864751D01*
X116384345Y-115860033D01*
X116479584Y-115764793D01*
X116488911Y-115753428D01*
X116491044Y-115748276D01*
X116494364Y-115743797D01*
X116499311Y-115729951D01*
X116546930Y-115539475D01*
X116547305Y-115536938D01*
X116547728Y-115535917D01*
X116548270Y-115530404D01*
X116549080Y-115524931D01*
X116548917Y-115523838D01*
X116549169Y-115521285D01*
X116549169Y-115187952D01*
X116548917Y-115185398D01*
X116549080Y-115184306D01*
X116548270Y-115178832D01*
X116547728Y-115173320D01*
X116547305Y-115172298D01*
X116546930Y-115169762D01*
X116499311Y-114979286D01*
X116494364Y-114965440D01*
X116491045Y-114960961D01*
X116488911Y-114955808D01*
X116479583Y-114944443D01*
X116389759Y-114854619D01*
X116827741Y-114854619D01*
X116827741Y-115854619D01*
X116829182Y-115869251D01*
X116840381Y-115896287D01*
X116861073Y-115916979D01*
X116888109Y-115928178D01*
X116902741Y-115929619D01*
X117378931Y-115929619D01*
X117393563Y-115928178D01*
X117420599Y-115916979D01*
X117441291Y-115896287D01*
X117452490Y-115869251D01*
X117452490Y-115839987D01*
X117441291Y-115812951D01*
X117420599Y-115792259D01*
X117393563Y-115781060D01*
X117378931Y-115779619D01*
X116977741Y-115779619D01*
X116977741Y-115459034D01*
X117638706Y-115459034D01*
X117638706Y-115488298D01*
X117649905Y-115515334D01*
X117670597Y-115536026D01*
X117697633Y-115547225D01*
X117712265Y-115548666D01*
X118474170Y-115548666D01*
X118488802Y-115547225D01*
X118515838Y-115536026D01*
X118536530Y-115515334D01*
X118547729Y-115488298D01*
X118547729Y-115459034D01*
X118536530Y-115431998D01*
X118515838Y-115411306D01*
X118488802Y-115400107D01*
X118474170Y-115398666D01*
X117712265Y-115398666D01*
X117697633Y-115400107D01*
X117670597Y-115411306D01*
X117649905Y-115431998D01*
X117638706Y-115459034D01*
X116977741Y-115459034D01*
X116977741Y-114854619D01*
X116976300Y-114839987D01*
X116965101Y-114812951D01*
X116944409Y-114792259D01*
X116917373Y-114781060D01*
X116888109Y-114781060D01*
X116861073Y-114792259D01*
X116840381Y-114812951D01*
X116829182Y-114839987D01*
X116827741Y-114854619D01*
X116389759Y-114854619D01*
X116384345Y-114849205D01*
X116378595Y-114844486D01*
X116377296Y-114842988D01*
X116375036Y-114841566D01*
X116372980Y-114839878D01*
X116371152Y-114839120D01*
X116364853Y-114835156D01*
X116269615Y-114787537D01*
X116255883Y-114782282D01*
X116253195Y-114782091D01*
X116250706Y-114781060D01*
X116236074Y-114779619D01*
X116045598Y-114779619D01*
X116030966Y-114781060D01*
X116028477Y-114782090D01*
X116025788Y-114782282D01*
X116012057Y-114787537D01*
X115916819Y-114835156D01*
X115910524Y-114839118D01*
X115908692Y-114839877D01*
X115906630Y-114841568D01*
X115904376Y-114842988D01*
X115903077Y-114844484D01*
X115897327Y-114849205D01*
X115802089Y-114944443D01*
X115792762Y-114955808D01*
X115790628Y-114960958D01*
X115787308Y-114965440D01*
X115782361Y-114979286D01*
X115734742Y-115169762D01*
X115734366Y-115172298D01*
X115733944Y-115173320D01*
X115733401Y-115178832D01*
X115732592Y-115184306D01*
X115732754Y-115185398D01*
X115732503Y-115187952D01*
X115489734Y-115187952D01*
X115592939Y-114878336D01*
X115596199Y-114864000D01*
X115594124Y-114834810D01*
X115581038Y-114808636D01*
X115558930Y-114789462D01*
X115531168Y-114780208D01*
X115501978Y-114782283D01*
X115475805Y-114795370D01*
X115456631Y-114817477D01*
X115450637Y-114830902D01*
X115188455Y-115617448D01*
X114926273Y-114830902D01*
X114920279Y-114817476D01*
X114901105Y-114795369D01*
X114874932Y-114782283D01*
X114845742Y-114780208D01*
X114817979Y-114789462D01*
X114795872Y-114808636D01*
X114782786Y-114834809D01*
X114780711Y-114863999D01*
X114669600Y-114863999D01*
X114669600Y-114668508D01*
X118658840Y-114668508D01*
X118658840Y-116040730D01*
G37*
G36*
X116324985Y-110722077D02*
G01*
X116396927Y-110794019D01*
X116437269Y-110955386D01*
X116437269Y-111270251D01*
X116396927Y-111431617D01*
X116324984Y-111503561D01*
X116256469Y-111537819D01*
X116101403Y-111537819D01*
X116032887Y-111503561D01*
X115960944Y-111431617D01*
X115920603Y-111270251D01*
X115920603Y-110955386D01*
X115960944Y-110794019D01*
X116032887Y-110722077D01*
X116101403Y-110687819D01*
X116256469Y-110687819D01*
X116324985Y-110722077D01*
G37*
G36*
X118696940Y-111798930D02*
G01*
X114707700Y-111798930D01*
X114707700Y-110622199D01*
X114818811Y-110622199D01*
X114822071Y-110636536D01*
X115155404Y-111636536D01*
X115161398Y-111649961D01*
X115164908Y-111654008D01*
X115167305Y-111658802D01*
X115174413Y-111664967D01*
X115180572Y-111672068D01*
X115185361Y-111674462D01*
X115189412Y-111677976D01*
X115198337Y-111680950D01*
X115206745Y-111685155D01*
X115212089Y-111685534D01*
X115217175Y-111687230D01*
X115226555Y-111686563D01*
X115235935Y-111687230D01*
X115241020Y-111685534D01*
X115246365Y-111685155D01*
X115254775Y-111680949D01*
X115263697Y-111677976D01*
X115267744Y-111674465D01*
X115272538Y-111672069D01*
X115278701Y-111664963D01*
X115285805Y-111658802D01*
X115288200Y-111654010D01*
X115291712Y-111649962D01*
X115297706Y-111636536D01*
X115527834Y-110946152D01*
X115770603Y-110946152D01*
X115770603Y-111279485D01*
X115770854Y-111282038D01*
X115770692Y-111283131D01*
X115771501Y-111288604D01*
X115772044Y-111294117D01*
X115772466Y-111295138D01*
X115772842Y-111297675D01*
X115820461Y-111488151D01*
X115825408Y-111501997D01*
X115828727Y-111506476D01*
X115830861Y-111511628D01*
X115840189Y-111522994D01*
X115935427Y-111618233D01*
X115941177Y-111622953D01*
X115942476Y-111624450D01*
X115944730Y-111625869D01*
X115946792Y-111627561D01*
X115948624Y-111628319D01*
X115954919Y-111632282D01*
X116050157Y-111679901D01*
X116063888Y-111685156D01*
X116066577Y-111685347D01*
X116069066Y-111686378D01*
X116083698Y-111687819D01*
X116274174Y-111687819D01*
X116288806Y-111686378D01*
X116291295Y-111685346D01*
X116293983Y-111685156D01*
X116307715Y-111679901D01*
X116402953Y-111632282D01*
X116409252Y-111628317D01*
X116411080Y-111627560D01*
X116413136Y-111625871D01*
X116415396Y-111624450D01*
X116416695Y-111622951D01*
X116422445Y-111618233D01*
X116517684Y-111522993D01*
X116527011Y-111511628D01*
X116529144Y-111506476D01*
X116532464Y-111501997D01*
X116537411Y-111488151D01*
X116585030Y-111297675D01*
X116585405Y-111295138D01*
X116585828Y-111294117D01*
X116586370Y-111288604D01*
X116587180Y-111283131D01*
X116587017Y-111282038D01*
X116587269Y-111279485D01*
X116587269Y-110946152D01*
X116587017Y-110943598D01*
X116587180Y-110942506D01*
X116586370Y-110937032D01*
X116585828Y-110931520D01*
X116585405Y-110930498D01*
X116585030Y-110927962D01*
X116537411Y-110737486D01*
X116532464Y-110723640D01*
X116529145Y-110719161D01*
X116527011Y-110714008D01*
X116517683Y-110702643D01*
X116427859Y-110612819D01*
X116865841Y-110612819D01*
X116865841Y-111612819D01*
X116867282Y-111627451D01*
X116878481Y-111654487D01*
X116899173Y-111675179D01*
X116926209Y-111686378D01*
X116940841Y-111687819D01*
X117417031Y-111687819D01*
X117431663Y-111686378D01*
X117458699Y-111675179D01*
X117479391Y-111654487D01*
X117490590Y-111627451D01*
X117490590Y-111598187D01*
X117479391Y-111571151D01*
X117458699Y-111550459D01*
X117431663Y-111539260D01*
X117417031Y-111537819D01*
X117015841Y-111537819D01*
X117015841Y-111217234D01*
X117676806Y-111217234D01*
X117676806Y-111246498D01*
X117688005Y-111273534D01*
X117708697Y-111294226D01*
X117735733Y-111305425D01*
X117750365Y-111306866D01*
X118056317Y-111306866D01*
X118056317Y-111612819D01*
X118057758Y-111627451D01*
X118068957Y-111654487D01*
X118089649Y-111675179D01*
X118116685Y-111686378D01*
X118145949Y-111686378D01*
X118172985Y-111675179D01*
X118193677Y-111654487D01*
X118204876Y-111627451D01*
X118206317Y-111612819D01*
X118206317Y-111306866D01*
X118512270Y-111306866D01*
X118526902Y-111305425D01*
X118553938Y-111294226D01*
X118574630Y-111273534D01*
X118585829Y-111246498D01*
X118585829Y-111217234D01*
X118574630Y-111190198D01*
X118553938Y-111169506D01*
X118526902Y-111158307D01*
X118512270Y-111156866D01*
X118206317Y-111156866D01*
X118206317Y-110850914D01*
X118204876Y-110836282D01*
X118193677Y-110809246D01*
X118172985Y-110788554D01*
X118145949Y-110777355D01*
X118116685Y-110777355D01*
X118089649Y-110788554D01*
X118068957Y-110809246D01*
X118057758Y-110836282D01*
X118056317Y-110850914D01*
X118056317Y-111156866D01*
X117750365Y-111156866D01*
X117735733Y-111158307D01*
X117708697Y-111169506D01*
X117688005Y-111190198D01*
X117676806Y-111217234D01*
X117015841Y-111217234D01*
X117015841Y-110612819D01*
X117014400Y-110598187D01*
X117003201Y-110571151D01*
X116982509Y-110550459D01*
X116955473Y-110539260D01*
X116926209Y-110539260D01*
X116899173Y-110550459D01*
X116878481Y-110571151D01*
X116867282Y-110598187D01*
X116865841Y-110612819D01*
X116427859Y-110612819D01*
X116422445Y-110607405D01*
X116416695Y-110602686D01*
X116415396Y-110601188D01*
X116413136Y-110599766D01*
X116411080Y-110598078D01*
X116409252Y-110597320D01*
X116402953Y-110593356D01*
X116307715Y-110545737D01*
X116293983Y-110540482D01*
X116291295Y-110540291D01*
X116288806Y-110539260D01*
X116274174Y-110537819D01*
X116083698Y-110537819D01*
X116069066Y-110539260D01*
X116066577Y-110540290D01*
X116063888Y-110540482D01*
X116050157Y-110545737D01*
X115954919Y-110593356D01*
X115948624Y-110597318D01*
X115946792Y-110598077D01*
X115944730Y-110599768D01*
X115942476Y-110601188D01*
X115941177Y-110602684D01*
X115935427Y-110607405D01*
X115840189Y-110702643D01*
X115830862Y-110714008D01*
X115828728Y-110719158D01*
X115825408Y-110723640D01*
X115820461Y-110737486D01*
X115772842Y-110927962D01*
X115772466Y-110930498D01*
X115772044Y-110931520D01*
X115771501Y-110937032D01*
X115770692Y-110942506D01*
X115770854Y-110943598D01*
X115770603Y-110946152D01*
X115527834Y-110946152D01*
X115631039Y-110636536D01*
X115634299Y-110622200D01*
X115632224Y-110593010D01*
X115619138Y-110566836D01*
X115597030Y-110547662D01*
X115569268Y-110538408D01*
X115540078Y-110540483D01*
X115513905Y-110553570D01*
X115494731Y-110575677D01*
X115488737Y-110589102D01*
X115226555Y-111375648D01*
X114964373Y-110589102D01*
X114958379Y-110575676D01*
X114939205Y-110553569D01*
X114913032Y-110540483D01*
X114883842Y-110538408D01*
X114856079Y-110547662D01*
X114833972Y-110566836D01*
X114820886Y-110593009D01*
X114818811Y-110622199D01*
X114707700Y-110622199D01*
X114707700Y-110426708D01*
X118696940Y-110426708D01*
X118696940Y-111798930D01*
G37*
G36*
X128754708Y-118161630D02*
G01*
X123334868Y-118161630D01*
X123334868Y-116975519D01*
X123445979Y-116975519D01*
X123445979Y-117975519D01*
X123447420Y-117990151D01*
X123458619Y-118017187D01*
X123479311Y-118037879D01*
X123506347Y-118049078D01*
X123520979Y-118050519D01*
X123997169Y-118050519D01*
X124011801Y-118049078D01*
X124038837Y-118037879D01*
X124059529Y-118017187D01*
X124070728Y-117990151D01*
X124070728Y-117960887D01*
X124059529Y-117933851D01*
X124038837Y-117913159D01*
X124011801Y-117901960D01*
X123997169Y-117900519D01*
X123595979Y-117900519D01*
X123595979Y-116975519D01*
X124255503Y-116975519D01*
X124255503Y-117975519D01*
X124256944Y-117990151D01*
X124268143Y-118017187D01*
X124288835Y-118037879D01*
X124315871Y-118049078D01*
X124345135Y-118049078D01*
X124372171Y-118037879D01*
X124392863Y-118017187D01*
X124404062Y-117990151D01*
X124405503Y-117975519D01*
X124405503Y-116975519D01*
X124731693Y-116975519D01*
X124731693Y-117975519D01*
X124733134Y-117990151D01*
X124744333Y-118017187D01*
X124765025Y-118037879D01*
X124792061Y-118049078D01*
X124821325Y-118049078D01*
X124848361Y-118037879D01*
X124869053Y-118017187D01*
X124880252Y-117990151D01*
X124881693Y-117975519D01*
X124881693Y-117257935D01*
X125313003Y-118012730D01*
X125315192Y-118015814D01*
X125315761Y-118017187D01*
X125317158Y-118018584D01*
X125321513Y-118024719D01*
X125329401Y-118030827D01*
X125336453Y-118037879D01*
X125340871Y-118039709D01*
X125344651Y-118042636D01*
X125354272Y-118045260D01*
X125363489Y-118049078D01*
X125368270Y-118049078D01*
X125372882Y-118050336D01*
X125382779Y-118049078D01*
X125392753Y-118049078D01*
X125397168Y-118047248D01*
X125401912Y-118046646D01*
X125410576Y-118041695D01*
X125419789Y-118037879D01*
X125423167Y-118034500D01*
X125427321Y-118032127D01*
X125433430Y-118024237D01*
X125440481Y-118017187D01*
X125442310Y-118012770D01*
X125445238Y-118008990D01*
X125447862Y-117999366D01*
X125451680Y-117990151D01*
X125452416Y-117982668D01*
X125452938Y-117980758D01*
X125452750Y-117979282D01*
X125453121Y-117975519D01*
X125453121Y-116975519D01*
X125779312Y-116975519D01*
X125779312Y-117975519D01*
X125780753Y-117990151D01*
X125791952Y-118017187D01*
X125812644Y-118037879D01*
X125839680Y-118049078D01*
X125854312Y-118050519D01*
X126330502Y-118050519D01*
X126345134Y-118049078D01*
X126372170Y-118037879D01*
X126392862Y-118017187D01*
X126404061Y-117990151D01*
X126404061Y-117960887D01*
X126392862Y-117933851D01*
X126372170Y-117913159D01*
X126345134Y-117901960D01*
X126330502Y-117900519D01*
X125929312Y-117900519D01*
X125929312Y-117526709D01*
X126187645Y-117526709D01*
X126202277Y-117525268D01*
X126229313Y-117514069D01*
X126250005Y-117493377D01*
X126261204Y-117466341D01*
X126261204Y-117437077D01*
X126250005Y-117410041D01*
X126229313Y-117389349D01*
X126202277Y-117378150D01*
X126187645Y-117376709D01*
X125929312Y-117376709D01*
X125929312Y-117050519D01*
X126330502Y-117050519D01*
X126345134Y-117049078D01*
X126372170Y-117037879D01*
X126392862Y-117017187D01*
X126404061Y-116990151D01*
X126404061Y-116975519D01*
X127445979Y-116975519D01*
X127445979Y-117975519D01*
X127447420Y-117990151D01*
X127458619Y-118017187D01*
X127479311Y-118037879D01*
X127506347Y-118049078D01*
X127535611Y-118049078D01*
X127562647Y-118037879D01*
X127583339Y-118017187D01*
X127594538Y-117990151D01*
X127595979Y-117975519D01*
X127595979Y-116975519D01*
X127922169Y-116975519D01*
X127922169Y-117975519D01*
X127923610Y-117990151D01*
X127934809Y-118017187D01*
X127955501Y-118037879D01*
X127982537Y-118049078D01*
X128011801Y-118049078D01*
X128038837Y-118037879D01*
X128059529Y-118017187D01*
X128070728Y-117990151D01*
X128072169Y-117975519D01*
X128072169Y-117257935D01*
X128503479Y-118012730D01*
X128505668Y-118015814D01*
X128506237Y-118017187D01*
X128507634Y-118018584D01*
X128511989Y-118024719D01*
X128519877Y-118030827D01*
X128526929Y-118037879D01*
X128531347Y-118039709D01*
X128535127Y-118042636D01*
X128544748Y-118045260D01*
X128553965Y-118049078D01*
X128558746Y-118049078D01*
X128563358Y-118050336D01*
X128573255Y-118049078D01*
X128583229Y-118049078D01*
X128587644Y-118047248D01*
X128592388Y-118046646D01*
X128601052Y-118041695D01*
X128610265Y-118037879D01*
X128613643Y-118034500D01*
X128617797Y-118032127D01*
X128623906Y-118024237D01*
X128630957Y-118017187D01*
X128632786Y-118012770D01*
X128635714Y-118008990D01*
X128638338Y-117999366D01*
X128642156Y-117990151D01*
X128642892Y-117982668D01*
X128643414Y-117980758D01*
X128643226Y-117979282D01*
X128643597Y-117975519D01*
X128643597Y-116975519D01*
X128642156Y-116960887D01*
X128630957Y-116933851D01*
X128610265Y-116913159D01*
X128583229Y-116901960D01*
X128553965Y-116901960D01*
X128526929Y-116913159D01*
X128506237Y-116933851D01*
X128495038Y-116960887D01*
X128493597Y-116975519D01*
X128493597Y-117693102D01*
X128062287Y-116938309D01*
X128060098Y-116935225D01*
X128059529Y-116933851D01*
X128058129Y-116932451D01*
X128053777Y-116926319D01*
X128045887Y-116920209D01*
X128038837Y-116913159D01*
X128034420Y-116911329D01*
X128030640Y-116908402D01*
X128021016Y-116905777D01*
X128011801Y-116901960D01*
X128007020Y-116901960D01*
X128002408Y-116900702D01*
X127992511Y-116901960D01*
X127982537Y-116901960D01*
X127978121Y-116903789D01*
X127973378Y-116904392D01*
X127964713Y-116909342D01*
X127955501Y-116913159D01*
X127952122Y-116916537D01*
X127947969Y-116918911D01*
X127941859Y-116926800D01*
X127934809Y-116933851D01*
X127932979Y-116938267D01*
X127930052Y-116942048D01*
X127927427Y-116951671D01*
X127923610Y-116960887D01*
X127922873Y-116968369D01*
X127922352Y-116970280D01*
X127922539Y-116971755D01*
X127922169Y-116975519D01*
X127595979Y-116975519D01*
X127594538Y-116960887D01*
X127583339Y-116933851D01*
X127562647Y-116913159D01*
X127535611Y-116901960D01*
X127506347Y-116901960D01*
X127479311Y-116913159D01*
X127458619Y-116933851D01*
X127447420Y-116960887D01*
X127445979Y-116975519D01*
X126404061Y-116975519D01*
X126404061Y-116960887D01*
X126392862Y-116933851D01*
X126372170Y-116913159D01*
X126345134Y-116901960D01*
X126330502Y-116900519D01*
X125854312Y-116900519D01*
X125839680Y-116901960D01*
X125812644Y-116913159D01*
X125791952Y-116933851D01*
X125780753Y-116960887D01*
X125779312Y-116975519D01*
X125453121Y-116975519D01*
X125451680Y-116960887D01*
X125440481Y-116933851D01*
X125419789Y-116913159D01*
X125392753Y-116901960D01*
X125363489Y-116901960D01*
X125336453Y-116913159D01*
X125315761Y-116933851D01*
X125304562Y-116960887D01*
X125303121Y-116975519D01*
X125303121Y-117693102D01*
X124871811Y-116938309D01*
X124869622Y-116935225D01*
X124869053Y-116933851D01*
X124867653Y-116932451D01*
X124863301Y-116926319D01*
X124855411Y-116920209D01*
X124848361Y-116913159D01*
X124843944Y-116911329D01*
X124840164Y-116908402D01*
X124830540Y-116905777D01*
X124821325Y-116901960D01*
X124816544Y-116901960D01*
X124811932Y-116900702D01*
X124802035Y-116901960D01*
X124792061Y-116901960D01*
X124787645Y-116903789D01*
X124782902Y-116904392D01*
X124774237Y-116909342D01*
X124765025Y-116913159D01*
X124761646Y-116916537D01*
X124757493Y-116918911D01*
X124751383Y-116926800D01*
X124744333Y-116933851D01*
X124742503Y-116938267D01*
X124739576Y-116942048D01*
X124736951Y-116951671D01*
X124733134Y-116960887D01*
X124732397Y-116968369D01*
X124731876Y-116970280D01*
X124732063Y-116971755D01*
X124731693Y-116975519D01*
X124405503Y-116975519D01*
X124404062Y-116960887D01*
X124392863Y-116933851D01*
X124372171Y-116913159D01*
X124345135Y-116901960D01*
X124315871Y-116901960D01*
X124288835Y-116913159D01*
X124268143Y-116933851D01*
X124256944Y-116960887D01*
X124255503Y-116975519D01*
X123595979Y-116975519D01*
X123594538Y-116960887D01*
X123583339Y-116933851D01*
X123562647Y-116913159D01*
X123535611Y-116901960D01*
X123506347Y-116901960D01*
X123479311Y-116913159D01*
X123458619Y-116933851D01*
X123447420Y-116960887D01*
X123445979Y-116975519D01*
X123334868Y-116975519D01*
X123334868Y-116789408D01*
X128754708Y-116789408D01*
X128754708Y-118161630D01*
G37*
X123202111Y-99269533D02*
X123269454Y-99404220D01*
X123269454Y-99404220D02*
X123437813Y-99572578D01*
X123437813Y-99572578D02*
X123538828Y-99606250D01*
X123538828Y-99606250D02*
X123606172Y-99606250D01*
X123606172Y-99606250D02*
X123707187Y-99572578D01*
X123707187Y-99572578D02*
X123774531Y-99505235D01*
X123774531Y-99505235D02*
X123808202Y-99404220D01*
X123808202Y-99404220D02*
X123808202Y-99336876D01*
X123808202Y-99336876D02*
X123774531Y-99235861D01*
X123774531Y-99235861D02*
X123673515Y-99067502D01*
X123673515Y-99067502D02*
X123639844Y-98966487D01*
X123639844Y-98966487D02*
X123639844Y-98899143D01*
X123639844Y-98899143D02*
X123673515Y-98798128D01*
X123673515Y-98798128D02*
X123740859Y-98730785D01*
X123740859Y-98730785D02*
X123841874Y-98697113D01*
X123841874Y-98697113D02*
X123909218Y-98697113D01*
X123909218Y-98697113D02*
X124010233Y-98730785D01*
X124010233Y-98730785D02*
X124178592Y-98899143D01*
X124178592Y-98899143D02*
X124245935Y-99033830D01*
X124515309Y-99235861D02*
X123976561Y-100111327D01*
X123976561Y-100111327D02*
X124616325Y-99740937D01*
X124616325Y-99740937D02*
X124245935Y-100380701D01*
X124245935Y-100380701D02*
X125121401Y-99841953D01*
X125693820Y-100414372D02*
X125559133Y-100279685D01*
X125559133Y-100279685D02*
X125458118Y-100246013D01*
X125458118Y-100246013D02*
X125390775Y-100246013D01*
X125390775Y-100246013D02*
X125222416Y-100279685D01*
X125222416Y-100279685D02*
X125054057Y-100380700D01*
X125054057Y-100380700D02*
X124784683Y-100650074D01*
X124784683Y-100650074D02*
X124751011Y-100751090D01*
X124751011Y-100751090D02*
X124751011Y-100818433D01*
X124751011Y-100818433D02*
X124784683Y-100919448D01*
X124784683Y-100919448D02*
X124919370Y-101054135D01*
X124919370Y-101054135D02*
X125020385Y-101087807D01*
X125020385Y-101087807D02*
X125087729Y-101087807D01*
X125087729Y-101087807D02*
X125188744Y-101054135D01*
X125188744Y-101054135D02*
X125357103Y-100885777D01*
X125357103Y-100885777D02*
X125390775Y-100784761D01*
X125390775Y-100784761D02*
X125390775Y-100717418D01*
X125390775Y-100717418D02*
X125357103Y-100616403D01*
X125357103Y-100616403D02*
X125222416Y-100481716D01*
X125222416Y-100481716D02*
X125121401Y-100448044D01*
X125121401Y-100448044D02*
X125054057Y-100448044D01*
X125054057Y-100448044D02*
X124953042Y-100481716D01*
D11*
%TO.C,SW6*%
X113826253Y-105581262D02*
X114794989Y-104612526D01*
X113826253Y-105581262D02*
X115608162Y-107363171D01*
X115855649Y-107313674D02*
X117043588Y-107313674D01*
X116994091Y-108749100D02*
X118776000Y-110531009D01*
X117043588Y-107313674D02*
X117043588Y-108501613D01*
X117807264Y-101600251D02*
X118776000Y-100631515D01*
X118281025Y-105086287D02*
X118281025Y-105086287D01*
X118281025Y-105086287D02*
X118281025Y-106076237D01*
X118281025Y-106076237D02*
X119270975Y-106076237D01*
X119270975Y-105086287D02*
X118281025Y-105086287D01*
X119270975Y-106076237D02*
X119270975Y-105086287D01*
X119270975Y-106076237D02*
X119270975Y-106076237D01*
X119744736Y-109562273D02*
X118776000Y-110531009D01*
X120557909Y-102413424D02*
X118776000Y-100631515D01*
X123725747Y-105581262D02*
X121943838Y-103799353D01*
X123725747Y-105581262D02*
X122757011Y-106549998D01*
X117368858Y-106097450D02*
G75*
G02*
X119287531Y-104172420I1407143J516187D01*
G01*
X120183142Y-105065074D02*
G75*
G02*
X118264469Y-106990104I-1407143J-516187D01*
G01*
X119766000Y-105581262D02*
G75*
G02*
X117786000Y-105581262I-990000J0D01*
G01*
X117786000Y-105581262D02*
G75*
G02*
X119766000Y-105581262I990000J0D01*
G01*
%TO.C,CN1*%
X123293800Y-96480400D02*
X123293800Y-101840400D01*
X123293800Y-101840400D02*
X123273800Y-101840400D01*
X124893800Y-102870400D02*
X124753800Y-102870400D01*
X128993800Y-96470400D02*
X125353800Y-96470400D01*
X131893800Y-96470400D02*
X131053800Y-96470400D01*
X131993800Y-102870400D02*
X126953800Y-102870400D01*
X135323800Y-96470400D02*
X133953800Y-96470400D01*
X135323800Y-96470400D02*
X135323800Y-102870400D01*
X135323800Y-102210400D02*
X137363800Y-102210400D01*
X135323800Y-102870400D02*
X134053800Y-102870400D01*
X135423800Y-97140400D02*
X135343800Y-97130400D01*
X137363800Y-97140400D02*
X135423800Y-97140400D01*
X137363800Y-102210400D02*
X137363800Y-97140400D01*
D12*
%TO.C,SW2*%
X118700800Y-111511400D02*
X118700800Y-111811400D01*
X118700800Y-114311400D02*
X118700800Y-114011400D01*
X122000800Y-111511400D02*
X118700800Y-111511400D01*
X122000800Y-111811400D02*
X122000800Y-111511400D01*
X122000800Y-114011400D02*
X122000800Y-114311400D01*
X122000800Y-114311400D02*
X118700800Y-114311400D01*
%TO.C,SW5*%
X120043000Y-92998800D02*
X120343000Y-92998800D01*
X120043000Y-96298800D02*
X120043000Y-92998800D01*
X120343000Y-96298800D02*
X120043000Y-96298800D01*
X122543000Y-96298800D02*
X122843000Y-96298800D01*
X122843000Y-92998800D02*
X122543000Y-92998800D01*
X122843000Y-96298800D02*
X122843000Y-92998800D01*
D11*
%TO.C,CN2*%
X123293800Y-108172000D02*
X123293800Y-113532000D01*
X123293800Y-113532000D02*
X123273800Y-113532000D01*
X124893800Y-114562000D02*
X124753800Y-114562000D01*
X128993800Y-108162000D02*
X125353800Y-108162000D01*
X131893800Y-108162000D02*
X131053800Y-108162000D01*
X131993800Y-114562000D02*
X126953800Y-114562000D01*
X135323800Y-108162000D02*
X133953800Y-108162000D01*
X135323800Y-108162000D02*
X135323800Y-114562000D01*
X135323800Y-113902000D02*
X137363800Y-113902000D01*
X135323800Y-114562000D02*
X134053800Y-114562000D01*
X135423800Y-108832000D02*
X135343800Y-108822000D01*
X137363800Y-108832000D02*
X135423800Y-108832000D01*
X137363800Y-113902000D02*
X137363800Y-108832000D01*
D12*
%TO.C,SW1*%
X118700800Y-115753200D02*
X118700800Y-116053200D01*
X118700800Y-118553200D02*
X118700800Y-118253200D01*
X122000800Y-115753200D02*
X118700800Y-115753200D01*
X122000800Y-116053200D02*
X122000800Y-115753200D01*
X122000800Y-118253200D02*
X122000800Y-118553200D01*
X122000800Y-118553200D02*
X118700800Y-118553200D01*
%TO.C,SW3*%
X119054600Y-97744600D02*
X122354600Y-97744600D01*
X119054600Y-98044600D02*
X119054600Y-97744600D01*
X119054600Y-100244600D02*
X119054600Y-100544600D01*
X119054600Y-100544600D02*
X122354600Y-100544600D01*
X122354600Y-97744600D02*
X122354600Y-98044600D01*
X122354600Y-100544600D02*
X122354600Y-100244600D01*
%TO.C,SW4*%
X115725000Y-92998800D02*
X116025000Y-92998800D01*
X115725000Y-96298800D02*
X115725000Y-92998800D01*
X116025000Y-96298800D02*
X115725000Y-96298800D01*
X118225000Y-96298800D02*
X118525000Y-96298800D01*
X118525000Y-92998800D02*
X118225000Y-92998800D01*
X118525000Y-96298800D02*
X118525000Y-92998800D01*
%TD*%
%LPC*%
D13*
%TO.C,SW6*%
X120119503Y-104237759D03*
D14*
X117432497Y-106924765D03*
D15*
X117467852Y-102293215D03*
X116477903Y-103283165D03*
X115487953Y-104273114D03*
X120084148Y-108869309D03*
X121074097Y-107879359D03*
X122064047Y-106889410D03*
X121604427Y-102752835D03*
X115947573Y-108409689D03*
%TD*%
D16*
%TO.C,CN1*%
X132923800Y-99670400D03*
X125923800Y-99670400D03*
D17*
X132923800Y-96020400D03*
X133023800Y-103320400D03*
X130023800Y-96020400D03*
X125923800Y-103320400D03*
X124323800Y-96020400D03*
X123723800Y-103320400D03*
%TD*%
D18*
%TO.C,SW2*%
X122050800Y-112911400D03*
X118650800Y-112911400D03*
%TD*%
D19*
%TO.C,SW5*%
X121443000Y-96348800D03*
X121443000Y-92948800D03*
%TD*%
D16*
%TO.C,CN2*%
X132923800Y-111362000D03*
X125923800Y-111362000D03*
D17*
X132923800Y-107712000D03*
X133023800Y-115012000D03*
X130023800Y-107712000D03*
X125923800Y-115012000D03*
X124323800Y-107712000D03*
X123723800Y-115012000D03*
%TD*%
D18*
%TO.C,SW1*%
X122050800Y-117153200D03*
X118650800Y-117153200D03*
%TD*%
%TO.C,SW3*%
X119004600Y-99144600D03*
X122404600Y-99144600D03*
%TD*%
D19*
%TO.C,SW4*%
X117125000Y-96348800D03*
X117125000Y-92948800D03*
%TD*%
%LPD*%
M02*
