%TF.GenerationSoftware,KiCad,Pcbnew,9.0.5*%
%TF.CreationDate,2025-11-18T12:35:26+01:00*%
%TF.ProjectId,AudioPlayground_HeadsetShield,41756469-6f50-46c6-9179-67726f756e64,rev?*%
%TF.SameCoordinates,Original*%
%TF.FileFunction,Copper,L2,Bot*%
%TF.FilePolarity,Positive*%
%FSLAX46Y46*%
G04 Gerber Fmt 4.6, Leading zero omitted, Abs format (unit mm)*
G04 Created by KiCad (PCBNEW 9.0.5) date 2025-11-18 12:35:26*
%MOMM*%
%LPD*%
G01*
G04 APERTURE LIST*
G04 Aperture macros list*
%AMFreePoly0*
4,1,23,0.500000,-0.750000,0.000000,-0.750000,0.000000,-0.745722,-0.065263,-0.745722,-0.191342,-0.711940,-0.304381,-0.646677,-0.396677,-0.554381,-0.461940,-0.441342,-0.495722,-0.315263,-0.495722,-0.250000,-0.500000,-0.250000,-0.500000,0.250000,-0.495722,0.250000,-0.495722,0.315263,-0.461940,0.441342,-0.396677,0.554381,-0.304381,0.646677,-0.191342,0.711940,-0.065263,0.745722,0.000000,0.745722,
0.000000,0.750000,0.500000,0.750000,0.500000,-0.750000,0.500000,-0.750000,$1*%
%AMFreePoly1*
4,1,23,0.000000,0.745722,0.065263,0.745722,0.191342,0.711940,0.304381,0.646677,0.396677,0.554381,0.461940,0.441342,0.495722,0.315263,0.495722,0.250000,0.500000,0.250000,0.500000,-0.250000,0.495722,-0.250000,0.495722,-0.315263,0.461940,-0.441342,0.396677,-0.554381,0.304381,-0.646677,0.191342,-0.711940,0.065263,-0.745722,0.000000,-0.745722,0.000000,-0.750000,-0.500000,-0.750000,
-0.500000,0.750000,0.000000,0.750000,0.000000,0.745722,0.000000,0.745722,$1*%
G04 Aperture macros list end*
%TA.AperFunction,EtchedComponent*%
%ADD10C,0.000000*%
%TD*%
%TA.AperFunction,ComponentPad*%
%ADD11C,1.100000*%
%TD*%
%TA.AperFunction,ComponentPad*%
%ADD12C,0.800000*%
%TD*%
%TA.AperFunction,ComponentPad*%
%ADD13C,1.300000*%
%TD*%
%TA.AperFunction,SMDPad,CuDef*%
%ADD14R,1.000000X2.510000*%
%TD*%
%TA.AperFunction,SMDPad,CuDef*%
%ADD15FreePoly0,0.000000*%
%TD*%
%TA.AperFunction,SMDPad,CuDef*%
%ADD16FreePoly1,0.000000*%
%TD*%
%TA.AperFunction,ViaPad*%
%ADD17C,0.450000*%
%TD*%
%TA.AperFunction,Conductor*%
%ADD18C,0.200000*%
%TD*%
G04 APERTURE END LIST*
D10*
%TA.AperFunction,EtchedComponent*%
%TO.C,JP1*%
G36*
X129440000Y-110781000D02*
G01*
X128940000Y-110781000D01*
X128940000Y-110381000D01*
X129440000Y-110381000D01*
X129440000Y-110781000D01*
G37*
%TD.AperFunction*%
%TA.AperFunction,EtchedComponent*%
G36*
X129440000Y-111581000D02*
G01*
X128940000Y-111581000D01*
X128940000Y-111181000D01*
X129440000Y-111181000D01*
X129440000Y-111581000D01*
G37*
%TD.AperFunction*%
%TD*%
D11*
%TO.P,SW6,*%
%TO.N,*%
X120119503Y-104237759D03*
D12*
X117432497Y-106924765D03*
%TD*%
D13*
%TO.P,CN1,*%
%TO.N,*%
X132923800Y-99670400D03*
X125923800Y-99670400D03*
%TD*%
%TO.P,CN2,*%
%TO.N,*%
X132923800Y-111362000D03*
X125923800Y-111362000D03*
%TD*%
D14*
%TO.P,J2,1,Pin_1*%
%TO.N,VHI*%
X116490000Y-93734400D03*
%TO.P,J2,2,Pin_2*%
%TO.N,+3.3V*%
X119030000Y-97044400D03*
%TO.P,J2,3,Pin_3*%
%TO.N,/BTN5*%
X121570000Y-93734400D03*
%TO.P,J2,4,Pin_4*%
%TO.N,/BTN4*%
X124110000Y-97044400D03*
%TO.P,J2,5,Pin_5*%
%TO.N,/BTN3*%
X126650000Y-93734400D03*
%TO.P,J2,6,Pin_6*%
%TO.N,/BTN2*%
X129190000Y-97044400D03*
%TO.P,J2,7,Pin_7*%
%TO.N,/BTN1*%
X131730000Y-93734400D03*
%TD*%
D15*
%TO.P,JP1,1,A*%
%TO.N,/MIC*%
X128540000Y-110981000D03*
D16*
%TO.P,JP1,2,B*%
%TO.N,/JACKSNS*%
X129840000Y-110981000D03*
%TD*%
D14*
%TO.P,J5,1,Pin_1*%
%TO.N,GND*%
X116490000Y-114025000D03*
%TO.P,J5,2,Pin_2*%
%TO.N,/LINL*%
X119030000Y-117335000D03*
%TO.P,J5,3,Pin_3*%
%TO.N,/LINR*%
X121570000Y-114025000D03*
%TO.P,J5,4,Pin_4*%
%TO.N,/MIC*%
X124110000Y-117335000D03*
%TO.P,J5,5,Pin_5*%
%TO.N,/LOUTP*%
X126650000Y-114025000D03*
%TO.P,J5,6,Pin_6*%
%TO.N,/ROUTP*%
X129190000Y-117335000D03*
%TO.P,J5,7,Pin_7*%
%TO.N,/JACKSNS*%
X131730000Y-114025000D03*
%TD*%
D17*
%TO.N,GND*%
X119842800Y-101278200D03*
X126040400Y-105520000D03*
X123830600Y-105494600D03*
X121011200Y-105240600D03*
X117658400Y-108568000D03*
X120223800Y-110549200D03*
%TO.N,/BTN2*%
X122078000Y-110523800D03*
%TO.N,/MIC*%
X127208800Y-116188000D03*
X128732800Y-109457000D03*
%TO.N,/LINR*%
X126472200Y-107704400D03*
%TO.N,/LOUTP*%
X127183400Y-103310200D03*
%TO.N,/LINL*%
X120376200Y-117356400D03*
%TO.N,/ROUTP*%
X129952000Y-99525600D03*
%TO.N,/BTN5*%
X116464600Y-105240600D03*
X121595400Y-95512400D03*
%TO.N,/BTN1*%
X122052600Y-115807000D03*
%TO.N,/BTN4*%
X119258600Y-94902800D03*
%TO.N,/BTN3*%
X120706400Y-99017600D03*
%TD*%
D18*
%TO.N,/MIC*%
X128732800Y-110788200D02*
X128540000Y-110981000D01*
X128732800Y-109457000D02*
X128732800Y-110788200D01*
X125257000Y-116188000D02*
X127208800Y-116188000D01*
X124110000Y-117335000D02*
X125257000Y-116188000D01*
%TO.N,/LINR*%
X121570000Y-114025000D02*
X126472200Y-109122800D01*
X126472200Y-109122800D02*
X126472200Y-107704400D01*
%TO.N,/LOUTP*%
X127183400Y-112124000D02*
X127183400Y-103310200D01*
X126650000Y-112657400D02*
X127183400Y-112124000D01*
X126650000Y-114025000D02*
X126650000Y-112657400D01*
%TO.N,/LINL*%
X120354800Y-117335000D02*
X120376200Y-117356400D01*
X119030000Y-117335000D02*
X120354800Y-117335000D01*
%TO.N,/JACKSNS*%
X131730000Y-114025000D02*
X129840000Y-112135000D01*
X129840000Y-112135000D02*
X129840000Y-110981000D01*
%TO.N,/ROUTP*%
X129190000Y-117335000D02*
X127742200Y-115887200D01*
X127742200Y-115887200D02*
X127742200Y-101735400D01*
X127742200Y-101735400D02*
X129952000Y-99525600D01*
%TO.N,/BTN5*%
X119683123Y-93734400D02*
X121570000Y-93734400D01*
X121570000Y-95487000D02*
X121595400Y-95512400D01*
X121570000Y-93734400D02*
X121570000Y-95487000D01*
X116464600Y-96952923D02*
X119683123Y-93734400D01*
X116464600Y-105240600D02*
X116464600Y-96952923D01*
%TO.N,/BTN1*%
X124846600Y-103615000D02*
X124846600Y-108695000D01*
X120808000Y-115807000D02*
X122052600Y-115807000D01*
X120300000Y-113241600D02*
X120300000Y-115299000D01*
X131730000Y-96731600D02*
X124846600Y-103615000D01*
X120300000Y-115299000D02*
X120808000Y-115807000D01*
X131730000Y-93734400D02*
X131730000Y-96731600D01*
X124846600Y-108695000D02*
X120300000Y-113241600D01*
%TO.N,/BTN4*%
X121400200Y-97044400D02*
X119258600Y-94902800D01*
X124110000Y-97044400D02*
X121400200Y-97044400D01*
%TO.N,/BTN2*%
X126446800Y-100973400D02*
X122078000Y-105342200D01*
X129190000Y-98230200D02*
X126446800Y-100973400D01*
X122078000Y-105342200D02*
X122078000Y-110523800D01*
X129190000Y-97044400D02*
X129190000Y-98230200D01*
%TO.N,/BTN3*%
X126650000Y-93734400D02*
X126650000Y-97036400D01*
X126650000Y-97036400D02*
X124668800Y-99017600D01*
X124668800Y-99017600D02*
X120706400Y-99017600D01*
%TD*%
%TA.AperFunction,Conductor*%
%TO.N,GND*%
G36*
X129512148Y-99443718D02*
G01*
X129526500Y-99478366D01*
X129526500Y-99505833D01*
X129512148Y-99540481D01*
X127501741Y-101550888D01*
X127501740Y-101550888D01*
X127462179Y-101619408D01*
X127462179Y-101619410D01*
X127441700Y-101695836D01*
X127441700Y-102883133D01*
X127427348Y-102917781D01*
X127392700Y-102932133D01*
X127368201Y-102925569D01*
X127347636Y-102913696D01*
X127239421Y-102884700D01*
X127239418Y-102884700D01*
X127127382Y-102884700D01*
X127127379Y-102884700D01*
X127019164Y-102913696D01*
X127019160Y-102913697D01*
X126922136Y-102969715D01*
X126922136Y-102969716D01*
X126842916Y-103048936D01*
X126842915Y-103048936D01*
X126786897Y-103145960D01*
X126786896Y-103145964D01*
X126757900Y-103254178D01*
X126757900Y-103366221D01*
X126786896Y-103474435D01*
X126786897Y-103474439D01*
X126842915Y-103571463D01*
X126868548Y-103597096D01*
X126882900Y-103631744D01*
X126882900Y-107395056D01*
X126868548Y-107429704D01*
X126833900Y-107444056D01*
X126799252Y-107429704D01*
X126733463Y-107363915D01*
X126636439Y-107307897D01*
X126636435Y-107307896D01*
X126528221Y-107278900D01*
X126528218Y-107278900D01*
X126416182Y-107278900D01*
X126416179Y-107278900D01*
X126307964Y-107307896D01*
X126307960Y-107307897D01*
X126210936Y-107363915D01*
X126210936Y-107363916D01*
X126131716Y-107443136D01*
X126131715Y-107443136D01*
X126075697Y-107540160D01*
X126075696Y-107540164D01*
X126046700Y-107648378D01*
X126046700Y-107760421D01*
X126075696Y-107868635D01*
X126075697Y-107868639D01*
X126131715Y-107965663D01*
X126157348Y-107991296D01*
X126171700Y-108025944D01*
X126171700Y-108978033D01*
X126157348Y-109012681D01*
X122354148Y-112815881D01*
X122319500Y-112830233D01*
X122284852Y-112815881D01*
X122270500Y-112781233D01*
X122270500Y-112750255D01*
X122270500Y-112750252D01*
X122258867Y-112691769D01*
X122232301Y-112652012D01*
X122214552Y-112625447D01*
X122174795Y-112598882D01*
X122148231Y-112581133D01*
X122089748Y-112569500D01*
X122089745Y-112569500D01*
X121515367Y-112569500D01*
X121480719Y-112555148D01*
X121466367Y-112520500D01*
X121480719Y-112485852D01*
X125087059Y-108879512D01*
X125087060Y-108879511D01*
X125126621Y-108810989D01*
X125147100Y-108734562D01*
X125147100Y-103759766D01*
X125161451Y-103725119D01*
X129442852Y-99443717D01*
X129477500Y-99429366D01*
X129512148Y-99443718D01*
G37*
%TD.AperFunction*%
%TA.AperFunction,Conductor*%
G36*
X129453081Y-98514252D02*
G01*
X129467433Y-98548900D01*
X129453081Y-98583548D01*
X124606141Y-103430488D01*
X124606140Y-103430488D01*
X124566579Y-103499008D01*
X124566579Y-103499010D01*
X124546100Y-103575436D01*
X124546100Y-108550232D01*
X124531748Y-108584880D01*
X122587148Y-110529480D01*
X122552500Y-110543832D01*
X122517852Y-110529480D01*
X122503500Y-110494832D01*
X122503500Y-110467779D01*
X122503499Y-110467778D01*
X122474503Y-110359564D01*
X122474502Y-110359560D01*
X122418484Y-110262536D01*
X122392852Y-110236904D01*
X122378500Y-110202256D01*
X122378500Y-105486967D01*
X122392852Y-105452319D01*
X129330919Y-98514252D01*
X129365567Y-98499900D01*
X129418433Y-98499900D01*
X129453081Y-98514252D01*
G37*
%TD.AperFunction*%
%TA.AperFunction,Conductor*%
G36*
X132620918Y-92157050D02*
G01*
X132822201Y-92172891D01*
X132829787Y-92174093D01*
X132988534Y-92212205D01*
X133024235Y-92220777D01*
X133031548Y-92223153D01*
X133216299Y-92299680D01*
X133223140Y-92303165D01*
X133393647Y-92407652D01*
X133399858Y-92412163D01*
X133455464Y-92459655D01*
X133551923Y-92542039D01*
X133557360Y-92547476D01*
X133687232Y-92699536D01*
X133691751Y-92705757D01*
X133796231Y-92876254D01*
X133799722Y-92883105D01*
X133876246Y-93067852D01*
X133878622Y-93075164D01*
X133925305Y-93269608D01*
X133926508Y-93277202D01*
X133942349Y-93478480D01*
X133942490Y-93481334D01*
X133942500Y-93481828D01*
X133942500Y-93520282D01*
X133943317Y-93522254D01*
X133943453Y-93528959D01*
X133943383Y-93529138D01*
X133943463Y-93529950D01*
X133943463Y-117560850D01*
X133942522Y-117570408D01*
X133942500Y-117570518D01*
X133942500Y-117608474D01*
X133942349Y-117612319D01*
X133926508Y-117813597D01*
X133925305Y-117821191D01*
X133878622Y-118015635D01*
X133876246Y-118022947D01*
X133799722Y-118207694D01*
X133796231Y-118214545D01*
X133691751Y-118385042D01*
X133687232Y-118391263D01*
X133557360Y-118543323D01*
X133551923Y-118548760D01*
X133399863Y-118678632D01*
X133393642Y-118683151D01*
X133223145Y-118787631D01*
X133216294Y-118791122D01*
X133031547Y-118867646D01*
X133024235Y-118870022D01*
X132829791Y-118916705D01*
X132822197Y-118917908D01*
X132654125Y-118931135D01*
X132620917Y-118933749D01*
X132617075Y-118933900D01*
X115602925Y-118933900D01*
X115599082Y-118933749D01*
X115561075Y-118930757D01*
X115397802Y-118917908D01*
X115390208Y-118916705D01*
X115195764Y-118870022D01*
X115188452Y-118867646D01*
X115003705Y-118791122D01*
X114996854Y-118787631D01*
X114826354Y-118683149D01*
X114820139Y-118678634D01*
X114668076Y-118548760D01*
X114662639Y-118543323D01*
X114573518Y-118438976D01*
X114532763Y-118391258D01*
X114528252Y-118385047D01*
X114423765Y-118214540D01*
X114420280Y-118207699D01*
X114343753Y-118022947D01*
X114341377Y-118015635D01*
X114294694Y-117821191D01*
X114293491Y-117813596D01*
X114280488Y-117648366D01*
X114280337Y-117644522D01*
X114280337Y-116060252D01*
X118329500Y-116060252D01*
X118329500Y-118609748D01*
X118341133Y-118668231D01*
X118358882Y-118694795D01*
X118385447Y-118734552D01*
X118412012Y-118752301D01*
X118451769Y-118778867D01*
X118510252Y-118790500D01*
X118510255Y-118790500D01*
X119549745Y-118790500D01*
X119549748Y-118790500D01*
X119608231Y-118778867D01*
X119674552Y-118734552D01*
X119718867Y-118668231D01*
X119730500Y-118609748D01*
X119730500Y-117684500D01*
X119744852Y-117649852D01*
X119779500Y-117635500D01*
X120033256Y-117635500D01*
X120067904Y-117649852D01*
X120114937Y-117696885D01*
X120150449Y-117717388D01*
X120211960Y-117752902D01*
X120211962Y-117752902D01*
X120211963Y-117752903D01*
X120297311Y-117775771D01*
X120320178Y-117781899D01*
X120320179Y-117781900D01*
X120320182Y-117781900D01*
X120432221Y-117781900D01*
X120432221Y-117781899D01*
X120540437Y-117752903D01*
X120637463Y-117696885D01*
X120716685Y-117617663D01*
X120772703Y-117520637D01*
X120801699Y-117412421D01*
X120801700Y-117412421D01*
X120801700Y-117300379D01*
X120801699Y-117300378D01*
X120772703Y-117192164D01*
X120772702Y-117192160D01*
X120716684Y-117095136D01*
X120637463Y-117015915D01*
X120540439Y-116959897D01*
X120540435Y-116959896D01*
X120432221Y-116930900D01*
X120432218Y-116930900D01*
X120320182Y-116930900D01*
X120320179Y-116930900D01*
X120211964Y-116959896D01*
X120211960Y-116959897D01*
X120114936Y-117015915D01*
X120114936Y-117015916D01*
X120110704Y-117020148D01*
X120076056Y-117034500D01*
X119779500Y-117034500D01*
X119744852Y-117020148D01*
X119730500Y-116985500D01*
X119730500Y-116060255D01*
X119730500Y-116060252D01*
X119718867Y-116001769D01*
X119682630Y-115947537D01*
X119674552Y-115935447D01*
X119633441Y-115907978D01*
X119608231Y-115891133D01*
X119549748Y-115879500D01*
X118510252Y-115879500D01*
X118451769Y-115891133D01*
X118385447Y-115935447D01*
X118347987Y-115991511D01*
X118341133Y-116001769D01*
X118329500Y-116060252D01*
X114280337Y-116060252D01*
X114280337Y-115327834D01*
X115490000Y-115327834D01*
X115496401Y-115387372D01*
X115496401Y-115387373D01*
X115546648Y-115522091D01*
X115632811Y-115637188D01*
X115747908Y-115723351D01*
X115882626Y-115773598D01*
X115942166Y-115780000D01*
X116240000Y-115780000D01*
X116740000Y-115780000D01*
X117037834Y-115780000D01*
X117097372Y-115773598D01*
X117097373Y-115773598D01*
X117232091Y-115723351D01*
X117347188Y-115637188D01*
X117433351Y-115522091D01*
X117483598Y-115387373D01*
X117483598Y-115387372D01*
X117490000Y-115327834D01*
X117490000Y-114275000D01*
X116740000Y-114275000D01*
X116740000Y-115780000D01*
X116240000Y-115780000D01*
X116240000Y-114275000D01*
X115490000Y-114275000D01*
X115490000Y-115327834D01*
X114280337Y-115327834D01*
X114280337Y-112722165D01*
X115490000Y-112722165D01*
X115490000Y-113775000D01*
X116240000Y-113775000D01*
X116740000Y-113775000D01*
X117490000Y-113775000D01*
X117490000Y-113202036D01*
X119999500Y-113202036D01*
X119999500Y-115338563D01*
X120008642Y-115372681D01*
X120019979Y-115414989D01*
X120019980Y-115414990D01*
X120051085Y-115468867D01*
X120059536Y-115483505D01*
X120059538Y-115483507D01*
X120059540Y-115483511D01*
X120567540Y-115991511D01*
X120623489Y-116047460D01*
X120692011Y-116087021D01*
X120727478Y-116096524D01*
X120768436Y-116107500D01*
X120768438Y-116107500D01*
X120847562Y-116107500D01*
X121731056Y-116107500D01*
X121765704Y-116121852D01*
X121791337Y-116147485D01*
X121826849Y-116167988D01*
X121888360Y-116203502D01*
X121888362Y-116203502D01*
X121888363Y-116203503D01*
X121973711Y-116226371D01*
X121996578Y-116232499D01*
X121996579Y-116232500D01*
X121996582Y-116232500D01*
X122108621Y-116232500D01*
X122108621Y-116232499D01*
X122216837Y-116203503D01*
X122313863Y-116147485D01*
X122393085Y-116068263D01*
X122449103Y-115971237D01*
X122478099Y-115863021D01*
X122478100Y-115863021D01*
X122478100Y-115750979D01*
X122478099Y-115750978D01*
X122449103Y-115642764D01*
X122449102Y-115642760D01*
X122393084Y-115545736D01*
X122313866Y-115466518D01*
X122313863Y-115466515D01*
X122313859Y-115466513D01*
X122313857Y-115466511D01*
X122267273Y-115439616D01*
X122244443Y-115409863D01*
X122249338Y-115372681D01*
X122251032Y-115369957D01*
X122258866Y-115358232D01*
X122258865Y-115358232D01*
X122258867Y-115358231D01*
X122270500Y-115299748D01*
X122270500Y-113769767D01*
X122284852Y-113735119D01*
X123660004Y-112359967D01*
X125073170Y-110946800D01*
X125107817Y-110932449D01*
X125142465Y-110946801D01*
X125156817Y-110981449D01*
X125153087Y-111000200D01*
X125105986Y-111113910D01*
X125105983Y-111113920D01*
X125089567Y-111196451D01*
X125073300Y-111278233D01*
X125073300Y-111445767D01*
X125079548Y-111477176D01*
X125105983Y-111610079D01*
X125105985Y-111610085D01*
X125170096Y-111764862D01*
X125263171Y-111904159D01*
X125381640Y-112022628D01*
X125520937Y-112115703D01*
X125675718Y-112179816D01*
X125840033Y-112212500D01*
X125840036Y-112212500D01*
X126007564Y-112212500D01*
X126007567Y-112212500D01*
X126171882Y-112179816D01*
X126326663Y-112115703D01*
X126465962Y-112022626D01*
X126584426Y-111904162D01*
X126677503Y-111764863D01*
X126741616Y-111610082D01*
X126774300Y-111445767D01*
X126774300Y-111278233D01*
X126741616Y-111113918D01*
X126677503Y-110959137D01*
X126614124Y-110864284D01*
X126584428Y-110819840D01*
X126465959Y-110701371D01*
X126326662Y-110608296D01*
X126171885Y-110544185D01*
X126171879Y-110544183D01*
X126097959Y-110529480D01*
X126007567Y-110511500D01*
X125840033Y-110511500D01*
X125760776Y-110527265D01*
X125675720Y-110544183D01*
X125675710Y-110544186D01*
X125562000Y-110591287D01*
X125524497Y-110591287D01*
X125497979Y-110564768D01*
X125497979Y-110527265D01*
X125508598Y-110511372D01*
X126712660Y-109307311D01*
X126752222Y-109238788D01*
X126772699Y-109162365D01*
X126772700Y-109162365D01*
X126772700Y-108025944D01*
X126787052Y-107991296D01*
X126799252Y-107979096D01*
X126833900Y-107964744D01*
X126868548Y-107979096D01*
X126882900Y-108013744D01*
X126882900Y-111979233D01*
X126868548Y-112013881D01*
X126409541Y-112472888D01*
X126409540Y-112472888D01*
X126368373Y-112544192D01*
X126366829Y-112543301D01*
X126344339Y-112565776D01*
X126325603Y-112569500D01*
X126130252Y-112569500D01*
X126071769Y-112581133D01*
X126005447Y-112625447D01*
X125980605Y-112662627D01*
X125961133Y-112691769D01*
X125949500Y-112750252D01*
X125949500Y-115299748D01*
X125961133Y-115358231D01*
X125974624Y-115378421D01*
X126005447Y-115424552D01*
X126032012Y-115442301D01*
X126071769Y-115468867D01*
X126130252Y-115480500D01*
X126130255Y-115480500D01*
X127169745Y-115480500D01*
X127169748Y-115480500D01*
X127228231Y-115468867D01*
X127294552Y-115424552D01*
X127338867Y-115358231D01*
X127344641Y-115329198D01*
X127365477Y-115298017D01*
X127402259Y-115290700D01*
X127433442Y-115311536D01*
X127441700Y-115338759D01*
X127441700Y-115746604D01*
X127427348Y-115781252D01*
X127392700Y-115795604D01*
X127376143Y-115792311D01*
X127376139Y-115792328D01*
X127375893Y-115792262D01*
X127373956Y-115791877D01*
X127373039Y-115791497D01*
X127264821Y-115762500D01*
X127264818Y-115762500D01*
X127152782Y-115762500D01*
X127152779Y-115762500D01*
X127044564Y-115791496D01*
X127044560Y-115791497D01*
X126947536Y-115847515D01*
X126947536Y-115847516D01*
X126921904Y-115873148D01*
X126887256Y-115887500D01*
X125217436Y-115887500D01*
X125141012Y-115907978D01*
X125141008Y-115907979D01*
X125108478Y-115926762D01*
X125099480Y-115931956D01*
X125072492Y-115947537D01*
X125072486Y-115947542D01*
X124894148Y-116125881D01*
X124859500Y-116140233D01*
X124824852Y-116125881D01*
X124810500Y-116091233D01*
X124810500Y-116060255D01*
X124810500Y-116060252D01*
X124798867Y-116001769D01*
X124762630Y-115947537D01*
X124754552Y-115935447D01*
X124713441Y-115907978D01*
X124688231Y-115891133D01*
X124629748Y-115879500D01*
X123590252Y-115879500D01*
X123531769Y-115891133D01*
X123465447Y-115935447D01*
X123427987Y-115991511D01*
X123421133Y-116001769D01*
X123409500Y-116060252D01*
X123409500Y-118609748D01*
X123421133Y-118668231D01*
X123438882Y-118694795D01*
X123465447Y-118734552D01*
X123492012Y-118752301D01*
X123531769Y-118778867D01*
X123590252Y-118790500D01*
X123590255Y-118790500D01*
X124629745Y-118790500D01*
X124629748Y-118790500D01*
X124688231Y-118778867D01*
X124754552Y-118734552D01*
X124798867Y-118668231D01*
X124810500Y-118609748D01*
X124810500Y-117079767D01*
X124824852Y-117045119D01*
X125367119Y-116502852D01*
X125401767Y-116488500D01*
X126887256Y-116488500D01*
X126921904Y-116502852D01*
X126947537Y-116528485D01*
X126983049Y-116548988D01*
X127044560Y-116584502D01*
X127044562Y-116584502D01*
X127044563Y-116584503D01*
X127129911Y-116607371D01*
X127152778Y-116613499D01*
X127152779Y-116613500D01*
X127152782Y-116613500D01*
X127264821Y-116613500D01*
X127264821Y-116613499D01*
X127373037Y-116584503D01*
X127470063Y-116528485D01*
X127549285Y-116449263D01*
X127605303Y-116352237D01*
X127620734Y-116294649D01*
X127643564Y-116264896D01*
X127680746Y-116260001D01*
X127702712Y-116272683D01*
X128475148Y-117045119D01*
X128489500Y-117079767D01*
X128489500Y-118609748D01*
X128501133Y-118668231D01*
X128518882Y-118694795D01*
X128545447Y-118734552D01*
X128572012Y-118752301D01*
X128611769Y-118778867D01*
X128670252Y-118790500D01*
X128670255Y-118790500D01*
X129709745Y-118790500D01*
X129709748Y-118790500D01*
X129768231Y-118778867D01*
X129834552Y-118734552D01*
X129878867Y-118668231D01*
X129890500Y-118609748D01*
X129890500Y-116060252D01*
X129878867Y-116001769D01*
X129842630Y-115947537D01*
X129834552Y-115935447D01*
X129793441Y-115907978D01*
X129768231Y-115891133D01*
X129709748Y-115879500D01*
X128670252Y-115879500D01*
X128611769Y-115891133D01*
X128545447Y-115935447D01*
X128507987Y-115991511D01*
X128501133Y-116001769D01*
X128489500Y-116060252D01*
X128489500Y-116060255D01*
X128489500Y-116091233D01*
X128475148Y-116125881D01*
X128440500Y-116140233D01*
X128405852Y-116125881D01*
X128057052Y-115777081D01*
X128042700Y-115742433D01*
X128042700Y-111841255D01*
X128057052Y-111806607D01*
X128091700Y-111792255D01*
X128121530Y-111802382D01*
X128130228Y-111809056D01*
X128130236Y-111809061D01*
X128130243Y-111809067D01*
X128244257Y-111874893D01*
X128293819Y-111895422D01*
X128420986Y-111929497D01*
X128474174Y-111936500D01*
X128474178Y-111936500D01*
X129040001Y-111936500D01*
X129044631Y-111935978D01*
X129085728Y-111931348D01*
X129168127Y-111891666D01*
X129168127Y-111891665D01*
X129172813Y-111889409D01*
X129210257Y-111887305D01*
X129224625Y-111895246D01*
X129250835Y-111916148D01*
X129250839Y-111916150D01*
X129307266Y-111929028D01*
X129339997Y-111936499D01*
X129339998Y-111936500D01*
X129340000Y-111936500D01*
X129490500Y-111936500D01*
X129525148Y-111950852D01*
X129539500Y-111985500D01*
X129539500Y-112174563D01*
X129559979Y-112250989D01*
X129559979Y-112250991D01*
X129593189Y-112308511D01*
X129599536Y-112319505D01*
X129599538Y-112319507D01*
X129599540Y-112319511D01*
X129599543Y-112319514D01*
X131015148Y-113735119D01*
X131029500Y-113769767D01*
X131029500Y-115299748D01*
X131041133Y-115358231D01*
X131054624Y-115378421D01*
X131085447Y-115424552D01*
X131112012Y-115442301D01*
X131151769Y-115468867D01*
X131210252Y-115480500D01*
X131210255Y-115480500D01*
X132249745Y-115480500D01*
X132249748Y-115480500D01*
X132308231Y-115468867D01*
X132374552Y-115424552D01*
X132418867Y-115358231D01*
X132430500Y-115299748D01*
X132430500Y-112750252D01*
X132418867Y-112691769D01*
X132392301Y-112652012D01*
X132374552Y-112625447D01*
X132334795Y-112598882D01*
X132308231Y-112581133D01*
X132249748Y-112569500D01*
X131210252Y-112569500D01*
X131151769Y-112581133D01*
X131085447Y-112625447D01*
X131060605Y-112662627D01*
X131041133Y-112691769D01*
X131029500Y-112750252D01*
X131029500Y-112750255D01*
X131029500Y-112781233D01*
X131015148Y-112815881D01*
X130980500Y-112830233D01*
X130945852Y-112815881D01*
X130154852Y-112024881D01*
X130140500Y-111990233D01*
X130140500Y-111900436D01*
X130154852Y-111865788D01*
X130165000Y-111858001D01*
X130194005Y-111841255D01*
X130249757Y-111809067D01*
X130292317Y-111776409D01*
X130385409Y-111683317D01*
X130418067Y-111640757D01*
X130483893Y-111526743D01*
X130504422Y-111477181D01*
X130538497Y-111350014D01*
X130545500Y-111296826D01*
X130545500Y-111278233D01*
X132073300Y-111278233D01*
X132073300Y-111445767D01*
X132079548Y-111477176D01*
X132105983Y-111610079D01*
X132105985Y-111610085D01*
X132170096Y-111764862D01*
X132263171Y-111904159D01*
X132381640Y-112022628D01*
X132520937Y-112115703D01*
X132675718Y-112179816D01*
X132840033Y-112212500D01*
X132840036Y-112212500D01*
X133007564Y-112212500D01*
X133007567Y-112212500D01*
X133171882Y-112179816D01*
X133326663Y-112115703D01*
X133465962Y-112022626D01*
X133584426Y-111904162D01*
X133677503Y-111764863D01*
X133741616Y-111610082D01*
X133774300Y-111445767D01*
X133774300Y-111278233D01*
X133741616Y-111113918D01*
X133677503Y-110959137D01*
X133614124Y-110864284D01*
X133584428Y-110819840D01*
X133465959Y-110701371D01*
X133326662Y-110608296D01*
X133171885Y-110544185D01*
X133171879Y-110544183D01*
X133097959Y-110529480D01*
X133007567Y-110511500D01*
X132840033Y-110511500D01*
X132760776Y-110527265D01*
X132675720Y-110544183D01*
X132675714Y-110544185D01*
X132520937Y-110608296D01*
X132381640Y-110701371D01*
X132263171Y-110819840D01*
X132170096Y-110959137D01*
X132105985Y-111113914D01*
X132105983Y-111113920D01*
X132089567Y-111196451D01*
X132073300Y-111278233D01*
X130545500Y-111278233D01*
X130545500Y-110665174D01*
X130538497Y-110611986D01*
X130504422Y-110484819D01*
X130483893Y-110435257D01*
X130418067Y-110321243D01*
X130385409Y-110278683D01*
X130292317Y-110185591D01*
X130292314Y-110185588D01*
X130249761Y-110152936D01*
X130249754Y-110152931D01*
X130135746Y-110087109D01*
X130135747Y-110087109D01*
X130135743Y-110087107D01*
X130086181Y-110066578D01*
X130086180Y-110066577D01*
X130086176Y-110066576D01*
X129979169Y-110037903D01*
X129959014Y-110032503D01*
X129905826Y-110025500D01*
X129340000Y-110025500D01*
X129339999Y-110025500D01*
X129294271Y-110030652D01*
X129294265Y-110030653D01*
X129207185Y-110072590D01*
X129169741Y-110074693D01*
X129155374Y-110066753D01*
X129129164Y-110045851D01*
X129129160Y-110045849D01*
X129071396Y-110032665D01*
X129040810Y-110010963D01*
X129033300Y-109984894D01*
X129033300Y-109778544D01*
X129047652Y-109743896D01*
X129073284Y-109718264D01*
X129073285Y-109718263D01*
X129129303Y-109621237D01*
X129158299Y-109513021D01*
X129158300Y-109513021D01*
X129158300Y-109400979D01*
X129158299Y-109400978D01*
X129129303Y-109292764D01*
X129129302Y-109292760D01*
X129073284Y-109195736D01*
X128994063Y-109116515D01*
X128897039Y-109060497D01*
X128897035Y-109060496D01*
X128788821Y-109031500D01*
X128788818Y-109031500D01*
X128676782Y-109031500D01*
X128676779Y-109031500D01*
X128568564Y-109060496D01*
X128568560Y-109060497D01*
X128471536Y-109116515D01*
X128471536Y-109116516D01*
X128392316Y-109195736D01*
X128392315Y-109195736D01*
X128336297Y-109292760D01*
X128336296Y-109292764D01*
X128307300Y-109400978D01*
X128307300Y-109513021D01*
X128336296Y-109621235D01*
X128336297Y-109621239D01*
X128392315Y-109718263D01*
X128417948Y-109743896D01*
X128432300Y-109778544D01*
X128432300Y-109991872D01*
X128417948Y-110026520D01*
X128395983Y-110039202D01*
X128293821Y-110066577D01*
X128284751Y-110070334D01*
X128244257Y-110087107D01*
X128244254Y-110087108D01*
X128244253Y-110087109D01*
X128130245Y-110152931D01*
X128130231Y-110152940D01*
X128121528Y-110159619D01*
X128085303Y-110169325D01*
X128052825Y-110150572D01*
X128042700Y-110120744D01*
X128042700Y-101880167D01*
X128057052Y-101845519D01*
X129937119Y-99965452D01*
X129971767Y-99951100D01*
X130008021Y-99951100D01*
X130008021Y-99951099D01*
X130116237Y-99922103D01*
X130213263Y-99866085D01*
X130292485Y-99786863D01*
X130348503Y-99689837D01*
X130376156Y-99586633D01*
X132073300Y-99586633D01*
X132073300Y-99754167D01*
X132079804Y-99786863D01*
X132105983Y-99918479D01*
X132105985Y-99918485D01*
X132170096Y-100073262D01*
X132263171Y-100212559D01*
X132381640Y-100331028D01*
X132520937Y-100424103D01*
X132675718Y-100488216D01*
X132840033Y-100520900D01*
X132840036Y-100520900D01*
X133007564Y-100520900D01*
X133007567Y-100520900D01*
X133171882Y-100488216D01*
X133326663Y-100424103D01*
X133465962Y-100331026D01*
X133584426Y-100212562D01*
X133677503Y-100073263D01*
X133741616Y-99918482D01*
X133774300Y-99754167D01*
X133774300Y-99586633D01*
X133741616Y-99422318D01*
X133677503Y-99267537D01*
X133633787Y-99202111D01*
X133584428Y-99128240D01*
X133465959Y-99009771D01*
X133326662Y-98916696D01*
X133171885Y-98852585D01*
X133171879Y-98852583D01*
X133105616Y-98839402D01*
X133007567Y-98819900D01*
X132840033Y-98819900D01*
X132758251Y-98836167D01*
X132675720Y-98852583D01*
X132675714Y-98852585D01*
X132520937Y-98916696D01*
X132381640Y-99009771D01*
X132263171Y-99128240D01*
X132170096Y-99267537D01*
X132105985Y-99422314D01*
X132105983Y-99422320D01*
X132094835Y-99478366D01*
X132073300Y-99586633D01*
X130376156Y-99586633D01*
X130377499Y-99581621D01*
X130377500Y-99581621D01*
X130377500Y-99469579D01*
X130377499Y-99469578D01*
X130364835Y-99422314D01*
X130348503Y-99361363D01*
X130348502Y-99361362D01*
X130348502Y-99361360D01*
X130307127Y-99289698D01*
X130292485Y-99264337D01*
X130213263Y-99185115D01*
X130187901Y-99170472D01*
X130116239Y-99129097D01*
X130116235Y-99129096D01*
X130008021Y-99100100D01*
X130008018Y-99100100D01*
X129904766Y-99100100D01*
X129870118Y-99085748D01*
X129855766Y-99051100D01*
X129870118Y-99016452D01*
X130824089Y-98062481D01*
X131970460Y-96916111D01*
X132010022Y-96847588D01*
X132030499Y-96771165D01*
X132030500Y-96771165D01*
X132030500Y-95238900D01*
X132044852Y-95204252D01*
X132079500Y-95189900D01*
X132249745Y-95189900D01*
X132249748Y-95189900D01*
X132308231Y-95178267D01*
X132374552Y-95133952D01*
X132418867Y-95067631D01*
X132430500Y-95009148D01*
X132430500Y-92459652D01*
X132418867Y-92401169D01*
X132392301Y-92361412D01*
X132374552Y-92334847D01*
X132327140Y-92303168D01*
X132308231Y-92290533D01*
X132249748Y-92278900D01*
X131210252Y-92278900D01*
X131151769Y-92290533D01*
X131085447Y-92334847D01*
X131041133Y-92401169D01*
X131029500Y-92459652D01*
X131029500Y-95009148D01*
X131041133Y-95067631D01*
X131058882Y-95094195D01*
X131085447Y-95133952D01*
X131112012Y-95151701D01*
X131151769Y-95178267D01*
X131210252Y-95189900D01*
X131380500Y-95189900D01*
X131415148Y-95204252D01*
X131429500Y-95238900D01*
X131429500Y-96586833D01*
X131415148Y-96621481D01*
X129974148Y-98062481D01*
X129939500Y-98076833D01*
X129904852Y-98062481D01*
X129890500Y-98027833D01*
X129890500Y-95769655D01*
X129890500Y-95769652D01*
X129878867Y-95711169D01*
X129852301Y-95671412D01*
X129834552Y-95644847D01*
X129794795Y-95618282D01*
X129768231Y-95600533D01*
X129709748Y-95588900D01*
X128670252Y-95588900D01*
X128611769Y-95600533D01*
X128545447Y-95644847D01*
X128501133Y-95711169D01*
X128489500Y-95769652D01*
X128489500Y-98319148D01*
X128501133Y-98377631D01*
X128525441Y-98414010D01*
X128532758Y-98450791D01*
X128519347Y-98475880D01*
X126262289Y-100732940D01*
X121837541Y-105157688D01*
X121837540Y-105157688D01*
X121797979Y-105226208D01*
X121797979Y-105226210D01*
X121777500Y-105302636D01*
X121777500Y-110202256D01*
X121763148Y-110236904D01*
X121737516Y-110262536D01*
X121737515Y-110262536D01*
X121681497Y-110359560D01*
X121681496Y-110359564D01*
X121652500Y-110467778D01*
X121652500Y-110579821D01*
X121681496Y-110688035D01*
X121681497Y-110688039D01*
X121737515Y-110785063D01*
X121816737Y-110864285D01*
X121852249Y-110884788D01*
X121913760Y-110920302D01*
X121913762Y-110920302D01*
X121913763Y-110920303D01*
X121959093Y-110932449D01*
X122021978Y-110949299D01*
X122021979Y-110949300D01*
X122049032Y-110949300D01*
X122083680Y-110963652D01*
X122098032Y-110998300D01*
X122083680Y-111032948D01*
X120115489Y-113001140D01*
X120059541Y-113057088D01*
X120059540Y-113057088D01*
X120019979Y-113125608D01*
X120019979Y-113125610D01*
X119999500Y-113202036D01*
X117490000Y-113202036D01*
X117490000Y-112722165D01*
X117483598Y-112662627D01*
X117483598Y-112662626D01*
X117433351Y-112527908D01*
X117347188Y-112412811D01*
X117232091Y-112326648D01*
X117097373Y-112276401D01*
X117037834Y-112270000D01*
X116740000Y-112270000D01*
X116740000Y-113775000D01*
X116240000Y-113775000D01*
X116240000Y-112270000D01*
X115942166Y-112270000D01*
X115882627Y-112276401D01*
X115882626Y-112276401D01*
X115747908Y-112326648D01*
X115632811Y-112412811D01*
X115546648Y-112527908D01*
X115496401Y-112662626D01*
X115496401Y-112662627D01*
X115490000Y-112722165D01*
X114280337Y-112722165D01*
X114280337Y-106845704D01*
X116831997Y-106845704D01*
X116831997Y-107003825D01*
X116872919Y-107156547D01*
X116872920Y-107156551D01*
X116951972Y-107293474D01*
X116951975Y-107293478D01*
X116951977Y-107293481D01*
X117063781Y-107405285D01*
X117063784Y-107405286D01*
X117063787Y-107405289D01*
X117200710Y-107484341D01*
X117200712Y-107484341D01*
X117200713Y-107484342D01*
X117321162Y-107516616D01*
X117353436Y-107525264D01*
X117353437Y-107525265D01*
X117353440Y-107525265D01*
X117511557Y-107525265D01*
X117511557Y-107525264D01*
X117664281Y-107484342D01*
X117801213Y-107405285D01*
X117913017Y-107293481D01*
X117992074Y-107156549D01*
X118032996Y-107003825D01*
X118032997Y-107003825D01*
X118032997Y-106845705D01*
X118032996Y-106845704D01*
X117992074Y-106692982D01*
X117992073Y-106692978D01*
X117913021Y-106556055D01*
X117913018Y-106556052D01*
X117913017Y-106556049D01*
X117801213Y-106444245D01*
X117801210Y-106444243D01*
X117801206Y-106444240D01*
X117664283Y-106365188D01*
X117664279Y-106365187D01*
X117511557Y-106324265D01*
X117511554Y-106324265D01*
X117353440Y-106324265D01*
X117353437Y-106324265D01*
X117200714Y-106365187D01*
X117200710Y-106365188D01*
X117063787Y-106444240D01*
X117063778Y-106444247D01*
X116951979Y-106556046D01*
X116951972Y-106556055D01*
X116872920Y-106692978D01*
X116872919Y-106692982D01*
X116831997Y-106845704D01*
X114280337Y-106845704D01*
X114280337Y-105184578D01*
X116039100Y-105184578D01*
X116039100Y-105296621D01*
X116068096Y-105404835D01*
X116068097Y-105404839D01*
X116115515Y-105486967D01*
X116124115Y-105501863D01*
X116203337Y-105581085D01*
X116238849Y-105601588D01*
X116300360Y-105637102D01*
X116300362Y-105637102D01*
X116300363Y-105637103D01*
X116385711Y-105659971D01*
X116408578Y-105666099D01*
X116408579Y-105666100D01*
X116408582Y-105666100D01*
X116520621Y-105666100D01*
X116520621Y-105666099D01*
X116628837Y-105637103D01*
X116725863Y-105581085D01*
X116805085Y-105501863D01*
X116861103Y-105404837D01*
X116890099Y-105296621D01*
X116890100Y-105296621D01*
X116890100Y-105184579D01*
X116890099Y-105184578D01*
X116861103Y-105076364D01*
X116861102Y-105076360D01*
X116810236Y-104988259D01*
X116805085Y-104979337D01*
X116779452Y-104953704D01*
X116765100Y-104919056D01*
X116765100Y-104163837D01*
X119369003Y-104163837D01*
X119369003Y-104311680D01*
X119397843Y-104456665D01*
X119397845Y-104456674D01*
X119454417Y-104593250D01*
X119454419Y-104593254D01*
X119536552Y-104716175D01*
X119641087Y-104820710D01*
X119764008Y-104902843D01*
X119803150Y-104919056D01*
X119900587Y-104959416D01*
X119900588Y-104959416D01*
X119900590Y-104959417D01*
X120045585Y-104988259D01*
X120193421Y-104988259D01*
X120338416Y-104959417D01*
X120474998Y-104902843D01*
X120597919Y-104820710D01*
X120702454Y-104716175D01*
X120784587Y-104593254D01*
X120841161Y-104456672D01*
X120870003Y-104311677D01*
X120870003Y-104163841D01*
X120841161Y-104018846D01*
X120784587Y-103882264D01*
X120702454Y-103759343D01*
X120597919Y-103654808D01*
X120474998Y-103572675D01*
X120474995Y-103572673D01*
X120474994Y-103572673D01*
X120338418Y-103516101D01*
X120338409Y-103516099D01*
X120193424Y-103487259D01*
X120193421Y-103487259D01*
X120045585Y-103487259D01*
X120045581Y-103487259D01*
X119900596Y-103516099D01*
X119900587Y-103516101D01*
X119764011Y-103572673D01*
X119641087Y-103654807D01*
X119536551Y-103759343D01*
X119454417Y-103882267D01*
X119397845Y-104018843D01*
X119397843Y-104018852D01*
X119369003Y-104163837D01*
X116765100Y-104163837D01*
X116765100Y-99586633D01*
X125073300Y-99586633D01*
X125073300Y-99754167D01*
X125079804Y-99786863D01*
X125105983Y-99918479D01*
X125105985Y-99918485D01*
X125170096Y-100073262D01*
X125263171Y-100212559D01*
X125381640Y-100331028D01*
X125520937Y-100424103D01*
X125675718Y-100488216D01*
X125840033Y-100520900D01*
X125840036Y-100520900D01*
X126007564Y-100520900D01*
X126007567Y-100520900D01*
X126171882Y-100488216D01*
X126326663Y-100424103D01*
X126465962Y-100331026D01*
X126584426Y-100212562D01*
X126677503Y-100073263D01*
X126741616Y-99918482D01*
X126774300Y-99754167D01*
X126774300Y-99586633D01*
X126741616Y-99422318D01*
X126677503Y-99267537D01*
X126633787Y-99202111D01*
X126584428Y-99128240D01*
X126465959Y-99009771D01*
X126326662Y-98916696D01*
X126171885Y-98852585D01*
X126171879Y-98852583D01*
X126105616Y-98839402D01*
X126007567Y-98819900D01*
X125840033Y-98819900D01*
X125758251Y-98836167D01*
X125675720Y-98852583D01*
X125675714Y-98852585D01*
X125520937Y-98916696D01*
X125381640Y-99009771D01*
X125263171Y-99128240D01*
X125170096Y-99267537D01*
X125105985Y-99422314D01*
X125105983Y-99422320D01*
X125094835Y-99478366D01*
X125073300Y-99586633D01*
X116765100Y-99586633D01*
X116765100Y-97097689D01*
X116779451Y-97063042D01*
X118785230Y-95057262D01*
X118819877Y-95042911D01*
X118854525Y-95057263D01*
X118862312Y-95067411D01*
X118900730Y-95133952D01*
X118918115Y-95164063D01*
X118997337Y-95243285D01*
X119032177Y-95263400D01*
X119094360Y-95299302D01*
X119094362Y-95299302D01*
X119094363Y-95299303D01*
X119179711Y-95322171D01*
X119202578Y-95328299D01*
X119202579Y-95328300D01*
X119202582Y-95328300D01*
X119238833Y-95328300D01*
X119273481Y-95342652D01*
X119436081Y-95505252D01*
X119450433Y-95539900D01*
X119436081Y-95574548D01*
X119401433Y-95588900D01*
X118510252Y-95588900D01*
X118451769Y-95600533D01*
X118385447Y-95644847D01*
X118341133Y-95711169D01*
X118329500Y-95769652D01*
X118329500Y-98319148D01*
X118341133Y-98377631D01*
X118345244Y-98383783D01*
X118385447Y-98443952D01*
X118395683Y-98450791D01*
X118451769Y-98488267D01*
X118510252Y-98499900D01*
X118510255Y-98499900D01*
X119549745Y-98499900D01*
X119549748Y-98499900D01*
X119608231Y-98488267D01*
X119674552Y-98443952D01*
X119718867Y-98377631D01*
X119730500Y-98319148D01*
X119730500Y-95917967D01*
X119744852Y-95883319D01*
X119779500Y-95868967D01*
X119814148Y-95883319D01*
X121215689Y-97284860D01*
X121284212Y-97324422D01*
X121344486Y-97340572D01*
X121360634Y-97344899D01*
X121360635Y-97344900D01*
X121360638Y-97344900D01*
X123360500Y-97344900D01*
X123395148Y-97359252D01*
X123409500Y-97393900D01*
X123409500Y-98319148D01*
X123421133Y-98377631D01*
X123425244Y-98383783D01*
X123465447Y-98443952D01*
X123475683Y-98450791D01*
X123531769Y-98488267D01*
X123590252Y-98499900D01*
X123590255Y-98499900D01*
X124629744Y-98499900D01*
X124629748Y-98499900D01*
X124635822Y-98498691D01*
X124672602Y-98506005D01*
X124693441Y-98537185D01*
X124686127Y-98573968D01*
X124680031Y-98581397D01*
X124558681Y-98702748D01*
X124524033Y-98717100D01*
X121027944Y-98717100D01*
X120993296Y-98702748D01*
X120967663Y-98677115D01*
X120870639Y-98621097D01*
X120870635Y-98621096D01*
X120762421Y-98592100D01*
X120762418Y-98592100D01*
X120650382Y-98592100D01*
X120650379Y-98592100D01*
X120542164Y-98621096D01*
X120542160Y-98621097D01*
X120445136Y-98677115D01*
X120445136Y-98677116D01*
X120365916Y-98756336D01*
X120365915Y-98756336D01*
X120309897Y-98853360D01*
X120309896Y-98853364D01*
X120280900Y-98961578D01*
X120280900Y-99073621D01*
X120309896Y-99181835D01*
X120309897Y-99181839D01*
X120353904Y-99258059D01*
X120365915Y-99278863D01*
X120445137Y-99358085D01*
X120480649Y-99378588D01*
X120542160Y-99414102D01*
X120542162Y-99414102D01*
X120542163Y-99414103D01*
X120599126Y-99429366D01*
X120650378Y-99443099D01*
X120650379Y-99443100D01*
X120650382Y-99443100D01*
X120762421Y-99443100D01*
X120762421Y-99443099D01*
X120870637Y-99414103D01*
X120967663Y-99358085D01*
X120993296Y-99332452D01*
X121027944Y-99318100D01*
X124708364Y-99318100D01*
X124735030Y-99310954D01*
X124784789Y-99297621D01*
X124853311Y-99258060D01*
X124909260Y-99202111D01*
X126890460Y-97220911D01*
X126925402Y-97160389D01*
X126930021Y-97152389D01*
X126944678Y-97097689D01*
X126950500Y-97075963D01*
X126950500Y-95238900D01*
X126964852Y-95204252D01*
X126999500Y-95189900D01*
X127169745Y-95189900D01*
X127169748Y-95189900D01*
X127228231Y-95178267D01*
X127294552Y-95133952D01*
X127338867Y-95067631D01*
X127350500Y-95009148D01*
X127350500Y-92459652D01*
X127338867Y-92401169D01*
X127312301Y-92361412D01*
X127294552Y-92334847D01*
X127247140Y-92303168D01*
X127228231Y-92290533D01*
X127169748Y-92278900D01*
X126130252Y-92278900D01*
X126071769Y-92290533D01*
X126005447Y-92334847D01*
X125961133Y-92401169D01*
X125949500Y-92459652D01*
X125949500Y-95009148D01*
X125961133Y-95067631D01*
X125978882Y-95094195D01*
X126005447Y-95133952D01*
X126032012Y-95151701D01*
X126071769Y-95178267D01*
X126130252Y-95189900D01*
X126300500Y-95189900D01*
X126335148Y-95204252D01*
X126349500Y-95238900D01*
X126349500Y-96891633D01*
X126335148Y-96926281D01*
X124891997Y-98369431D01*
X124857349Y-98383783D01*
X124822701Y-98369431D01*
X124808349Y-98334783D01*
X124809289Y-98325232D01*
X124810500Y-98319148D01*
X124810500Y-95769652D01*
X124798867Y-95711169D01*
X124772301Y-95671412D01*
X124754552Y-95644847D01*
X124714795Y-95618282D01*
X124688231Y-95600533D01*
X124629748Y-95588900D01*
X123590252Y-95588900D01*
X123531769Y-95600533D01*
X123465447Y-95644847D01*
X123421133Y-95711169D01*
X123409500Y-95769652D01*
X123409500Y-95769655D01*
X123409500Y-96694900D01*
X123395148Y-96729548D01*
X123360500Y-96743900D01*
X121544967Y-96743900D01*
X121510319Y-96729548D01*
X119698452Y-94917681D01*
X119684100Y-94883033D01*
X119684100Y-94846779D01*
X119684099Y-94846778D01*
X119655103Y-94738564D01*
X119655102Y-94738560D01*
X119599084Y-94641536D01*
X119519863Y-94562315D01*
X119423211Y-94506512D01*
X119400381Y-94476759D01*
X119405276Y-94439577D01*
X119413059Y-94429433D01*
X119793242Y-94049252D01*
X119827890Y-94034900D01*
X120820500Y-94034900D01*
X120855148Y-94049252D01*
X120869500Y-94083900D01*
X120869500Y-95009148D01*
X120881133Y-95067631D01*
X120898882Y-95094195D01*
X120925447Y-95133952D01*
X120952012Y-95151701D01*
X120991769Y-95178267D01*
X121050252Y-95189900D01*
X121205400Y-95189900D01*
X121240048Y-95204252D01*
X121254400Y-95238900D01*
X121247835Y-95263400D01*
X121198897Y-95348160D01*
X121198896Y-95348164D01*
X121169900Y-95456378D01*
X121169900Y-95568421D01*
X121198896Y-95676635D01*
X121198897Y-95676639D01*
X121252599Y-95769652D01*
X121254915Y-95773663D01*
X121334137Y-95852885D01*
X121361992Y-95868967D01*
X121431160Y-95908902D01*
X121431162Y-95908902D01*
X121431163Y-95908903D01*
X121464991Y-95917967D01*
X121539378Y-95937899D01*
X121539379Y-95937900D01*
X121539382Y-95937900D01*
X121651421Y-95937900D01*
X121651421Y-95937899D01*
X121759637Y-95908903D01*
X121856663Y-95852885D01*
X121935885Y-95773663D01*
X121991903Y-95676637D01*
X122020899Y-95568421D01*
X122020900Y-95568421D01*
X122020900Y-95456379D01*
X122020899Y-95456378D01*
X121991903Y-95348164D01*
X121991902Y-95348160D01*
X121942965Y-95263400D01*
X121938070Y-95226218D01*
X121960900Y-95196465D01*
X121985400Y-95189900D01*
X122089745Y-95189900D01*
X122089748Y-95189900D01*
X122148231Y-95178267D01*
X122214552Y-95133952D01*
X122258867Y-95067631D01*
X122270500Y-95009148D01*
X122270500Y-92459652D01*
X122258867Y-92401169D01*
X122232301Y-92361412D01*
X122214552Y-92334847D01*
X122167140Y-92303168D01*
X122148231Y-92290533D01*
X122089748Y-92278900D01*
X121050252Y-92278900D01*
X120991769Y-92290533D01*
X120925447Y-92334847D01*
X120881133Y-92401169D01*
X120869500Y-92459652D01*
X120869500Y-92459655D01*
X120869500Y-93384900D01*
X120855148Y-93419548D01*
X120820500Y-93433900D01*
X119643559Y-93433900D01*
X119567133Y-93454379D01*
X119567131Y-93454379D01*
X119522064Y-93480400D01*
X119498611Y-93493940D01*
X119498611Y-93493941D01*
X116224141Y-96768411D01*
X116224140Y-96768411D01*
X116184579Y-96836931D01*
X116184579Y-96836933D01*
X116164100Y-96913359D01*
X116164100Y-104919056D01*
X116149748Y-104953704D01*
X116124116Y-104979336D01*
X116124115Y-104979336D01*
X116068097Y-105076360D01*
X116068096Y-105076364D01*
X116039100Y-105184578D01*
X114280337Y-105184578D01*
X114280337Y-93446276D01*
X114280488Y-93442432D01*
X114285016Y-93384900D01*
X114293491Y-93277196D01*
X114294692Y-93269614D01*
X114341377Y-93075161D01*
X114343753Y-93067852D01*
X114420282Y-92883094D01*
X114423762Y-92876264D01*
X114528256Y-92705745D01*
X114532758Y-92699547D01*
X114662644Y-92547470D01*
X114668070Y-92542044D01*
X114764539Y-92459652D01*
X115789500Y-92459652D01*
X115789500Y-95009148D01*
X115801133Y-95067631D01*
X115818882Y-95094195D01*
X115845447Y-95133952D01*
X115872012Y-95151701D01*
X115911769Y-95178267D01*
X115970252Y-95189900D01*
X115970255Y-95189900D01*
X117009745Y-95189900D01*
X117009748Y-95189900D01*
X117068231Y-95178267D01*
X117134552Y-95133952D01*
X117178867Y-95067631D01*
X117190500Y-95009148D01*
X117190500Y-92459652D01*
X117178867Y-92401169D01*
X117152301Y-92361412D01*
X117134552Y-92334847D01*
X117087140Y-92303168D01*
X117068231Y-92290533D01*
X117009748Y-92278900D01*
X115970252Y-92278900D01*
X115911769Y-92290533D01*
X115845447Y-92334847D01*
X115801133Y-92401169D01*
X115789500Y-92459652D01*
X114764539Y-92459652D01*
X114820141Y-92412163D01*
X114826345Y-92407656D01*
X114996864Y-92303162D01*
X115003694Y-92299682D01*
X115188454Y-92223152D01*
X115195761Y-92220777D01*
X115390214Y-92174092D01*
X115397796Y-92172891D01*
X115599081Y-92157050D01*
X115602925Y-92156900D01*
X115640882Y-92156900D01*
X132579118Y-92156900D01*
X132617075Y-92156900D01*
X132620918Y-92157050D01*
G37*
%TD.AperFunction*%
%TD*%
M02*
