M48
; DRILL file {KiCad 9.0.7} date 2026-01-29T08:14:23+0100
; FORMAT={-:-/ absolute / inch / decimal}
; #@! TF.CreationDate,2026-01-29T08:14:23+01:00
; #@! TF.GenerationSoftware,Kicad,Pcbnew,9.0.7
; #@! TF.FileFunction,Plated,1,2,PTH
FMAT,2
INCH
; #@! TA.AperFunction,Plated,PTH,ViaDrill
T1C0.0118
; #@! TA.AperFunction,Plated,PTH,ComponentDrill
T2C0.0315
; #@! TA.AperFunction,Plated,PTH,ComponentDrill
T3C0.0433
; #@! TA.AperFunction,Plated,PTH,ComponentDrill
T4C0.0512
%
G90
G05
T1
X4.6322Y-4.2743
X4.6616Y-4.074
X4.6952Y-3.7363
X4.7182Y-3.9873
X4.724Y-4.0386
X4.7332Y-4.3523
X4.7392Y-4.6203
X4.7522Y-3.8983
X4.7642Y-4.1433
X4.7872Y-3.7603
X4.8052Y-4.5593
X4.8062Y-4.3513
X4.8752Y-4.1533
X4.9622Y-4.1543
X4.9792Y-4.2403
X5.0072Y-4.0673
X5.0082Y-4.5743
X5.0682Y-4.3093
X5.1162Y-3.9183
T2
X4.6233Y-4.2096
T3
X4.7291Y-4.1038
T4
X4.9576Y-3.924
X4.9576Y-4.3843
X5.2332Y-3.924
X5.2332Y-4.3843
M30
