M48
; DRILL file {KiCad 9.0.5} date 2025-11-18T14:05:17+0100
; FORMAT={-:-/ absolute / inch / decimal}
; #@! TF.CreationDate,2025-11-18T14:05:17+01:00
; #@! TF.GenerationSoftware,Kicad,Pcbnew,9.0.5
; #@! TF.FileFunction,Plated,1,6,PTH
FMAT,2
INCH
; #@! TA.AperFunction,Plated,PTH,ViaDrill
T1C0.0059
; #@! TA.AperFunction,Plated,PTH,ComponentDrill
T2C0.0138
; #@! TA.AperFunction,Plated,PTH,ComponentDrill
T3C0.0236
; #@! TA.AperFunction,Plated,PTH,ComponentDrill
T4C0.0394
%
G90
G05
T1
X0.0846Y0.2138
X0.1713Y0.2177
X0.2106Y0.1783
X0.2317Y0.576
X0.2317Y0.5445
X0.2323Y0.3228
X0.2335Y0.3555
X0.2591Y0.2157
X0.3012Y0.3169
X0.3041Y0.2835
X0.326Y0.1724
X0.3265Y0.2472
X0.3362Y0.5248
X0.3571Y0.4671
X0.3571Y0.4171
X0.3682Y0.381
X0.3791Y0.3547
X0.3819Y0.6732
X0.3819Y0.6496
X0.3819Y0.626
X0.3819Y0.5827
X0.3819Y0.563
X0.3821Y0.6011
X0.3937Y0.5197
X0.4183Y0.1702
X0.4193Y0.25
X0.4579Y0.4717
X0.4587Y0.4242
X0.4608Y0.6011
X0.4657Y0.6772
X0.4657Y0.6535
X0.4657Y0.6299
X0.4736Y0.2283
X0.4736Y0.1894
X0.5287Y0.1665
X0.5474Y0.4343
X0.5484Y0.2413
X0.5661Y0.1665
X0.5827Y0.315
X0.6213Y0.4303
X0.626Y0.5207
X0.633Y0.7153
X0.6417Y0.3031
X0.6453Y0.5604
X0.6547Y0.4138
X0.6585Y0.6504
X0.6587Y0.7266
X0.6821Y0.45
X0.6969Y0.0669
X0.6998Y0.5591
X0.7014Y0.3301
X0.7024Y0.3681
X0.7078Y0.7545
X0.7177Y0.2177
X0.7193Y0.5519
X0.7234Y0.5256
X0.7362Y0.3681
X0.7393Y0.5519
X0.7432Y0.6539
X0.7432Y0.6071
X0.7512Y0.4874
X0.7551Y0.2709
X0.7561Y0.1656
X0.7793Y0.7048
X0.7904Y0.6539
X0.7904Y0.6071
X0.7992Y0.0669
X0.8002Y0.8573
X0.8021Y0.3321
X0.8161Y0.3673
X0.8261Y0.2571
X0.8264Y0.3318
X0.8267Y0.7545
X0.8306Y0.3121
X0.8306Y0.2371
X0.8449Y0.3807
X0.8457Y0.361
X0.8465Y0.5787
X0.8484Y0.7894
X0.8641Y0.3321
X0.8641Y0.2921
X0.8641Y0.2571
X0.8641Y0.2181
X0.8701Y0.1821
X0.8706Y0.1621
X0.8731Y0.6582
X0.8731Y0.6386
X0.8731Y0.6189
X0.874Y0.6024
X0.874Y0.3886
X0.8764Y0.4839
X0.8839Y0.689
X0.8957Y0.8563
X0.8976Y0.0669
X0.9035Y0.463
X0.9035Y0.3886
X0.9041Y0.1821
X0.9101Y0.3321
X0.9101Y0.2571
X0.9106Y0.3121
X0.9106Y0.2371
X0.9281Y0.1481
X0.9402Y0.5406
X0.9402Y0.5035
X0.9402Y0.3862
X0.9441Y0.3321
X0.9441Y0.2921
X0.9441Y0.2561
X0.9441Y0.2171
X0.9611Y0.1481
X0.9862Y0.3543
X0.9894Y0.7407
X0.9928Y0.6269
X0.9928Y0.6072
X0.9928Y0.5285
X0.9971Y0.1971
X1.0Y0.8346
X1.0Y0.063
X1.0021Y0.1521
X1.0221Y0.2521
X1.0221Y0.2321
X1.0221Y0.2021
X1.0236Y0.3583
X1.0307Y0.7417
X1.0381Y0.6525
X1.0492Y0.314
X1.0524Y0.598
X1.0524Y0.5512
X1.0524Y0.493
X1.0524Y0.4382
X1.0691Y0.1611
X1.0699Y0.3386
X1.084Y0.1611
X1.0972Y0.3847
X1.0984Y0.0669
X1.0996Y0.598
X1.0996Y0.5512
X1.0996Y0.493
X1.0996Y0.4382
X1.1024Y0.8346
X1.1024Y0.3386
X1.1381Y0.2021
X1.1381Y0.1701
X1.1441Y0.341
X1.1469Y0.598
X1.1469Y0.5512
X1.1469Y0.493
X1.1469Y0.4382
X1.1547Y0.7382
X1.1759Y0.3847
X1.1941Y0.598
X1.1941Y0.5512
X1.1941Y0.493
X1.1941Y0.4382
X1.1956Y0.6525
X1.2008Y0.8346
X1.2008Y0.0669
X1.2153Y0.6525
X1.2197Y0.3386
X1.2343Y0.7382
X1.235Y0.6525
X1.2361Y0.2841
X1.261Y0.5678
X1.261Y0.43
X1.2728Y0.702
X1.2776Y0.1988
X1.2953Y0.0709
X1.298Y0.7335
X1.2992Y0.8346
X1.3096Y0.197
X1.3122Y0.378
X1.3128Y0.7026
X1.3221Y0.2311
X1.326Y0.513
X1.3339Y0.361
X1.3378Y0.3846
X1.3431Y0.2502
X1.3496Y0.4004
X1.3536Y0.6622
X1.3661Y0.3346
X1.3851Y0.3001
X1.3949Y0.6016
X1.3976Y0.8346
X1.3996Y0.0531
X1.4146Y0.2531
X1.4173Y0.3425
X1.4256Y0.4539
X1.437Y0.7559
X1.4402Y0.7173
X1.4469Y0.5866
X1.4539Y0.1508
X1.4547Y0.3476
X1.4646Y0.4882
X1.4921Y0.7559
X1.4961Y0.8346
X1.4961Y0.0669
X1.5013Y0.4014
X1.5013Y0.362
X1.515Y0.5381
X1.5177Y0.4764
X1.5209Y0.6543
X1.5268Y0.7409
X1.5285Y0.2274
X1.5337Y0.387
X1.5472Y0.3622
X1.5479Y0.4283
X1.5492Y0.5098
X1.5563Y0.3909
X1.5662Y0.2114
X1.578Y0.1917
X1.5873Y0.4283
X1.5898Y0.6169
X1.5915Y0.7455
X1.5945Y0.8346
X1.5984Y0.0669
X1.6024Y0.3169
X1.607Y0.4283
X1.6252Y0.5893
X1.628Y0.5669
X1.6315Y0.1673
X1.6463Y0.437
X1.6496Y0.5472
X1.6506Y0.5728
X1.6508Y0.5955
X1.6535Y0.311
X1.6555Y0.6122
X1.6571Y0.3539
X1.6713Y0.6122
X1.6732Y0.5315
X1.6823Y0.2831
X1.6843Y0.5145
X1.685Y0.4894
X1.689Y0.0856
X1.6919Y0.0256
X1.7008Y0.8346
X1.7028Y0.4256
X1.7067Y0.2421
X1.7244Y0.261
X1.7394Y0.5815
X1.7398Y0.6539
X1.7398Y0.6157
X1.7433Y0.7453
X1.7598Y0.2756
X1.761Y0.4146
X1.7756Y0.3071
X1.778Y0.4343
X1.7835Y0.5827
X1.7835Y0.5642
X1.7835Y0.1185
X1.7876Y0.7442
X1.7913Y0.2776
X1.7933Y0.5945
X1.8091Y0.3996
X1.8094Y0.6539
X1.811Y0.6153
X1.811Y0.4374
X1.8567Y0.6153
X1.8579Y0.2043
X1.8583Y0.4055
X1.8626Y0.2409
X1.8673Y0.4224
X1.8693Y0.5819
X1.8752Y0.5642
X1.8783Y0.4091
X1.8799Y0.4843
X1.889Y0.4476
X1.8933Y0.2398
X1.8966Y0.4852
X1.9122Y0.4941
X1.9146Y0.4067
X1.9173Y0.252
X1.9203Y0.3209
X1.9432Y0.6306
X1.9432Y0.5519
X1.9432Y0.5361
X1.9432Y0.4889
X1.9432Y0.4731
X1.9432Y0.4574
X1.9432Y0.4416
X1.9432Y0.4101
X1.9433Y0.5043
X1.9433Y0.426
X1.9478Y0.378
X1.9521Y0.2511
X1.9589Y0.4102
X1.9589Y0.6306
X1.9608Y0.6774
X1.962Y0.3829
X1.9747Y0.6306
X1.9747Y0.4101
X1.9791Y0.6807
X1.9889Y0.6003
X1.9889Y0.5534
X1.9889Y0.4953
X1.9889Y0.4404
X1.99Y0.6306
X1.9902Y0.3819
X1.9904Y0.4101
X1.9961Y0.7411
X2.0058Y0.6306
X2.0063Y0.4102
X2.0125Y0.3245
X2.0159Y0.6711
X2.0236Y0.2858
X2.0323Y0.739
X2.0361Y0.6003
X2.0361Y0.5534
X2.0361Y0.4953
X2.0361Y0.4404
X2.0366Y0.3398
X2.0377Y0.6306
X2.0378Y0.4102
X2.0453Y0.7244
X2.0534Y0.6306
X2.0535Y0.4102
X2.0602Y0.6862
X2.0646Y0.286
X2.0692Y0.6306
X2.0693Y0.4102
X2.0709Y0.3307
X2.0834Y0.6003
X2.0834Y0.5534
X2.0834Y0.4953
X2.0834Y0.4404
X2.0846Y0.4102
X2.0886Y0.3681
X2.1007Y0.6306
X2.1007Y0.4101
X2.1121Y0.306
X2.1122Y0.3209
X2.1131Y0.2171
X2.122Y0.7378
X2.127Y0.3212
X2.1271Y0.2921
X2.1306Y0.6003
X2.1306Y0.5534
X2.1306Y0.4953
X2.1306Y0.4404
X2.1323Y0.4102
X2.1368Y0.3583
X2.1479Y0.6306
X2.1479Y0.4101
X2.1652Y0.7177
X2.1671Y0.2801
X2.1732Y0.3701
X2.1794Y0.607
X2.1794Y0.4967
X2.1794Y0.481
X2.1794Y0.4652
X2.1969Y0.8346
X2.202Y0.6075
X2.2048Y0.718
X2.2111Y0.1893
X2.2221Y0.6071
X2.2221Y0.5141
X2.2221Y0.4941
X2.2421Y0.6071
X2.2421Y0.4941
X2.248Y0.3861
X2.2481Y0.4611
X2.2489Y0.3503
X2.2621Y0.6071
X2.2621Y0.4941
X2.267Y0.6535
X2.2772Y0.1893
X2.2821Y0.6071
X2.2821Y0.5141
X2.2821Y0.4941
X2.2859Y0.4611
X2.2863Y0.3869
X2.2867Y0.3503
X2.2882Y0.4241
X2.2953Y0.8307
X2.3021Y0.6071
X2.3021Y0.5141
X2.3021Y0.4941
X2.3101Y0.1891
X2.3221Y0.6071
X2.3221Y0.5141
X2.3221Y0.4941
X2.3339Y0.7283
X2.3421Y0.6071
X2.3421Y0.4941
X2.3621Y0.6071
X2.3621Y0.4941
X2.3821Y0.6071
X2.3821Y0.4941
X2.3976Y0.8346
X2.4021Y0.6071
X2.4021Y0.4941
X2.4221Y0.6071
X2.4221Y0.5141
X2.4221Y0.4941
X2.4421Y0.6071
X2.4421Y0.5141
X2.4421Y0.4941
X2.4621Y0.6071
X2.4621Y0.5141
X2.4621Y0.4941
X2.4821Y0.6071
X2.4821Y0.5141
X2.4821Y0.4941
X2.4961Y0.8346
X2.5021Y0.6071
X2.5021Y0.4941
X2.5221Y0.6071
X2.5221Y0.4941
X2.5321Y0.5141
X2.5421Y0.7871
X2.5421Y0.7671
X2.5421Y0.7471
X2.5421Y0.7271
X2.5421Y0.7071
X2.5421Y0.6871
X2.5421Y0.6671
X2.5421Y0.6471
X2.5421Y0.6271
X2.5421Y0.6071
X2.5421Y0.4941
X2.5421Y0.4741
X2.5421Y0.4541
X2.5421Y0.4341
X2.5421Y0.4141
X2.5421Y0.3941
X2.5421Y0.3741
X2.5421Y0.3541
X2.5421Y0.3341
X2.5421Y0.3141
X2.5421Y0.2941
X2.5421Y0.2741
X2.5421Y0.2541
X2.5421Y0.2341
X2.5421Y0.2141
X2.5421Y0.1941
X2.5421Y0.1741
X2.5421Y0.1541
X2.5421Y0.1341
X2.5421Y0.1141
X2.5621Y0.7871
X2.5621Y0.1141
X2.5821Y0.7871
X2.5821Y0.1141
X2.5945Y0.8346
X2.6021Y0.7871
X2.6021Y0.1141
X2.6221Y0.7871
X2.6221Y0.1141
X2.6421Y0.7871
X2.6421Y0.1141
X2.6621Y0.7871
X2.6621Y0.1141
X2.6821Y0.7871
X2.6821Y0.1141
X2.7021Y0.7871
X2.7021Y0.1141
X2.7221Y0.8271
X2.7221Y0.8071
X2.7221Y0.7871
X2.7221Y0.1141
X2.7221Y0.0941
X2.7221Y0.0741
T2
X1.1702Y0.2513
X2.2441Y0.2385
T4
X0.248Y0.0512
X0.348Y0.0512
X0.448Y0.0512
X0.548Y0.0512
X0.648Y0.8512
X0.648Y0.0512
X0.748Y0.8512
X0.748Y0.0512
X0.848Y0.8512
X0.848Y0.0512
X0.948Y0.8512
X0.948Y0.0512
X1.048Y0.8512
X1.048Y0.0512
X1.148Y0.8512
X1.148Y0.0512
X1.248Y0.8512
X1.248Y0.0512
X1.348Y0.8512
X1.348Y0.0512
X1.448Y0.8512
X1.448Y0.0512
X1.548Y0.8512
X1.548Y0.0512
X1.648Y0.8512
X1.648Y0.0512
X1.748Y0.8512
X1.748Y0.0512
X2.0481Y0.8512
X2.0481Y0.0527
X2.1481Y0.8512
X2.1481Y0.0527
X2.2481Y0.8512
X2.2481Y0.0527
X2.3481Y0.8512
X2.3481Y0.0527
X2.4481Y0.8512
X2.4481Y0.0527
X2.5481Y0.8512
X2.5481Y0.0527
X2.6481Y0.8512
X2.6481Y0.0527
T3
G00X0.0602Y0.6201
M15
G01X0.0287Y0.6201
M16
G05
G00X0.0602Y0.2799
M15
G01X0.0287Y0.2799
M16
G05
G00X0.2307Y0.6201
M15
G01X0.1874Y0.6201
M16
G05
G00X0.2307Y0.2799
M15
G01X0.1874Y0.2799
M16
G05
M30
