%TF.GenerationSoftware,KiCad,Pcbnew,9.0.5*%
%TF.CreationDate,2025-12-23T10:30:06+01:00*%
%TF.ProjectId,AudioPlayground,41756469-6f50-46c6-9179-67726f756e64,rev?*%
%TF.SameCoordinates,PX5a9dfc5PY89ae535*%
%TF.FileFunction,Legend,Bot*%
%TF.FilePolarity,Positive*%
%FSLAX46Y46*%
G04 Gerber Fmt 4.6, Leading zero omitted, Abs format (unit mm)*
G04 Created by KiCad (PCBNEW 9.0.5) date 2025-12-23 10:30:06*
%MOMM*%
%LPD*%
G01*
G04 APERTURE LIST*
%ADD10C,0.200000*%
%ADD11C,0.125000*%
%ADD12C,0.120000*%
%ADD13C,0.000000*%
%ADD14C,1.000000*%
%ADD15C,0.650000*%
%ADD16O,2.100000X1.000000*%
%ADD17O,1.800000X1.000000*%
%ADD18R,1.700000X1.700000*%
%ADD19C,1.700000*%
%ADD20C,0.350000*%
%ADD21C,0.990600*%
G04 APERTURE END LIST*
D10*
X63012936Y18001925D02*
X63489126Y18001925D01*
X63489126Y18001925D02*
X63489126Y19001925D01*
X62679602Y18525735D02*
X62346269Y18525735D01*
X62203412Y18001925D02*
X62679602Y18001925D01*
X62679602Y18001925D02*
X62679602Y19001925D01*
X62679602Y19001925D02*
X62203412Y19001925D01*
X61060554Y18287640D02*
X60584364Y18287640D01*
X61155792Y18001925D02*
X60822459Y19001925D01*
X60822459Y19001925D02*
X60489126Y18001925D01*
X59727221Y18668592D02*
X59727221Y18001925D01*
X60155792Y18668592D02*
X60155792Y18144783D01*
X60155792Y18144783D02*
X60108173Y18049544D01*
X60108173Y18049544D02*
X60012935Y18001925D01*
X60012935Y18001925D02*
X59870078Y18001925D01*
X59870078Y18001925D02*
X59774840Y18049544D01*
X59774840Y18049544D02*
X59727221Y18097164D01*
X58822459Y18001925D02*
X58822459Y19001925D01*
X58822459Y18049544D02*
X58917697Y18001925D01*
X58917697Y18001925D02*
X59108173Y18001925D01*
X59108173Y18001925D02*
X59203411Y18049544D01*
X59203411Y18049544D02*
X59251030Y18097164D01*
X59251030Y18097164D02*
X59298649Y18192402D01*
X59298649Y18192402D02*
X59298649Y18478116D01*
X59298649Y18478116D02*
X59251030Y18573354D01*
X59251030Y18573354D02*
X59203411Y18620973D01*
X59203411Y18620973D02*
X59108173Y18668592D01*
X59108173Y18668592D02*
X58917697Y18668592D01*
X58917697Y18668592D02*
X58822459Y18620973D01*
X58346268Y18001925D02*
X58346268Y18668592D01*
X58346268Y19001925D02*
X58393887Y18954306D01*
X58393887Y18954306D02*
X58346268Y18906687D01*
X58346268Y18906687D02*
X58298649Y18954306D01*
X58298649Y18954306D02*
X58346268Y19001925D01*
X58346268Y19001925D02*
X58346268Y18906687D01*
X57727221Y18001925D02*
X57822459Y18049544D01*
X57822459Y18049544D02*
X57870078Y18097164D01*
X57870078Y18097164D02*
X57917697Y18192402D01*
X57917697Y18192402D02*
X57917697Y18478116D01*
X57917697Y18478116D02*
X57870078Y18573354D01*
X57870078Y18573354D02*
X57822459Y18620973D01*
X57822459Y18620973D02*
X57727221Y18668592D01*
X57727221Y18668592D02*
X57584364Y18668592D01*
X57584364Y18668592D02*
X57489126Y18620973D01*
X57489126Y18620973D02*
X57441507Y18573354D01*
X57441507Y18573354D02*
X57393888Y18478116D01*
X57393888Y18478116D02*
X57393888Y18192402D01*
X57393888Y18192402D02*
X57441507Y18097164D01*
X57441507Y18097164D02*
X57489126Y18049544D01*
X57489126Y18049544D02*
X57584364Y18001925D01*
X57584364Y18001925D02*
X57727221Y18001925D01*
X63489126Y16391981D02*
X63489126Y17391981D01*
X63489126Y17391981D02*
X63108174Y17391981D01*
X63108174Y17391981D02*
X63012936Y17344362D01*
X63012936Y17344362D02*
X62965317Y17296743D01*
X62965317Y17296743D02*
X62917698Y17201505D01*
X62917698Y17201505D02*
X62917698Y17058648D01*
X62917698Y17058648D02*
X62965317Y16963410D01*
X62965317Y16963410D02*
X63012936Y16915791D01*
X63012936Y16915791D02*
X63108174Y16868172D01*
X63108174Y16868172D02*
X63489126Y16868172D01*
X62346269Y16391981D02*
X62441507Y16439600D01*
X62441507Y16439600D02*
X62489126Y16534839D01*
X62489126Y16534839D02*
X62489126Y17391981D01*
X61536745Y16391981D02*
X61536745Y16915791D01*
X61536745Y16915791D02*
X61584364Y17011029D01*
X61584364Y17011029D02*
X61679602Y17058648D01*
X61679602Y17058648D02*
X61870078Y17058648D01*
X61870078Y17058648D02*
X61965316Y17011029D01*
X61536745Y16439600D02*
X61631983Y16391981D01*
X61631983Y16391981D02*
X61870078Y16391981D01*
X61870078Y16391981D02*
X61965316Y16439600D01*
X61965316Y16439600D02*
X62012935Y16534839D01*
X62012935Y16534839D02*
X62012935Y16630077D01*
X62012935Y16630077D02*
X61965316Y16725315D01*
X61965316Y16725315D02*
X61870078Y16772934D01*
X61870078Y16772934D02*
X61631983Y16772934D01*
X61631983Y16772934D02*
X61536745Y16820553D01*
X61155792Y17058648D02*
X60917697Y16391981D01*
X60679602Y17058648D02*
X60917697Y16391981D01*
X60917697Y16391981D02*
X61012935Y16153886D01*
X61012935Y16153886D02*
X61060554Y16106267D01*
X61060554Y16106267D02*
X61155792Y16058648D01*
X59870078Y17058648D02*
X59870078Y16249124D01*
X59870078Y16249124D02*
X59917697Y16153886D01*
X59917697Y16153886D02*
X59965316Y16106267D01*
X59965316Y16106267D02*
X60060554Y16058648D01*
X60060554Y16058648D02*
X60203411Y16058648D01*
X60203411Y16058648D02*
X60298649Y16106267D01*
X59870078Y16439600D02*
X59965316Y16391981D01*
X59965316Y16391981D02*
X60155792Y16391981D01*
X60155792Y16391981D02*
X60251030Y16439600D01*
X60251030Y16439600D02*
X60298649Y16487220D01*
X60298649Y16487220D02*
X60346268Y16582458D01*
X60346268Y16582458D02*
X60346268Y16868172D01*
X60346268Y16868172D02*
X60298649Y16963410D01*
X60298649Y16963410D02*
X60251030Y17011029D01*
X60251030Y17011029D02*
X60155792Y17058648D01*
X60155792Y17058648D02*
X59965316Y17058648D01*
X59965316Y17058648D02*
X59870078Y17011029D01*
X59393887Y16391981D02*
X59393887Y17058648D01*
X59393887Y16868172D02*
X59346268Y16963410D01*
X59346268Y16963410D02*
X59298649Y17011029D01*
X59298649Y17011029D02*
X59203411Y17058648D01*
X59203411Y17058648D02*
X59108173Y17058648D01*
X58631982Y16391981D02*
X58727220Y16439600D01*
X58727220Y16439600D02*
X58774839Y16487220D01*
X58774839Y16487220D02*
X58822458Y16582458D01*
X58822458Y16582458D02*
X58822458Y16868172D01*
X58822458Y16868172D02*
X58774839Y16963410D01*
X58774839Y16963410D02*
X58727220Y17011029D01*
X58727220Y17011029D02*
X58631982Y17058648D01*
X58631982Y17058648D02*
X58489125Y17058648D01*
X58489125Y17058648D02*
X58393887Y17011029D01*
X58393887Y17011029D02*
X58346268Y16963410D01*
X58346268Y16963410D02*
X58298649Y16868172D01*
X58298649Y16868172D02*
X58298649Y16582458D01*
X58298649Y16582458D02*
X58346268Y16487220D01*
X58346268Y16487220D02*
X58393887Y16439600D01*
X58393887Y16439600D02*
X58489125Y16391981D01*
X58489125Y16391981D02*
X58631982Y16391981D01*
X57441506Y17058648D02*
X57441506Y16391981D01*
X57870077Y17058648D02*
X57870077Y16534839D01*
X57870077Y16534839D02*
X57822458Y16439600D01*
X57822458Y16439600D02*
X57727220Y16391981D01*
X57727220Y16391981D02*
X57584363Y16391981D01*
X57584363Y16391981D02*
X57489125Y16439600D01*
X57489125Y16439600D02*
X57441506Y16487220D01*
X56965315Y17058648D02*
X56965315Y16391981D01*
X56965315Y16963410D02*
X56917696Y17011029D01*
X56917696Y17011029D02*
X56822458Y17058648D01*
X56822458Y17058648D02*
X56679601Y17058648D01*
X56679601Y17058648D02*
X56584363Y17011029D01*
X56584363Y17011029D02*
X56536744Y16915791D01*
X56536744Y16915791D02*
X56536744Y16391981D01*
X55631982Y16391981D02*
X55631982Y17391981D01*
X55631982Y16439600D02*
X55727220Y16391981D01*
X55727220Y16391981D02*
X55917696Y16391981D01*
X55917696Y16391981D02*
X56012934Y16439600D01*
X56012934Y16439600D02*
X56060553Y16487220D01*
X56060553Y16487220D02*
X56108172Y16582458D01*
X56108172Y16582458D02*
X56108172Y16868172D01*
X56108172Y16868172D02*
X56060553Y16963410D01*
X56060553Y16963410D02*
X56012934Y17011029D01*
X56012934Y17011029D02*
X55917696Y17058648D01*
X55917696Y17058648D02*
X55727220Y17058648D01*
X55727220Y17058648D02*
X55631982Y17011029D01*
X54489124Y17058648D02*
X54251029Y16391981D01*
X54251029Y16391981D02*
X54012934Y17058648D01*
X53679600Y17296743D02*
X53631981Y17344362D01*
X53631981Y17344362D02*
X53536743Y17391981D01*
X53536743Y17391981D02*
X53298648Y17391981D01*
X53298648Y17391981D02*
X53203410Y17344362D01*
X53203410Y17344362D02*
X53155791Y17296743D01*
X53155791Y17296743D02*
X53108172Y17201505D01*
X53108172Y17201505D02*
X53108172Y17106267D01*
X53108172Y17106267D02*
X53155791Y16963410D01*
X53155791Y16963410D02*
X53727219Y16391981D01*
X53727219Y16391981D02*
X53108172Y16391981D01*
X52679600Y16487220D02*
X52631981Y16439600D01*
X52631981Y16439600D02*
X52679600Y16391981D01*
X52679600Y16391981D02*
X52727219Y16439600D01*
X52727219Y16439600D02*
X52679600Y16487220D01*
X52679600Y16487220D02*
X52679600Y16391981D01*
X51679601Y16391981D02*
X52251029Y16391981D01*
X51965315Y16391981D02*
X51965315Y17391981D01*
X51965315Y17391981D02*
X52060553Y17249124D01*
X52060553Y17249124D02*
X52155791Y17153886D01*
X52155791Y17153886D02*
X52251029Y17106267D01*
D11*
X26556068Y4942425D02*
X26556068Y5942425D01*
X26556068Y5942425D02*
X26175116Y5942425D01*
X26175116Y5942425D02*
X26079878Y5894806D01*
X26079878Y5894806D02*
X26032259Y5847187D01*
X26032259Y5847187D02*
X25984640Y5751949D01*
X25984640Y5751949D02*
X25984640Y5609092D01*
X25984640Y5609092D02*
X26032259Y5513854D01*
X26032259Y5513854D02*
X26079878Y5466235D01*
X26079878Y5466235D02*
X26175116Y5418616D01*
X26175116Y5418616D02*
X26556068Y5418616D01*
X24984640Y5037664D02*
X25032259Y4990044D01*
X25032259Y4990044D02*
X25175116Y4942425D01*
X25175116Y4942425D02*
X25270354Y4942425D01*
X25270354Y4942425D02*
X25413211Y4990044D01*
X25413211Y4990044D02*
X25508449Y5085283D01*
X25508449Y5085283D02*
X25556068Y5180521D01*
X25556068Y5180521D02*
X25603687Y5370997D01*
X25603687Y5370997D02*
X25603687Y5513854D01*
X25603687Y5513854D02*
X25556068Y5704330D01*
X25556068Y5704330D02*
X25508449Y5799568D01*
X25508449Y5799568D02*
X25413211Y5894806D01*
X25413211Y5894806D02*
X25270354Y5942425D01*
X25270354Y5942425D02*
X25175116Y5942425D01*
X25175116Y5942425D02*
X25032259Y5894806D01*
X25032259Y5894806D02*
X24984640Y5847187D01*
X24222735Y5466235D02*
X24079878Y5418616D01*
X24079878Y5418616D02*
X24032259Y5370997D01*
X24032259Y5370997D02*
X23984640Y5275759D01*
X23984640Y5275759D02*
X23984640Y5132902D01*
X23984640Y5132902D02*
X24032259Y5037664D01*
X24032259Y5037664D02*
X24079878Y4990044D01*
X24079878Y4990044D02*
X24175116Y4942425D01*
X24175116Y4942425D02*
X24556068Y4942425D01*
X24556068Y4942425D02*
X24556068Y5942425D01*
X24556068Y5942425D02*
X24222735Y5942425D01*
X24222735Y5942425D02*
X24127497Y5894806D01*
X24127497Y5894806D02*
X24079878Y5847187D01*
X24079878Y5847187D02*
X24032259Y5751949D01*
X24032259Y5751949D02*
X24032259Y5656711D01*
X24032259Y5656711D02*
X24079878Y5561473D01*
X24079878Y5561473D02*
X24127497Y5513854D01*
X24127497Y5513854D02*
X24222735Y5466235D01*
X24222735Y5466235D02*
X24556068Y5466235D01*
X22794163Y4942425D02*
X22794163Y5942425D01*
X22794163Y5942425D02*
X22556068Y5942425D01*
X22556068Y5942425D02*
X22413211Y5894806D01*
X22413211Y5894806D02*
X22317973Y5799568D01*
X22317973Y5799568D02*
X22270354Y5704330D01*
X22270354Y5704330D02*
X22222735Y5513854D01*
X22222735Y5513854D02*
X22222735Y5370997D01*
X22222735Y5370997D02*
X22270354Y5180521D01*
X22270354Y5180521D02*
X22317973Y5085283D01*
X22317973Y5085283D02*
X22413211Y4990044D01*
X22413211Y4990044D02*
X22556068Y4942425D01*
X22556068Y4942425D02*
X22794163Y4942425D01*
X21413211Y4990044D02*
X21508449Y4942425D01*
X21508449Y4942425D02*
X21698925Y4942425D01*
X21698925Y4942425D02*
X21794163Y4990044D01*
X21794163Y4990044D02*
X21841782Y5085283D01*
X21841782Y5085283D02*
X21841782Y5466235D01*
X21841782Y5466235D02*
X21794163Y5561473D01*
X21794163Y5561473D02*
X21698925Y5609092D01*
X21698925Y5609092D02*
X21508449Y5609092D01*
X21508449Y5609092D02*
X21413211Y5561473D01*
X21413211Y5561473D02*
X21365592Y5466235D01*
X21365592Y5466235D02*
X21365592Y5370997D01*
X21365592Y5370997D02*
X21841782Y5275759D01*
X20984639Y4990044D02*
X20889401Y4942425D01*
X20889401Y4942425D02*
X20698925Y4942425D01*
X20698925Y4942425D02*
X20603687Y4990044D01*
X20603687Y4990044D02*
X20556068Y5085283D01*
X20556068Y5085283D02*
X20556068Y5132902D01*
X20556068Y5132902D02*
X20603687Y5228140D01*
X20603687Y5228140D02*
X20698925Y5275759D01*
X20698925Y5275759D02*
X20841782Y5275759D01*
X20841782Y5275759D02*
X20937020Y5323378D01*
X20937020Y5323378D02*
X20984639Y5418616D01*
X20984639Y5418616D02*
X20984639Y5466235D01*
X20984639Y5466235D02*
X20937020Y5561473D01*
X20937020Y5561473D02*
X20841782Y5609092D01*
X20841782Y5609092D02*
X20698925Y5609092D01*
X20698925Y5609092D02*
X20603687Y5561473D01*
X20127496Y4942425D02*
X20127496Y5609092D01*
X20127496Y5942425D02*
X20175115Y5894806D01*
X20175115Y5894806D02*
X20127496Y5847187D01*
X20127496Y5847187D02*
X20079877Y5894806D01*
X20079877Y5894806D02*
X20127496Y5942425D01*
X20127496Y5942425D02*
X20127496Y5847187D01*
X19222735Y5609092D02*
X19222735Y4799568D01*
X19222735Y4799568D02*
X19270354Y4704330D01*
X19270354Y4704330D02*
X19317973Y4656711D01*
X19317973Y4656711D02*
X19413211Y4609092D01*
X19413211Y4609092D02*
X19556068Y4609092D01*
X19556068Y4609092D02*
X19651306Y4656711D01*
X19222735Y4990044D02*
X19317973Y4942425D01*
X19317973Y4942425D02*
X19508449Y4942425D01*
X19508449Y4942425D02*
X19603687Y4990044D01*
X19603687Y4990044D02*
X19651306Y5037664D01*
X19651306Y5037664D02*
X19698925Y5132902D01*
X19698925Y5132902D02*
X19698925Y5418616D01*
X19698925Y5418616D02*
X19651306Y5513854D01*
X19651306Y5513854D02*
X19603687Y5561473D01*
X19603687Y5561473D02*
X19508449Y5609092D01*
X19508449Y5609092D02*
X19317973Y5609092D01*
X19317973Y5609092D02*
X19222735Y5561473D01*
X18746544Y5609092D02*
X18746544Y4942425D01*
X18746544Y5513854D02*
X18698925Y5561473D01*
X18698925Y5561473D02*
X18603687Y5609092D01*
X18603687Y5609092D02*
X18460830Y5609092D01*
X18460830Y5609092D02*
X18365592Y5561473D01*
X18365592Y5561473D02*
X18317973Y5466235D01*
X18317973Y5466235D02*
X18317973Y4942425D01*
X17841782Y5037664D02*
X17794163Y4990044D01*
X17794163Y4990044D02*
X17841782Y4942425D01*
X17841782Y4942425D02*
X17889401Y4990044D01*
X17889401Y4990044D02*
X17841782Y5037664D01*
X17841782Y5037664D02*
X17841782Y4942425D01*
X17841782Y5561473D02*
X17794163Y5513854D01*
X17794163Y5513854D02*
X17841782Y5466235D01*
X17841782Y5466235D02*
X17889401Y5513854D01*
X17889401Y5513854D02*
X17841782Y5561473D01*
X17841782Y5561473D02*
X17841782Y5466235D01*
X26222735Y3856291D02*
X26556068Y3856291D01*
X26556068Y3332481D02*
X26556068Y4332481D01*
X26556068Y4332481D02*
X26079878Y4332481D01*
X25270354Y3332481D02*
X25270354Y3856291D01*
X25270354Y3856291D02*
X25317973Y3951529D01*
X25317973Y3951529D02*
X25413211Y3999148D01*
X25413211Y3999148D02*
X25603687Y3999148D01*
X25603687Y3999148D02*
X25698925Y3951529D01*
X25270354Y3380100D02*
X25365592Y3332481D01*
X25365592Y3332481D02*
X25603687Y3332481D01*
X25603687Y3332481D02*
X25698925Y3380100D01*
X25698925Y3380100D02*
X25746544Y3475339D01*
X25746544Y3475339D02*
X25746544Y3570577D01*
X25746544Y3570577D02*
X25698925Y3665815D01*
X25698925Y3665815D02*
X25603687Y3713434D01*
X25603687Y3713434D02*
X25365592Y3713434D01*
X25365592Y3713434D02*
X25270354Y3761053D01*
X24794163Y3332481D02*
X24794163Y4332481D01*
X24794163Y3951529D02*
X24698925Y3999148D01*
X24698925Y3999148D02*
X24508449Y3999148D01*
X24508449Y3999148D02*
X24413211Y3951529D01*
X24413211Y3951529D02*
X24365592Y3903910D01*
X24365592Y3903910D02*
X24317973Y3808672D01*
X24317973Y3808672D02*
X24317973Y3522958D01*
X24317973Y3522958D02*
X24365592Y3427720D01*
X24365592Y3427720D02*
X24413211Y3380100D01*
X24413211Y3380100D02*
X24508449Y3332481D01*
X24508449Y3332481D02*
X24698925Y3332481D01*
X24698925Y3332481D02*
X24794163Y3380100D01*
X23889401Y3332481D02*
X23889401Y3999148D01*
X23889401Y4332481D02*
X23937020Y4284862D01*
X23937020Y4284862D02*
X23889401Y4237243D01*
X23889401Y4237243D02*
X23841782Y4284862D01*
X23841782Y4284862D02*
X23889401Y4332481D01*
X23889401Y4332481D02*
X23889401Y4237243D01*
X22984640Y3332481D02*
X22984640Y3856291D01*
X22984640Y3856291D02*
X23032259Y3951529D01*
X23032259Y3951529D02*
X23127497Y3999148D01*
X23127497Y3999148D02*
X23317973Y3999148D01*
X23317973Y3999148D02*
X23413211Y3951529D01*
X22984640Y3380100D02*
X23079878Y3332481D01*
X23079878Y3332481D02*
X23317973Y3332481D01*
X23317973Y3332481D02*
X23413211Y3380100D01*
X23413211Y3380100D02*
X23460830Y3475339D01*
X23460830Y3475339D02*
X23460830Y3570577D01*
X23460830Y3570577D02*
X23413211Y3665815D01*
X23413211Y3665815D02*
X23317973Y3713434D01*
X23317973Y3713434D02*
X23079878Y3713434D01*
X23079878Y3713434D02*
X22984640Y3761053D01*
X22508449Y3999148D02*
X22508449Y3332481D01*
X22508449Y3903910D02*
X22460830Y3951529D01*
X22460830Y3951529D02*
X22365592Y3999148D01*
X22365592Y3999148D02*
X22222735Y3999148D01*
X22222735Y3999148D02*
X22127497Y3951529D01*
X22127497Y3951529D02*
X22079878Y3856291D01*
X22079878Y3856291D02*
X22079878Y3332481D01*
X20889401Y3380100D02*
X20746544Y3332481D01*
X20746544Y3332481D02*
X20508449Y3332481D01*
X20508449Y3332481D02*
X20413211Y3380100D01*
X20413211Y3380100D02*
X20365592Y3427720D01*
X20365592Y3427720D02*
X20317973Y3522958D01*
X20317973Y3522958D02*
X20317973Y3618196D01*
X20317973Y3618196D02*
X20365592Y3713434D01*
X20365592Y3713434D02*
X20413211Y3761053D01*
X20413211Y3761053D02*
X20508449Y3808672D01*
X20508449Y3808672D02*
X20698925Y3856291D01*
X20698925Y3856291D02*
X20794163Y3903910D01*
X20794163Y3903910D02*
X20841782Y3951529D01*
X20841782Y3951529D02*
X20889401Y4046767D01*
X20889401Y4046767D02*
X20889401Y4142005D01*
X20889401Y4142005D02*
X20841782Y4237243D01*
X20841782Y4237243D02*
X20794163Y4284862D01*
X20794163Y4284862D02*
X20698925Y4332481D01*
X20698925Y4332481D02*
X20460830Y4332481D01*
X20460830Y4332481D02*
X20317973Y4284862D01*
X19460830Y3380100D02*
X19556068Y3332481D01*
X19556068Y3332481D02*
X19746544Y3332481D01*
X19746544Y3332481D02*
X19841782Y3380100D01*
X19841782Y3380100D02*
X19889401Y3427720D01*
X19889401Y3427720D02*
X19937020Y3522958D01*
X19937020Y3522958D02*
X19937020Y3808672D01*
X19937020Y3808672D02*
X19889401Y3903910D01*
X19889401Y3903910D02*
X19841782Y3951529D01*
X19841782Y3951529D02*
X19746544Y3999148D01*
X19746544Y3999148D02*
X19556068Y3999148D01*
X19556068Y3999148D02*
X19460830Y3951529D01*
X19032258Y3332481D02*
X19032258Y4332481D01*
X18603687Y3332481D02*
X18603687Y3856291D01*
X18603687Y3856291D02*
X18651306Y3951529D01*
X18651306Y3951529D02*
X18746544Y3999148D01*
X18746544Y3999148D02*
X18889401Y3999148D01*
X18889401Y3999148D02*
X18984639Y3951529D01*
X18984639Y3951529D02*
X19032258Y3903910D01*
X18127496Y3332481D02*
X18127496Y3999148D01*
X18127496Y3903910D02*
X18079877Y3951529D01*
X18079877Y3951529D02*
X17984639Y3999148D01*
X17984639Y3999148D02*
X17841782Y3999148D01*
X17841782Y3999148D02*
X17746544Y3951529D01*
X17746544Y3951529D02*
X17698925Y3856291D01*
X17698925Y3856291D02*
X17698925Y3332481D01*
X17698925Y3856291D02*
X17651306Y3951529D01*
X17651306Y3951529D02*
X17556068Y3999148D01*
X17556068Y3999148D02*
X17413211Y3999148D01*
X17413211Y3999148D02*
X17317972Y3951529D01*
X17317972Y3951529D02*
X17270353Y3856291D01*
X17270353Y3856291D02*
X17270353Y3332481D01*
X16794163Y3332481D02*
X16794163Y3999148D01*
X16794163Y4332481D02*
X16841782Y4284862D01*
X16841782Y4284862D02*
X16794163Y4237243D01*
X16794163Y4237243D02*
X16746544Y4284862D01*
X16746544Y4284862D02*
X16794163Y4332481D01*
X16794163Y4332481D02*
X16794163Y4237243D01*
X15889402Y3332481D02*
X15889402Y4332481D01*
X15889402Y3380100D02*
X15984640Y3332481D01*
X15984640Y3332481D02*
X16175116Y3332481D01*
X16175116Y3332481D02*
X16270354Y3380100D01*
X16270354Y3380100D02*
X16317973Y3427720D01*
X16317973Y3427720D02*
X16365592Y3522958D01*
X16365592Y3522958D02*
X16365592Y3808672D01*
X16365592Y3808672D02*
X16317973Y3903910D01*
X16317973Y3903910D02*
X16270354Y3951529D01*
X16270354Y3951529D02*
X16175116Y3999148D01*
X16175116Y3999148D02*
X15984640Y3999148D01*
X15984640Y3999148D02*
X15889402Y3951529D01*
D12*
%TO.C,TP11*%
X28617800Y5540400D02*
G75*
G02*
X27217800Y5540400I-700000J0D01*
G01*
X27217800Y5540400D02*
G75*
G02*
X28617800Y5540400I700000J0D01*
G01*
%TO.C,TP10*%
X28592400Y7547000D02*
G75*
G02*
X27192400Y7547000I-700000J0D01*
G01*
X27192400Y7547000D02*
G75*
G02*
X28592400Y7547000I700000J0D01*
G01*
D13*
%TO.C,G\u002A\u002A\u002A*%
G36*
X31248555Y8876432D02*
G01*
X31250097Y8798456D01*
X31262239Y8268027D01*
X31277181Y7844294D01*
X31297998Y7512574D01*
X31327763Y7258185D01*
X31369551Y7066443D01*
X31426437Y6922665D01*
X31501494Y6812166D01*
X31597797Y6720265D01*
X31718420Y6632278D01*
X31738185Y6619345D01*
X32016447Y6505378D01*
X32345439Y6463596D01*
X32678956Y6495145D01*
X32970793Y6601175D01*
X33034892Y6637809D01*
X33150176Y6712423D01*
X33241119Y6795307D01*
X33310944Y6900839D01*
X33362872Y7043395D01*
X33400127Y7237355D01*
X33425928Y7497095D01*
X33443499Y7836994D01*
X33456062Y8271431D01*
X33466838Y8814781D01*
X33497663Y10510170D01*
X33929216Y10510170D01*
X34360770Y10510170D01*
X34377211Y8849510D01*
X34379285Y8622758D01*
X34381465Y8093469D01*
X34376555Y7666136D01*
X34361811Y7325247D01*
X34334487Y7055289D01*
X34291839Y6840751D01*
X34231122Y6666119D01*
X34149592Y6515883D01*
X34044504Y6374529D01*
X33913113Y6226546D01*
X33637908Y5977545D01*
X33251061Y5758559D01*
X33174763Y5727632D01*
X32989696Y5664659D01*
X32809935Y5630443D01*
X32592766Y5618981D01*
X32295478Y5624270D01*
X31844910Y5664498D01*
X31477164Y5759928D01*
X31165488Y5921713D01*
X30880225Y6161102D01*
X30760255Y6289252D01*
X30631251Y6459572D01*
X30529702Y6648286D01*
X30452751Y6870349D01*
X30397541Y7140716D01*
X30361213Y7474340D01*
X30340911Y7886177D01*
X30333778Y8391181D01*
X30336955Y9004306D01*
X30353488Y10510170D01*
X30785042Y10510170D01*
X31216595Y10510170D01*
X31248555Y8876432D01*
G37*
G36*
X33636804Y3701686D02*
G01*
X33551165Y3515042D01*
X33385744Y3389969D01*
X33304717Y3362792D01*
X33010097Y3338589D01*
X32729981Y3418839D01*
X32628506Y3466919D01*
X32556220Y3473690D01*
X32517616Y3414710D01*
X32463316Y3356318D01*
X32311242Y3339172D01*
X32141352Y3358713D01*
X32145405Y3947889D01*
X32603731Y3947889D01*
X32637464Y3845753D01*
X32740749Y3732112D01*
X32840594Y3670514D01*
X32969274Y3644384D01*
X33112347Y3702729D01*
X33189333Y3766533D01*
X33216117Y3870905D01*
X33148286Y3968061D01*
X33001830Y4039743D01*
X32792735Y4067694D01*
X32743731Y4066407D01*
X32633640Y4035253D01*
X32603731Y3947889D01*
X32145405Y3947889D01*
X32145494Y3960833D01*
X32146490Y4060396D01*
X32155254Y4324898D01*
X32176205Y4504998D01*
X32214352Y4630564D01*
X32274703Y4731464D01*
X32305230Y4768837D01*
X32516722Y4916576D01*
X32801806Y4980832D01*
X33141919Y4956780D01*
X33252627Y4933861D01*
X33377899Y4890054D01*
X33434249Y4818852D01*
X33455953Y4691278D01*
X33462351Y4569306D01*
X33437656Y4514774D01*
X33363477Y4534114D01*
X33313789Y4550153D01*
X33147933Y4576801D01*
X32944037Y4588685D01*
X32779721Y4583957D01*
X32661612Y4554701D01*
X32617448Y4492129D01*
X32615599Y4468740D01*
X32650821Y4417015D01*
X32763813Y4380306D01*
X32977322Y4349606D01*
X33159592Y4322410D01*
X33362542Y4259480D01*
X33504275Y4159163D01*
X33545937Y4111702D01*
X33636962Y3912904D01*
X33636931Y3870905D01*
X33636804Y3701686D01*
G37*
G36*
X36461837Y5467666D02*
G01*
X36784773Y5314992D01*
X37025387Y5081499D01*
X37175646Y4773370D01*
X37227517Y4396787D01*
X37191974Y4111855D01*
X37051017Y3796415D01*
X36814028Y3547868D01*
X36493040Y3382830D01*
X36422764Y3367740D01*
X36237965Y3352647D01*
X36002216Y3350013D01*
X35750345Y3358381D01*
X35517180Y3376297D01*
X35337550Y3402304D01*
X35246284Y3434946D01*
X35234912Y3457945D01*
X35214448Y3585455D01*
X35204084Y3790847D01*
X35205921Y4042494D01*
X35223876Y4591723D01*
X35686255Y4591723D01*
X36148634Y4591723D01*
X36148634Y4406990D01*
X36148450Y4375540D01*
X36133468Y4272416D01*
X36068522Y4236555D01*
X35917444Y4242174D01*
X35686255Y4262093D01*
X35686255Y3979942D01*
X35686255Y3697791D01*
X35935919Y3697791D01*
X35960959Y3698047D01*
X36271748Y3753504D01*
X36504339Y3900099D01*
X36650172Y4129594D01*
X36700686Y4433749D01*
X36670056Y4644211D01*
X36543244Y4878597D01*
X36336139Y5049803D01*
X36068334Y5147808D01*
X35759421Y5162592D01*
X35428994Y5084135D01*
X35404680Y5077011D01*
X35339908Y5106144D01*
X35303347Y5238065D01*
X35302617Y5243165D01*
X35298049Y5384028D01*
X35324118Y5459629D01*
X35391683Y5477813D01*
X35550910Y5502418D01*
X35760805Y5525581D01*
X36064610Y5533339D01*
X36461837Y5467666D01*
G37*
G36*
X46413440Y11712354D02*
G01*
X46413440Y10540995D01*
X47831401Y10540995D01*
X49249362Y10540995D01*
X49249362Y9338811D01*
X49249362Y8136626D01*
X49463807Y8136626D01*
X49678253Y8136626D01*
X49694997Y9323398D01*
X49711741Y10510170D01*
X52101413Y10526307D01*
X54491086Y10542444D01*
X54474957Y8121938D01*
X54458828Y5701432D01*
X53302844Y5701432D01*
X52146859Y5701432D01*
X52146897Y4514660D01*
X52146935Y3327888D01*
X49743897Y3327888D01*
X47340859Y3327888D01*
X47324115Y4502646D01*
X47307372Y5677403D01*
X45889410Y5689418D01*
X44471449Y5701432D01*
X44454705Y6888204D01*
X44437962Y8074976D01*
X44224847Y8074976D01*
X44011733Y8074976D01*
X43994989Y6888204D01*
X43978245Y5701432D01*
X41604702Y5701432D01*
X39231158Y5701432D01*
X39215030Y8121213D01*
X39198902Y10540995D01*
X40401802Y10540995D01*
X41604702Y10540995D01*
X41604702Y11712354D01*
X41604702Y12883713D01*
X44009071Y12883713D01*
X46413440Y12883713D01*
X46413440Y11712354D01*
G37*
G36*
X31863925Y4779491D02*
G01*
X31863800Y4762881D01*
X31851517Y4687594D01*
X31799383Y4644875D01*
X31679593Y4622927D01*
X31464339Y4609953D01*
X31064754Y4591723D01*
X31461486Y4160170D01*
X31670061Y3914744D01*
X31823117Y3676510D01*
X31872881Y3495047D01*
X31820863Y3367027D01*
X31774151Y3354367D01*
X31624147Y3342713D01*
X31399307Y3338029D01*
X31127295Y3341339D01*
X30476789Y3358713D01*
X30457562Y3525349D01*
X30453242Y3566417D01*
X30458661Y3638946D01*
X30508283Y3678732D01*
X30628442Y3698332D01*
X30845470Y3710300D01*
X31252605Y3728616D01*
X30849285Y4170111D01*
X30825394Y4196387D01*
X30610441Y4450433D01*
X30486044Y4638940D01*
X30445964Y4771203D01*
X30445964Y4930801D01*
X31154944Y4930801D01*
X31863925Y4930801D01*
X31863925Y4779491D01*
G37*
G36*
X34071434Y4954986D02*
G01*
X34229155Y4864676D01*
X34311785Y4803583D01*
X34375785Y4780394D01*
X34391595Y4833851D01*
X34392952Y4850842D01*
X34450622Y4912263D01*
X34607372Y4930801D01*
X34823148Y4930801D01*
X34823148Y4170445D01*
X34823138Y4153679D01*
X34819401Y3860557D01*
X34809895Y3614683D01*
X34796008Y3441403D01*
X34779126Y3366067D01*
X34694123Y3340482D01*
X34547937Y3340379D01*
X34360770Y3358713D01*
X34329944Y3858199D01*
X34316699Y4028950D01*
X34275794Y4288281D01*
X34207809Y4451559D01*
X34103218Y4536519D01*
X33952493Y4560898D01*
X33837691Y4572033D01*
X33785642Y4631549D01*
X33775090Y4776675D01*
X33781544Y4897755D01*
X33821975Y4974729D01*
X33920902Y4992451D01*
X34071434Y4954986D01*
G37*
G36*
X38737954Y10115832D02*
G01*
X38737954Y9721494D01*
X37998148Y9715104D01*
X37258342Y9708713D01*
X37242076Y7720485D01*
X37225809Y5732257D01*
X36764285Y5732257D01*
X36302760Y5732257D01*
X36302760Y7740393D01*
X36302760Y9748528D01*
X35547542Y9733387D01*
X34792323Y9718245D01*
X34792323Y10114208D01*
X34792323Y10510170D01*
X36765139Y10510170D01*
X38737954Y10510170D01*
X38737954Y10115832D01*
G37*
G36*
X30137711Y4129345D02*
G01*
X30137711Y3327888D01*
X29336255Y3327888D01*
X28534799Y3327888D01*
X28534799Y4129345D01*
X28534799Y4930801D01*
X29336255Y4930801D01*
X30137711Y4930801D01*
X30137711Y4129345D01*
G37*
D12*
%TO.C,TP9*%
X56735600Y7445400D02*
G75*
G02*
X55335600Y7445400I-700000J0D01*
G01*
X55335600Y7445400D02*
G75*
G02*
X56735600Y7445400I700000J0D01*
G01*
%TO.C,TP8*%
X58742200Y7470800D02*
G75*
G02*
X57342200Y7470800I-700000J0D01*
G01*
X57342200Y7470800D02*
G75*
G02*
X58742200Y7470800I700000J0D01*
G01*
%TO.C,TP5*%
X41381051Y16568949D02*
G75*
G02*
X39981051Y16568949I-700000J0D01*
G01*
X39981051Y16568949D02*
G75*
G02*
X41381051Y16568949I700000J0D01*
G01*
%TO.C,TP4*%
X39331051Y16618949D02*
G75*
G02*
X37931051Y16618949I-700000J0D01*
G01*
X37931051Y16618949D02*
G75*
G02*
X39331051Y16618949I700000J0D01*
G01*
%TO.C,TP7*%
X44131051Y14518949D02*
G75*
G02*
X42731051Y14518949I-700000J0D01*
G01*
X42731051Y14518949D02*
G75*
G02*
X44131051Y14518949I700000J0D01*
G01*
%TO.C,TP6*%
X43531051Y16518949D02*
G75*
G02*
X42131051Y16518949I-700000J0D01*
G01*
X42131051Y16518949D02*
G75*
G02*
X43531051Y16518949I700000J0D01*
G01*
D13*
%TO.C,G\u002A\u002A\u002A*%
G36*
X23356600Y15808418D02*
G01*
X23356600Y14719482D01*
X22948343Y15263950D01*
X22540086Y15808417D01*
X22601898Y15890582D01*
X22607348Y15897831D01*
X22649047Y15953380D01*
X22716155Y16042850D01*
X22802695Y16158268D01*
X22902688Y16291659D01*
X23010155Y16435051D01*
X23356600Y16897355D01*
X23356600Y15808418D01*
G37*
G36*
X23784827Y9263315D02*
G01*
X23838695Y9219227D01*
X23872340Y9154740D01*
X23876840Y9083680D01*
X23843274Y9019872D01*
X23825107Y9005471D01*
X23752646Y8986086D01*
X23674851Y9003271D01*
X23615029Y9053582D01*
X23590481Y9127007D01*
X23614316Y9200915D01*
X23687155Y9261791D01*
X23719658Y9273180D01*
X23784827Y9263315D01*
G37*
G36*
X13218876Y10850219D02*
G01*
X13280655Y10790146D01*
X13313587Y10708958D01*
X13311366Y10622224D01*
X13267687Y10545513D01*
X13266116Y10543961D01*
X13188792Y10501185D01*
X13102394Y10500628D01*
X13022005Y10535777D01*
X12962710Y10600121D01*
X12939593Y10687149D01*
X12952760Y10733999D01*
X13001476Y10799516D01*
X13068464Y10852074D01*
X13134812Y10873607D01*
X13218876Y10850219D01*
G37*
G36*
X21348662Y10861339D02*
G01*
X21418761Y10815249D01*
X21474605Y10751316D01*
X21497397Y10687149D01*
X21497387Y10686180D01*
X21480407Y10628341D01*
X21440730Y10562870D01*
X21432265Y10552809D01*
X21357351Y10502832D01*
X21273340Y10494947D01*
X21195022Y10524132D01*
X21137185Y10585364D01*
X21114620Y10673621D01*
X21119349Y10710103D01*
X21158473Y10788997D01*
X21223624Y10849469D01*
X21298346Y10873607D01*
X21348662Y10861339D01*
G37*
G36*
X25533701Y8519078D02*
G01*
X25636943Y8493473D01*
X25700824Y8446274D01*
X25720384Y8382375D01*
X25690662Y8306671D01*
X25665358Y8278656D01*
X25625156Y8259797D01*
X25558820Y8251012D01*
X25452122Y8248849D01*
X25398288Y8249465D01*
X25292770Y8258358D01*
X25228724Y8281725D01*
X25197004Y8324521D01*
X25188462Y8391701D01*
X25199894Y8445317D01*
X25247086Y8489751D01*
X25335988Y8514556D01*
X25472099Y8522262D01*
X25533701Y8519078D01*
G37*
G36*
X23743789Y8905025D02*
G01*
X23790121Y8901216D01*
X23824188Y8885710D01*
X23847863Y8851345D01*
X23863018Y8790959D01*
X23871525Y8697387D01*
X23875256Y8563469D01*
X23876083Y8382040D01*
X23875732Y8257962D01*
X23873616Y8116241D01*
X23868983Y8015749D01*
X23861147Y7948491D01*
X23849421Y7906472D01*
X23833119Y7881696D01*
X23812627Y7863931D01*
X23741541Y7840395D01*
X23655556Y7867034D01*
X23642356Y7875414D01*
X23626692Y7894362D01*
X23615780Y7927815D01*
X23608771Y7983808D01*
X23604816Y8070376D01*
X23603066Y8195555D01*
X23602671Y8367379D01*
X23602694Y8410119D01*
X23603888Y8583850D01*
X23608196Y8711453D01*
X23617416Y8800000D01*
X23633347Y8856561D01*
X23657785Y8888207D01*
X23692529Y8902009D01*
X23739377Y8905039D01*
X23743789Y8905025D01*
G37*
G36*
X11967026Y9244851D02*
G01*
X11967640Y9244229D01*
X11981353Y9223115D01*
X11991824Y9187207D01*
X11999465Y9129860D01*
X12004689Y9044424D01*
X12007910Y8924254D01*
X12009539Y8762701D01*
X12009991Y8553118D01*
X12009736Y8426442D01*
X12007782Y8226321D01*
X12003742Y8074758D01*
X11997423Y7967766D01*
X11988634Y7901356D01*
X11977181Y7871540D01*
X11923391Y7843706D01*
X11846624Y7845282D01*
X11779543Y7881696D01*
X11766407Y7900732D01*
X11755503Y7935101D01*
X11747545Y7990432D01*
X11742103Y8073468D01*
X11738748Y8190953D01*
X11737049Y8349629D01*
X11736579Y8556238D01*
X11736583Y8581184D01*
X11737114Y8781274D01*
X11738854Y8934376D01*
X11742266Y9047427D01*
X11747809Y9127361D01*
X11755943Y9181114D01*
X11767129Y9215620D01*
X11781828Y9237816D01*
X11822836Y9271053D01*
X11896258Y9284211D01*
X11967026Y9244851D01*
G37*
G36*
X20784494Y9479204D02*
G01*
X20945834Y9475441D01*
X21058763Y9462974D01*
X21129093Y9439905D01*
X21162633Y9404334D01*
X21165194Y9354362D01*
X21151070Y9324063D01*
X21108703Y9303359D01*
X21025515Y9293153D01*
X20895890Y9284820D01*
X20895890Y8935439D01*
X20895866Y8917453D01*
X20894179Y8786400D01*
X20890221Y8677137D01*
X20884534Y8600626D01*
X20877662Y8567830D01*
X20877395Y8567567D01*
X20828469Y8550517D01*
X20762370Y8556361D01*
X20709969Y8582412D01*
X20703102Y8593348D01*
X20688662Y8659139D01*
X20680028Y8778373D01*
X20677160Y8951519D01*
X20677160Y9287816D01*
X20573263Y9287816D01*
X20494231Y9297199D01*
X20428575Y9327848D01*
X20403748Y9373355D01*
X20412367Y9393907D01*
X20446712Y9436240D01*
X20450983Y9440197D01*
X20486795Y9459157D01*
X20547514Y9471137D01*
X20643035Y9477398D01*
X20783252Y9479205D01*
X20784494Y9479204D01*
G37*
G36*
X11513645Y8185333D02*
G01*
X11444479Y8043363D01*
X11338780Y7928517D01*
X11199672Y7849997D01*
X11055405Y7823167D01*
X10896727Y7840304D01*
X10741779Y7900230D01*
X10665012Y7956019D01*
X10578149Y8068700D01*
X10523272Y8207419D01*
X10501618Y8360433D01*
X10504640Y8397140D01*
X10786760Y8397140D01*
X10796206Y8278898D01*
X10833192Y8173601D01*
X10897177Y8098557D01*
X10917825Y8085634D01*
X11014749Y8060727D01*
X11128634Y8085801D01*
X11185317Y8133722D01*
X11226022Y8219459D01*
X11247002Y8326494D01*
X11246830Y8439208D01*
X11224080Y8541983D01*
X11177326Y8619199D01*
X11171972Y8624397D01*
X11080746Y8676970D01*
X10979618Y8679285D01*
X10880579Y8630871D01*
X10852644Y8603221D01*
X10805393Y8511018D01*
X10786760Y8397140D01*
X10504640Y8397140D01*
X10514423Y8515995D01*
X10562923Y8662358D01*
X10648354Y8787777D01*
X10718512Y8846912D01*
X10848542Y8906227D01*
X10993457Y8927554D01*
X11141031Y8912656D01*
X11279037Y8863296D01*
X11395247Y8781238D01*
X11477434Y8668243D01*
X11529880Y8513830D01*
X11543153Y8345223D01*
X11539697Y8326494D01*
X11513645Y8185333D01*
G37*
G36*
X13253644Y8290155D02*
G01*
X13218927Y8148425D01*
X13151077Y8022202D01*
X13050441Y7921074D01*
X12917364Y7854631D01*
X12849262Y7834918D01*
X12755009Y7816816D01*
X12672309Y7818978D01*
X12576574Y7840375D01*
X12556109Y7846585D01*
X12423548Y7916445D01*
X12319808Y8022894D01*
X12247681Y8155649D01*
X12209961Y8304425D01*
X12209837Y8341325D01*
X12505359Y8341325D01*
X12524524Y8232920D01*
X12565355Y8143789D01*
X12627816Y8088571D01*
X12724358Y8061747D01*
X12822182Y8076390D01*
X12898909Y8136043D01*
X12949005Y8236083D01*
X12966934Y8371885D01*
X12955816Y8481747D01*
X12911506Y8592162D01*
X12838314Y8663303D01*
X12741517Y8690561D01*
X12626393Y8669325D01*
X12578219Y8635775D01*
X12532171Y8557392D01*
X12507896Y8454362D01*
X12505359Y8341325D01*
X12209837Y8341325D01*
X12209441Y8458937D01*
X12248913Y8608901D01*
X12331170Y8744033D01*
X12357802Y8773211D01*
X12486713Y8867559D01*
X12637562Y8918827D01*
X12797679Y8924231D01*
X12954394Y8880988D01*
X13054273Y8820364D01*
X13155544Y8712496D01*
X13222299Y8581779D01*
X13254884Y8437802D01*
X13254330Y8371885D01*
X13253644Y8290155D01*
G37*
G36*
X24922894Y9252741D02*
G01*
X24972161Y9185734D01*
X24980029Y9150133D01*
X24988195Y9062972D01*
X24993241Y8941194D01*
X24995373Y8794719D01*
X24994795Y8633468D01*
X24991713Y8467362D01*
X24986329Y8306320D01*
X24978849Y8160264D01*
X24969478Y8039114D01*
X24958420Y7952791D01*
X24945879Y7911214D01*
X24931152Y7897913D01*
X24899260Y7884317D01*
X24846059Y7875135D01*
X24763210Y7869567D01*
X24642372Y7866813D01*
X24475205Y7866072D01*
X24415439Y7866111D01*
X24267917Y7866984D01*
X24163860Y7869743D01*
X24094842Y7875354D01*
X24052437Y7884783D01*
X24028215Y7898995D01*
X24013752Y7918957D01*
X23994326Y7960982D01*
X23990859Y8016622D01*
X24028413Y8069179D01*
X24038002Y8077299D01*
X24076287Y8094291D01*
X24140264Y8104986D01*
X24239571Y8110548D01*
X24383849Y8112143D01*
X24696320Y8112143D01*
X24696320Y8654730D01*
X24696324Y8680246D01*
X24696768Y8860408D01*
X24698447Y8994564D01*
X24702063Y9090443D01*
X24708315Y9155777D01*
X24717905Y9198295D01*
X24731534Y9225729D01*
X24749901Y9245807D01*
X24776221Y9264690D01*
X24851612Y9280673D01*
X24922894Y9252741D01*
G37*
G36*
X26130615Y9250052D02*
G01*
X26200088Y9204532D01*
X26200088Y8690904D01*
X26200407Y8555065D01*
X26202935Y8388295D01*
X26209484Y8265284D01*
X26221815Y8179435D01*
X26241685Y8124148D01*
X26270856Y8092827D01*
X26311086Y8078873D01*
X26364135Y8075688D01*
X26445569Y8092968D01*
X26506570Y8151297D01*
X26528183Y8245087D01*
X26529020Y8259666D01*
X26553531Y8331408D01*
X26600752Y8389178D01*
X26655456Y8412897D01*
X26681662Y8408247D01*
X26740276Y8365811D01*
X26784261Y8292894D01*
X26801595Y8206480D01*
X26797792Y8145328D01*
X26756808Y8018782D01*
X26669757Y7920582D01*
X26535277Y7848905D01*
X26487214Y7835135D01*
X26355586Y7822548D01*
X26216966Y7835221D01*
X26099453Y7871686D01*
X26031916Y7919147D01*
X25970146Y7984185D01*
X25952325Y8011052D01*
X25936740Y8046403D01*
X25925418Y8094661D01*
X25917444Y8164181D01*
X25911904Y8263318D01*
X25907881Y8400427D01*
X25904462Y8583862D01*
X25904433Y8585660D01*
X25902587Y8753219D01*
X25902553Y8905302D01*
X25904204Y9032111D01*
X25907412Y9123848D01*
X25912051Y9170716D01*
X25921845Y9198249D01*
X25974678Y9256977D01*
X26049880Y9276282D01*
X26130615Y9250052D01*
G37*
G36*
X13622533Y11748078D02*
G01*
X13699140Y11717606D01*
X13790387Y11642378D01*
X13841400Y11592439D01*
X13878087Y11563020D01*
X13893438Y11566570D01*
X13896536Y11599413D01*
X13898265Y11623399D01*
X13931158Y11696399D01*
X13993995Y11738339D01*
X14071223Y11742779D01*
X14147289Y11703277D01*
X14162189Y11686759D01*
X14175690Y11659017D01*
X14185243Y11615169D01*
X14191513Y11547501D01*
X14195166Y11448298D01*
X14196869Y11309846D01*
X14197289Y11124429D01*
X14197199Y11039161D01*
X14196067Y10871867D01*
X14193165Y10748426D01*
X14187902Y10661220D01*
X14179687Y10602631D01*
X14167930Y10565040D01*
X14152040Y10540830D01*
X14082523Y10498983D01*
X13997024Y10496778D01*
X13919194Y10536079D01*
X13900426Y10557691D01*
X13884477Y10595610D01*
X13874971Y10656072D01*
X13870385Y10749780D01*
X13869194Y10887435D01*
X13867663Y10990262D01*
X13861692Y11114767D01*
X13852260Y11215046D01*
X13840492Y11275877D01*
X13800940Y11342627D01*
X13714542Y11400179D01*
X13596046Y11420432D01*
X13595694Y11420432D01*
X13516623Y11444951D01*
X13455961Y11505976D01*
X13431735Y11585407D01*
X13436625Y11612931D01*
X13477194Y11676568D01*
X13542754Y11727613D01*
X13613734Y11748526D01*
X13622533Y11748078D01*
G37*
G36*
X16309453Y8905007D02*
G01*
X16438358Y8841875D01*
X16543785Y8743432D01*
X16614545Y8612710D01*
X16642323Y8508476D01*
X16655557Y8335564D01*
X16629123Y8174580D01*
X16566198Y8034434D01*
X16469957Y7924037D01*
X16343575Y7852300D01*
X16331145Y7847998D01*
X16208704Y7817979D01*
X16102237Y7822664D01*
X15987008Y7862782D01*
X15958052Y7877660D01*
X15878023Y7932952D01*
X15803985Y8000593D01*
X15749566Y8067083D01*
X15728398Y8118923D01*
X15729311Y8127896D01*
X15758099Y8180730D01*
X15810715Y8228229D01*
X15864576Y8248849D01*
X15868941Y8248563D01*
X15919665Y8225745D01*
X15976538Y8177595D01*
X16058059Y8108002D01*
X16150696Y8072308D01*
X16232585Y8085568D01*
X16298074Y8144660D01*
X16341511Y8246463D01*
X16357246Y8387856D01*
X16356298Y8418853D01*
X16339979Y8524393D01*
X16308076Y8612590D01*
X16266677Y8664828D01*
X16184736Y8686636D01*
X16088386Y8665378D01*
X15992317Y8604285D01*
X15952042Y8570901D01*
X15881640Y8530202D01*
X15825287Y8532084D01*
X15771183Y8574985D01*
X15755664Y8594900D01*
X15738485Y8660049D01*
X15769938Y8733325D01*
X15851588Y8819483D01*
X15893766Y8852204D01*
X16025967Y8913203D01*
X16168259Y8929793D01*
X16309453Y8905007D01*
G37*
G36*
X12275584Y11756912D02*
G01*
X12428399Y11703017D01*
X12556298Y11604115D01*
X12653082Y11462722D01*
X12697914Y11347816D01*
X12729484Y11173273D01*
X12723454Y10999172D01*
X12682612Y10835285D01*
X12609746Y10691383D01*
X12507645Y10577238D01*
X12379097Y10502622D01*
X12281048Y10478133D01*
X12125767Y10472453D01*
X11972977Y10499370D01*
X11844884Y10556639D01*
X11828280Y10568070D01*
X11737080Y10652280D01*
X11681632Y10743338D01*
X11664148Y10831620D01*
X11686837Y10907503D01*
X11751911Y10961363D01*
X11785872Y10973778D01*
X11823747Y10971136D01*
X11869109Y10941558D01*
X11936745Y10878409D01*
X11983849Y10836636D01*
X12093393Y10773964D01*
X12193271Y10763249D01*
X12278059Y10802700D01*
X12342333Y10890527D01*
X12380670Y11024940D01*
X12385946Y11095974D01*
X12378391Y11208280D01*
X12356053Y11315427D01*
X12322760Y11400939D01*
X12282337Y11448344D01*
X12277302Y11450971D01*
X12168073Y11478259D01*
X12057801Y11453789D01*
X11955308Y11379420D01*
X11933927Y11358291D01*
X11849873Y11298374D01*
X11775394Y11289000D01*
X11704555Y11328975D01*
X11670725Y11373884D01*
X11659490Y11451715D01*
X11689887Y11535419D01*
X11756363Y11616606D01*
X11853362Y11686888D01*
X11975331Y11737879D01*
X12104050Y11763283D01*
X12275584Y11756912D01*
G37*
G36*
X18503154Y9260463D02*
G01*
X18659909Y9260014D01*
X18773263Y9258179D01*
X18851233Y9253981D01*
X18901839Y9246439D01*
X18933097Y9234574D01*
X18953026Y9217406D01*
X18969646Y9193955D01*
X18973404Y9188117D01*
X18998055Y9127365D01*
X18982985Y9070920D01*
X18963822Y9044351D01*
X18928265Y9025360D01*
X18865691Y9016554D01*
X18762312Y9014404D01*
X18571885Y9014404D01*
X18571885Y8476567D01*
X18571783Y8384958D01*
X18570620Y8218377D01*
X18567691Y8095459D01*
X18562411Y8008620D01*
X18554199Y7950275D01*
X18542468Y7912841D01*
X18526636Y7888731D01*
X18478446Y7852675D01*
X18399297Y7843161D01*
X18321132Y7883980D01*
X18305302Y7901868D01*
X18292153Y7930206D01*
X18282852Y7975018D01*
X18276750Y8043943D01*
X18273195Y8144624D01*
X18271539Y8284701D01*
X18271132Y8471817D01*
X18271132Y9014404D01*
X18079157Y9014404D01*
X18052768Y9014451D01*
X17961142Y9016922D01*
X17907140Y9026261D01*
X17876782Y9046743D01*
X17856089Y9082646D01*
X17849025Y9099158D01*
X17841455Y9153922D01*
X17874584Y9205681D01*
X17892403Y9222719D01*
X17918993Y9237626D01*
X17959625Y9248009D01*
X18022425Y9254676D01*
X18115521Y9258437D01*
X18247042Y9260100D01*
X18425116Y9260475D01*
X18503154Y9260463D01*
G37*
G36*
X11468957Y11104006D02*
G01*
X11467295Y11046185D01*
X11432614Y10864762D01*
X11356087Y10710265D01*
X11241651Y10588953D01*
X11093246Y10507081D01*
X11022286Y10485552D01*
X10850745Y10466546D01*
X10683925Y10489903D01*
X10532455Y10551920D01*
X10406962Y10648895D01*
X10318075Y10777127D01*
X10281253Y10869364D01*
X10244324Y11049589D01*
X10245283Y11077338D01*
X10591056Y11077338D01*
X10609833Y10935095D01*
X10659445Y10835186D01*
X10740739Y10775267D01*
X10760989Y10766968D01*
X10839748Y10742079D01*
X10901347Y10743835D01*
X10971024Y10771861D01*
X11036946Y10825351D01*
X11092037Y10920206D01*
X11123662Y11037054D01*
X11131169Y11161955D01*
X11113908Y11280969D01*
X11071228Y11380155D01*
X11002478Y11445572D01*
X10998478Y11447658D01*
X10891662Y11474841D01*
X10777502Y11461697D01*
X10680674Y11410886D01*
X10663977Y11395747D01*
X10626348Y11347145D01*
X10605438Y11282046D01*
X10594049Y11181383D01*
X10591056Y11077338D01*
X10245283Y11077338D01*
X10250341Y11223743D01*
X10295015Y11385102D01*
X10374057Y11526943D01*
X10483176Y11642542D01*
X10618085Y11725177D01*
X10774493Y11768124D01*
X10948111Y11764660D01*
X10962520Y11762229D01*
X11139952Y11706938D01*
X11280727Y11611676D01*
X11383429Y11478238D01*
X11446644Y11308416D01*
X11462631Y11161955D01*
X11468957Y11104006D01*
G37*
G36*
X9052208Y8903490D02*
G01*
X9116626Y8877697D01*
X9170959Y8832633D01*
X9193735Y8784601D01*
X9186559Y8755928D01*
X9163497Y8682994D01*
X9127417Y8575382D01*
X9081281Y8441913D01*
X9028052Y8291405D01*
X8992382Y8189658D01*
X8940872Y8033794D01*
X8903103Y7906951D01*
X8881180Y7816412D01*
X8877208Y7769460D01*
X8877746Y7767461D01*
X8918466Y7713944D01*
X9001879Y7667587D01*
X9055687Y7640888D01*
X9106527Y7587945D01*
X9105402Y7529703D01*
X9051055Y7471175D01*
X8999487Y7444056D01*
X8934855Y7428715D01*
X8892534Y7435860D01*
X8808054Y7473701D01*
X8727389Y7531128D01*
X8674002Y7593332D01*
X8657984Y7627697D01*
X8624060Y7712399D01*
X8580770Y7829106D01*
X8531216Y7968545D01*
X8478501Y8121445D01*
X8425726Y8278534D01*
X8375993Y8430542D01*
X8332403Y8568196D01*
X8298060Y8682225D01*
X8276064Y8763358D01*
X8269518Y8802323D01*
X8290982Y8855789D01*
X8351141Y8896053D01*
X8436645Y8895145D01*
X8439886Y8894340D01*
X8463700Y8887808D01*
X8483162Y8876895D01*
X8501084Y8854728D01*
X8520278Y8814435D01*
X8543555Y8749143D01*
X8573728Y8651980D01*
X8613608Y8516073D01*
X8666007Y8334549D01*
X8716205Y8160506D01*
X8806713Y8471255D01*
X8835427Y8567817D01*
X8880858Y8707369D01*
X8919958Y8804060D01*
X8956310Y8864698D01*
X8993499Y8896088D01*
X9035110Y8905039D01*
X9052208Y8903490D01*
G37*
G36*
X16650216Y15603635D02*
G01*
X17186821Y15603599D01*
X17673148Y15603501D01*
X18111714Y15603310D01*
X18505040Y15602998D01*
X18855644Y15602532D01*
X19166047Y15601883D01*
X19438768Y15601021D01*
X19676327Y15599915D01*
X19881243Y15598535D01*
X20056035Y15596850D01*
X20203223Y15594831D01*
X20325327Y15592448D01*
X20424865Y15589668D01*
X20504359Y15586464D01*
X20566326Y15582803D01*
X20613287Y15578657D01*
X20647761Y15573994D01*
X20672268Y15568784D01*
X20689327Y15562998D01*
X20701457Y15556604D01*
X20711179Y15549573D01*
X20730596Y15529497D01*
X20782185Y15469364D01*
X20859416Y15375979D01*
X20957836Y15254973D01*
X21072989Y15111978D01*
X21200421Y14952626D01*
X21335679Y14782548D01*
X21474307Y14607376D01*
X21611851Y14432742D01*
X21743858Y14264277D01*
X21865872Y14107613D01*
X21973440Y13968381D01*
X22062106Y13852214D01*
X22127418Y13764742D01*
X22164920Y13711598D01*
X22196883Y13629746D01*
X22178966Y13549512D01*
X22107271Y13471737D01*
X22097264Y13463984D01*
X22028996Y13423893D01*
X21970635Y13426199D01*
X21900335Y13470803D01*
X21897246Y13473462D01*
X21860107Y13513428D01*
X21794279Y13590713D01*
X21703881Y13700244D01*
X21593030Y13836948D01*
X21465844Y13995754D01*
X21326442Y14171588D01*
X21178941Y14359378D01*
X20526783Y15193492D01*
X16156919Y15193506D01*
X11787055Y15193521D01*
X11707134Y15273442D01*
X11669353Y15314744D01*
X11633209Y15383109D01*
X11645803Y15448067D01*
X11707134Y15523719D01*
X11787055Y15603640D01*
X16214750Y15603640D01*
X16650216Y15603635D01*
G37*
G36*
X17751048Y8388091D02*
G01*
X17750720Y8363663D01*
X17727847Y8178913D01*
X17668054Y8033258D01*
X17569964Y7924372D01*
X17432199Y7849930D01*
X17369028Y7832598D01*
X17247594Y7824652D01*
X17125737Y7842819D01*
X17014455Y7882598D01*
X16924744Y7939487D01*
X16867602Y8008985D01*
X16854026Y8086590D01*
X16862107Y8121206D01*
X16901490Y8174860D01*
X16964546Y8181230D01*
X17046478Y8139008D01*
X17122994Y8095243D01*
X17251304Y8071510D01*
X17288865Y8072220D01*
X17368080Y8087421D01*
X17416155Y8131526D01*
X17449464Y8216517D01*
X17474419Y8303532D01*
X17149195Y8303532D01*
X17117164Y8303579D01*
X16970246Y8306519D01*
X16869689Y8317077D01*
X16808498Y8339482D01*
X16779679Y8377965D01*
X16776236Y8436759D01*
X16789435Y8510389D01*
X17068118Y8510389D01*
X17068268Y8509774D01*
X17096811Y8502267D01*
X17165168Y8496944D01*
X17259507Y8494920D01*
X17267124Y8494924D01*
X17364940Y8496720D01*
X17420433Y8503973D01*
X17445215Y8519883D01*
X17450895Y8547650D01*
X17443248Y8585233D01*
X17407930Y8643344D01*
X17384829Y8659497D01*
X17310554Y8681558D01*
X17226312Y8684383D01*
X17161070Y8665384D01*
X17152579Y8658339D01*
X17116530Y8612407D01*
X17082940Y8554024D01*
X17068118Y8510389D01*
X16789435Y8510389D01*
X16791174Y8520093D01*
X16837544Y8660387D01*
X16921168Y8784079D01*
X17040360Y8870862D01*
X17167167Y8918535D01*
X17319119Y8932316D01*
X17457850Y8899357D01*
X17576883Y8824056D01*
X17669745Y8710812D01*
X17729958Y8564024D01*
X17731921Y8547650D01*
X17751048Y8388091D01*
G37*
G36*
X22055656Y18179709D02*
G01*
X22114528Y18139139D01*
X22171189Y18075856D01*
X22200052Y18025461D01*
X22202313Y17982489D01*
X22173790Y17924031D01*
X22145974Y17882496D01*
X22087973Y17803097D01*
X22005253Y17693286D01*
X21902283Y17558736D01*
X21783532Y17405116D01*
X21653468Y17238099D01*
X21516561Y17063355D01*
X21377278Y16886557D01*
X21240090Y16713375D01*
X21109464Y16549481D01*
X20989869Y16400546D01*
X20885774Y16272242D01*
X20801649Y16170239D01*
X20741961Y16100210D01*
X20711179Y16067825D01*
X20704040Y16062507D01*
X20692756Y16055955D01*
X20677179Y16050018D01*
X20654790Y16044666D01*
X20623071Y16039868D01*
X20579500Y16035594D01*
X20521559Y16031814D01*
X20446729Y16028497D01*
X20352489Y16025613D01*
X20236321Y16023132D01*
X20095704Y16021024D01*
X19928119Y16019258D01*
X19731047Y16017804D01*
X19501968Y16016632D01*
X19238363Y16015711D01*
X18937712Y16015011D01*
X18597495Y16014502D01*
X18215194Y16014153D01*
X17788288Y16013935D01*
X17314259Y16013816D01*
X16790586Y16013767D01*
X16214750Y16013758D01*
X11787055Y16013758D01*
X11707134Y16093678D01*
X11669353Y16134981D01*
X11633209Y16203346D01*
X11645803Y16268304D01*
X11707134Y16343956D01*
X11787055Y16423876D01*
X16156919Y16423961D01*
X20526783Y16424045D01*
X21182973Y17262120D01*
X21210299Y17296986D01*
X21357375Y17483470D01*
X21495818Y17657108D01*
X21621485Y17812837D01*
X21730235Y17945593D01*
X21817926Y18050310D01*
X21880415Y18121925D01*
X21913560Y18155374D01*
X21945829Y18177455D01*
X21998797Y18195399D01*
X22055656Y18179709D01*
G37*
G36*
X22141525Y9249008D02*
G01*
X22156205Y9236249D01*
X22169632Y9215176D01*
X22179512Y9180910D01*
X22186383Y9126538D01*
X22190788Y9045143D01*
X22193265Y8929812D01*
X22194355Y8773629D01*
X22194598Y8569680D01*
X22194560Y8512499D01*
X22193532Y8309677D01*
X22190854Y8154072D01*
X22186196Y8039690D01*
X22179233Y7960537D01*
X22169634Y7910620D01*
X22157074Y7883945D01*
X22151544Y7877730D01*
X22085897Y7842623D01*
X22011765Y7850402D01*
X21950077Y7899497D01*
X21940078Y7917258D01*
X21916798Y7994214D01*
X21907515Y8085417D01*
X21897564Y8181936D01*
X21867819Y8251034D01*
X21822494Y8276191D01*
X21817113Y8272796D01*
X21788248Y8235000D01*
X21743746Y8164202D01*
X21690768Y8071530D01*
X21681747Y8055288D01*
X21602229Y7932057D01*
X21529512Y7859741D01*
X21460134Y7835877D01*
X21390635Y7858003D01*
X21361674Y7882804D01*
X21341872Y7934160D01*
X21352313Y8008032D01*
X21394339Y8111115D01*
X21469296Y8250109D01*
X21508139Y8318230D01*
X21560047Y8418132D01*
X21584109Y8489292D01*
X21581143Y8543208D01*
X21551967Y8591377D01*
X21497397Y8645297D01*
X21435209Y8711311D01*
X21401960Y8783321D01*
X21415373Y8850356D01*
X21432636Y8876530D01*
X21482253Y8906042D01*
X21548028Y8891196D01*
X21633209Y8830727D01*
X21741046Y8723367D01*
X21907515Y8541695D01*
X21907515Y8860073D01*
X21907527Y8880131D01*
X21908798Y9013659D01*
X21913300Y9104801D01*
X21922633Y9164479D01*
X21938399Y9203616D01*
X21962198Y9233134D01*
X22007391Y9270308D01*
X22070223Y9284170D01*
X22141525Y9249008D01*
G37*
G36*
X22898455Y8903893D02*
G01*
X22996611Y8839996D01*
X23065739Y8770868D01*
X23095603Y8831118D01*
X23125703Y8868125D01*
X23192406Y8898844D01*
X23265066Y8897521D01*
X23321075Y8861147D01*
X23329105Y8845451D01*
X23341726Y8788999D01*
X23350252Y8694356D01*
X23355079Y8556051D01*
X23356600Y8368612D01*
X23356343Y8264190D01*
X23354360Y8120141D01*
X23349815Y8017987D01*
X23341990Y7949609D01*
X23330169Y7906885D01*
X23313635Y7881696D01*
X23310199Y7878403D01*
X23245035Y7845142D01*
X23171990Y7842930D01*
X23116677Y7872908D01*
X23116273Y7873436D01*
X23104783Y7914489D01*
X23093958Y7997927D01*
X23085000Y8111877D01*
X23079109Y8244465D01*
X23076075Y8341985D01*
X23070793Y8454302D01*
X23063031Y8529195D01*
X23050796Y8577138D01*
X23032093Y8608608D01*
X23004927Y8634078D01*
X22952367Y8666989D01*
X22857677Y8683490D01*
X22767154Y8647509D01*
X22757966Y8640129D01*
X22738325Y8614756D01*
X22724720Y8573562D01*
X22715588Y8506830D01*
X22709368Y8404847D01*
X22704497Y8257896D01*
X22704021Y8241533D01*
X22697906Y8107915D01*
X22688940Y7994213D01*
X22678252Y7912014D01*
X22666973Y7872908D01*
X22664399Y7869941D01*
X22607073Y7842099D01*
X22533720Y7846398D01*
X22469963Y7881696D01*
X22464663Y7888614D01*
X22445586Y7948006D01*
X22432325Y8046432D01*
X22424842Y8171465D01*
X22423097Y8310676D01*
X22427051Y8451636D01*
X22436666Y8581917D01*
X22451903Y8689091D01*
X22472722Y8760729D01*
X22483656Y8781255D01*
X22560998Y8864158D01*
X22665807Y8913729D01*
X22783239Y8927722D01*
X22898455Y8903893D01*
G37*
G36*
X13898713Y8902389D02*
G01*
X13997647Y8856340D01*
X14026107Y8836194D01*
X14069652Y8810563D01*
X14093430Y8815338D01*
X14114809Y8849504D01*
X14130405Y8869665D01*
X14192219Y8900572D01*
X14266743Y8902329D01*
X14328527Y8872229D01*
X14334959Y8861612D01*
X14346842Y8807764D01*
X14355047Y8709849D01*
X14359802Y8564357D01*
X14361336Y8367775D01*
X14361287Y8303683D01*
X14360338Y8147385D01*
X14357595Y8035154D01*
X14352298Y7959058D01*
X14343688Y7911166D01*
X14331005Y7883545D01*
X14313489Y7868262D01*
X14289176Y7855851D01*
X14203786Y7842707D01*
X14130889Y7881696D01*
X14127584Y7885218D01*
X14108309Y7920773D01*
X14096059Y7981272D01*
X14089557Y8076595D01*
X14087521Y8216626D01*
X14087195Y8260097D01*
X14081601Y8403880D01*
X14069811Y8512583D01*
X14052763Y8576490D01*
X14050423Y8580959D01*
X13985162Y8650066D01*
X13895864Y8680164D01*
X13801943Y8664445D01*
X13801152Y8664084D01*
X13772416Y8649149D01*
X13753078Y8628832D01*
X13741278Y8593271D01*
X13735154Y8532607D01*
X13732844Y8436980D01*
X13732488Y8296531D01*
X13732320Y8240805D01*
X13729383Y8101779D01*
X13722014Y8004845D01*
X13709198Y7940564D01*
X13689926Y7899497D01*
X13634835Y7852008D01*
X13558654Y7843327D01*
X13481735Y7883980D01*
X13474948Y7890564D01*
X13456089Y7918433D01*
X13443576Y7961600D01*
X13436172Y8029907D01*
X13432638Y8133195D01*
X13431735Y8281306D01*
X13432224Y8364254D01*
X13438043Y8526319D01*
X13452234Y8647676D01*
X13477047Y8737976D01*
X13514732Y8806876D01*
X13567538Y8864027D01*
X13579558Y8873666D01*
X13669644Y8911410D01*
X13782704Y8920865D01*
X13898713Y8902389D01*
G37*
G36*
X19609169Y9476914D02*
G01*
X19658032Y9460340D01*
X19697542Y9420280D01*
X19732098Y9349092D01*
X19766099Y9239132D01*
X19803942Y9082757D01*
X19865836Y8809345D01*
X19940312Y9103572D01*
X19966945Y9203508D01*
X19999766Y9313764D01*
X20028351Y9396357D01*
X20048568Y9438502D01*
X20079793Y9460402D01*
X20152601Y9477215D01*
X20231397Y9472844D01*
X20288914Y9446395D01*
X20291479Y9442469D01*
X20301961Y9394950D01*
X20310539Y9307379D01*
X20317035Y9191586D01*
X20321269Y9059399D01*
X20323062Y8922647D01*
X20322235Y8793160D01*
X20318609Y8682766D01*
X20312004Y8603295D01*
X20302241Y8566575D01*
X20273106Y8555912D01*
X20213382Y8555183D01*
X20184125Y8560113D01*
X20164218Y8573042D01*
X20151483Y8603299D01*
X20143727Y8660217D01*
X20138757Y8753130D01*
X20134379Y8891368D01*
X20124753Y9219463D01*
X20058933Y8921200D01*
X20034876Y8818371D01*
X20005665Y8708050D01*
X19979996Y8626003D01*
X19961535Y8584887D01*
X19938339Y8565750D01*
X19873816Y8554042D01*
X19805920Y8577607D01*
X19755857Y8631627D01*
X19750048Y8644633D01*
X19725812Y8715617D01*
X19697136Y8817343D01*
X19669051Y8932380D01*
X19616684Y9164781D01*
X19613768Y8890001D01*
X19609713Y8750449D01*
X19598748Y8650405D01*
X19578161Y8588993D01*
X19545167Y8558098D01*
X19496981Y8549603D01*
X19464934Y8555176D01*
X19433148Y8582672D01*
X19411748Y8638976D01*
X19399441Y8730493D01*
X19394932Y8863630D01*
X19396926Y9044794D01*
X19399881Y9158416D01*
X19406010Y9289066D01*
X19417066Y9378238D01*
X19436324Y9433864D01*
X19467058Y9463876D01*
X19512540Y9476206D01*
X19576045Y9478786D01*
X19609169Y9476914D01*
G37*
G36*
X15564350Y11119678D02*
G01*
X15554720Y11002145D01*
X15507889Y10836380D01*
X15428006Y10690929D01*
X15321612Y10576689D01*
X15195244Y10504559D01*
X15073607Y10473852D01*
X14898935Y10470619D01*
X14735488Y10514397D01*
X14594298Y10603370D01*
X14561908Y10633309D01*
X14496689Y10714740D01*
X14481078Y10784776D01*
X14513486Y10848225D01*
X14551669Y10882011D01*
X14605211Y10896672D01*
X14673508Y10875951D01*
X14768734Y10818427D01*
X14815246Y10789039D01*
X14887391Y10751559D01*
X14935537Y10736901D01*
X14941948Y10736987D01*
X15038993Y10756393D01*
X15124838Y10802007D01*
X15177805Y10862584D01*
X15202184Y10920821D01*
X15208919Y10963097D01*
X15189277Y10989645D01*
X15136181Y11004327D01*
X15042556Y11011007D01*
X14901326Y11013548D01*
X14797023Y11015545D01*
X14672488Y11020304D01*
X14572334Y11026788D01*
X14511713Y11034195D01*
X14483123Y11041169D01*
X14446671Y11061443D01*
X14429306Y11103810D01*
X14421224Y11184564D01*
X14420824Y11192024D01*
X14430792Y11287882D01*
X14752405Y11287882D01*
X14761155Y11269943D01*
X14795045Y11260562D01*
X14863923Y11256967D01*
X14977636Y11256384D01*
X15214842Y11256384D01*
X15196711Y11331573D01*
X15196587Y11332088D01*
X15157916Y11414819D01*
X15086751Y11460859D01*
X14975526Y11475114D01*
X14883353Y11462702D01*
X14806945Y11412355D01*
X14759176Y11317902D01*
X14758948Y11317154D01*
X14752405Y11287882D01*
X14430792Y11287882D01*
X14434883Y11327229D01*
X14482662Y11463246D01*
X14555622Y11581778D01*
X14645222Y11664527D01*
X14783706Y11731272D01*
X14950577Y11765620D01*
X15110176Y11752769D01*
X15255795Y11696696D01*
X15380728Y11601374D01*
X15478270Y11470781D01*
X15541713Y11308890D01*
X15547995Y11256384D01*
X15564350Y11119678D01*
G37*
G36*
X20466763Y11764427D02*
G01*
X20565528Y11740289D01*
X20695293Y11673333D01*
X20792190Y11577221D01*
X20849030Y11459934D01*
X20858627Y11329451D01*
X20838504Y11245452D01*
X20786988Y11161774D01*
X20699721Y11092832D01*
X20570393Y11033898D01*
X20392695Y10980242D01*
X20391747Y10979997D01*
X20291116Y10949612D01*
X20208161Y10916722D01*
X20160758Y10888406D01*
X20143204Y10866643D01*
X20135398Y10819359D01*
X20166832Y10780502D01*
X20226785Y10752577D01*
X20304534Y10738094D01*
X20389356Y10739557D01*
X20470529Y10759476D01*
X20537332Y10800356D01*
X20589571Y10846309D01*
X20671346Y10900162D01*
X20738824Y10913142D01*
X20802029Y10888591D01*
X20834343Y10861154D01*
X20866204Y10791976D01*
X20854799Y10713012D01*
X20804535Y10632876D01*
X20719818Y10560181D01*
X20605054Y10503539D01*
X20576749Y10494499D01*
X20430600Y10469489D01*
X20269357Y10468780D01*
X20120918Y10492981D01*
X20033142Y10527264D01*
X19919146Y10609942D01*
X19838894Y10718979D01*
X19799278Y10843810D01*
X19807191Y10973870D01*
X19843274Y11054163D01*
X19922009Y11132954D01*
X20044905Y11198510D01*
X20217042Y11254309D01*
X20334836Y11285325D01*
X20423518Y11309747D01*
X20477752Y11327489D01*
X20507206Y11342402D01*
X20521553Y11358337D01*
X20530462Y11379148D01*
X20534119Y11431189D01*
X20499081Y11473941D01*
X20433138Y11497312D01*
X20347657Y11499597D01*
X20254005Y11479095D01*
X20163550Y11434102D01*
X20123473Y11408096D01*
X20048157Y11372734D01*
X19990062Y11374203D01*
X19934264Y11410999D01*
X19930675Y11414320D01*
X19889070Y11482333D01*
X19901251Y11557346D01*
X19967330Y11640135D01*
X20041094Y11691788D01*
X20171381Y11742897D01*
X20319753Y11768723D01*
X20466763Y11764427D01*
G37*
G36*
X19622892Y11247073D02*
G01*
X19624523Y11119678D01*
X19623978Y11034534D01*
X19619465Y10933560D01*
X19607699Y10860527D01*
X19585510Y10799041D01*
X19549731Y10732709D01*
X19525441Y10694282D01*
X19444697Y10604721D01*
X19332468Y10534485D01*
X19167055Y10477432D01*
X18992058Y10468756D01*
X18823536Y10511904D01*
X18669118Y10606052D01*
X18600841Y10680169D01*
X18569345Y10759267D01*
X18581932Y10828560D01*
X18639655Y10878316D01*
X18644481Y10880472D01*
X18692986Y10893045D01*
X18742660Y10879737D01*
X18813605Y10835611D01*
X18907852Y10781894D01*
X19028597Y10747754D01*
X19134627Y10757049D01*
X19218499Y10808709D01*
X19272770Y10901661D01*
X19303794Y10996643D01*
X18942030Y11010313D01*
X18822897Y11015404D01*
X18685707Y11025207D01*
X18591301Y11040822D01*
X18532550Y11065833D01*
X18502322Y11103827D01*
X18493488Y11158387D01*
X18498916Y11233099D01*
X18502912Y11260025D01*
X18515684Y11311067D01*
X18845298Y11311067D01*
X18846648Y11293467D01*
X18859385Y11273408D01*
X18894547Y11262246D01*
X18962883Y11257424D01*
X19075138Y11256384D01*
X19178566Y11256893D01*
X19249246Y11260394D01*
X19284616Y11269792D01*
X19294823Y11287993D01*
X19290012Y11317902D01*
X19252309Y11405156D01*
X19181787Y11458440D01*
X19073461Y11475114D01*
X19037444Y11473317D01*
X18937525Y11445193D01*
X18870062Y11388654D01*
X18845298Y11311067D01*
X18515684Y11311067D01*
X18530888Y11371827D01*
X18570123Y11471660D01*
X18621998Y11553754D01*
X18735123Y11662080D01*
X18871727Y11732403D01*
X19021668Y11764403D01*
X19174807Y11757759D01*
X19321005Y11712149D01*
X19450121Y11627253D01*
X19552015Y11502749D01*
X19573807Y11464010D01*
X19600611Y11402982D01*
X19615947Y11336089D01*
X19619699Y11287993D01*
X19622892Y11247073D01*
G37*
G36*
X13880213Y14673802D02*
G01*
X14020665Y14671834D01*
X14119873Y14667175D01*
X14186499Y14658998D01*
X14229205Y14646479D01*
X14256654Y14628788D01*
X14257510Y14628007D01*
X14274259Y14608092D01*
X14286734Y14578483D01*
X14295554Y14531681D01*
X14301338Y14460189D01*
X14304704Y14356509D01*
X14306269Y14213145D01*
X14306654Y14022599D01*
X14306468Y13896948D01*
X14305144Y13734076D01*
X14302077Y13613877D01*
X14296719Y13528945D01*
X14288520Y13471870D01*
X14276931Y13435244D01*
X14261405Y13411659D01*
X14259346Y13409432D01*
X14236340Y13391149D01*
X14201709Y13378174D01*
X14146842Y13369622D01*
X14063130Y13364608D01*
X13941963Y13362249D01*
X13774731Y13361659D01*
X13630399Y13362226D01*
X13489509Y13365524D01*
X13390414Y13373333D01*
X13325899Y13387404D01*
X13288749Y13409487D01*
X13271750Y13441334D01*
X13267687Y13484694D01*
X13270991Y13523584D01*
X13289062Y13560350D01*
X13330029Y13584720D01*
X13401821Y13599122D01*
X13512369Y13605983D01*
X13669603Y13607730D01*
X14005900Y13607730D01*
X14005900Y13758107D01*
X14005900Y13908483D01*
X13738572Y13908483D01*
X13695256Y13908808D01*
X13538839Y13918021D01*
X13431439Y13940742D01*
X13369561Y13978073D01*
X13349711Y14031116D01*
X13357664Y14075688D01*
X13391590Y14113692D01*
X13458741Y14137949D01*
X13566130Y14150792D01*
X13720771Y14154554D01*
X14005900Y14154554D01*
X14005900Y14291261D01*
X14005900Y14427967D01*
X13686794Y14427967D01*
X13600935Y14428378D01*
X13481858Y14431728D01*
X13401708Y14439491D01*
X13350359Y14452906D01*
X13317687Y14473216D01*
X13281258Y14513616D01*
X13273007Y14564042D01*
X13312937Y14624038D01*
X13334533Y14642530D01*
X13367638Y14656375D01*
X13420167Y14665511D01*
X13500932Y14670874D01*
X13618745Y14673403D01*
X13782420Y14674038D01*
X13880213Y14673802D01*
G37*
G36*
X18705161Y14671932D02*
G01*
X18794562Y14659250D01*
X18856280Y14630299D01*
X18895393Y14578690D01*
X18916977Y14498030D01*
X18926108Y14381931D01*
X18927864Y14224000D01*
X18927321Y14017848D01*
X18927314Y13979665D01*
X18926829Y13801746D01*
X18925083Y13669291D01*
X18921366Y13574510D01*
X18914972Y13509613D01*
X18905191Y13466812D01*
X18891316Y13438318D01*
X18872639Y13416341D01*
X18866153Y13410087D01*
X18840219Y13391138D01*
X18804304Y13377868D01*
X18749469Y13369282D01*
X18666774Y13364383D01*
X18547280Y13362174D01*
X18382047Y13361659D01*
X18275047Y13361765D01*
X18140691Y13362867D01*
X18046940Y13366076D01*
X17985092Y13372487D01*
X17946445Y13383199D01*
X17922294Y13399307D01*
X17903937Y13421909D01*
X17891049Y13441389D01*
X17876221Y13488282D01*
X17898829Y13538109D01*
X17905905Y13547974D01*
X17929326Y13568871D01*
X17967128Y13582957D01*
X18029386Y13591971D01*
X18126176Y13597651D01*
X18267573Y13601736D01*
X18599227Y13609413D01*
X18599227Y13758948D01*
X18599227Y13908483D01*
X18337688Y13908483D01*
X18209566Y13910842D01*
X18094394Y13921538D01*
X18020818Y13942955D01*
X17981819Y13977358D01*
X17970378Y14027013D01*
X17970722Y14041907D01*
X17981302Y14090670D01*
X18012899Y14123238D01*
X18073895Y14142688D01*
X18172672Y14152101D01*
X18317612Y14154554D01*
X18599227Y14154554D01*
X18599227Y14291261D01*
X18599227Y14427967D01*
X18296676Y14427967D01*
X18239655Y14428224D01*
X18093935Y14433007D01*
X17993165Y14445501D01*
X17930124Y14467882D01*
X17897594Y14502323D01*
X17888355Y14551002D01*
X17898662Y14596759D01*
X17941240Y14645735D01*
X17952281Y14649654D01*
X18015678Y14659364D01*
X18119427Y14667091D01*
X18253043Y14672195D01*
X18406041Y14674038D01*
X18423007Y14674052D01*
X18583002Y14674736D01*
X18705161Y14671932D01*
G37*
G36*
X20019853Y14680096D02*
G01*
X20170553Y14621394D01*
X20294383Y14525065D01*
X20334505Y14471505D01*
X20356857Y14403541D01*
X20362736Y14304524D01*
X20362613Y14284043D01*
X20355504Y14196356D01*
X20331303Y14134213D01*
X20281472Y14073324D01*
X20185881Y14001818D01*
X20055907Y13948493D01*
X20008086Y13935231D01*
X19881458Y13900102D01*
X19762991Y13867220D01*
X19677341Y13837007D01*
X19608071Y13787745D01*
X19589968Y13726206D01*
X19621329Y13649779D01*
X19681585Y13590776D01*
X19776375Y13558574D01*
X19886287Y13565521D01*
X19999952Y13610608D01*
X20106005Y13692825D01*
X20173242Y13755896D01*
X20233954Y13791867D01*
X20283974Y13787560D01*
X20334398Y13745538D01*
X20344699Y13732506D01*
X20366081Y13659081D01*
X20345577Y13575600D01*
X20289721Y13492477D01*
X20205050Y13420126D01*
X20098096Y13368961D01*
X20040104Y13355940D01*
X19938431Y13343148D01*
X19828540Y13337109D01*
X19676991Y13350192D01*
X19531654Y13397156D01*
X19414765Y13472179D01*
X19331552Y13568994D01*
X19287242Y13681333D01*
X19287061Y13802925D01*
X19336237Y13927504D01*
X19373998Y13982076D01*
X19430098Y14036506D01*
X19505717Y14079511D01*
X19612419Y14117304D01*
X19761764Y14156095D01*
X19889451Y14188123D01*
X19983699Y14217857D01*
X20040467Y14246781D01*
X20068277Y14279344D01*
X20075653Y14319997D01*
X20075474Y14327179D01*
X20047535Y14397183D01*
X19973946Y14440482D01*
X19857557Y14455308D01*
X19849359Y14455278D01*
X19761781Y14447544D01*
X19691080Y14419070D01*
X19610852Y14359614D01*
X19582625Y14336089D01*
X19520545Y14287813D01*
X19479541Y14269391D01*
X19443975Y14276917D01*
X19398206Y14306482D01*
X19377509Y14323107D01*
X19341534Y14387302D01*
X19358809Y14462824D01*
X19429262Y14549121D01*
X19538049Y14626780D01*
X19690450Y14683155D01*
X19855435Y14700805D01*
X20019853Y14680096D01*
G37*
G36*
X15482327Y9233134D02*
G01*
X15494367Y9220008D01*
X15509292Y9196104D01*
X15520270Y9161363D01*
X15527901Y9108479D01*
X15532789Y9030144D01*
X15535535Y8919051D01*
X15536741Y8767891D01*
X15537009Y8569357D01*
X15536827Y8443874D01*
X15535479Y8267546D01*
X15532439Y8134802D01*
X15527261Y8038634D01*
X15519500Y7972033D01*
X15508710Y7927990D01*
X15494447Y7899497D01*
X15452199Y7860505D01*
X15386632Y7838731D01*
X15373606Y7839125D01*
X15317955Y7854962D01*
X15278721Y7898736D01*
X15253578Y7977016D01*
X15240199Y8096373D01*
X15236256Y8263378D01*
X15235216Y8376047D01*
X15228401Y8497719D01*
X15212175Y8579636D01*
X15183047Y8630538D01*
X15137525Y8659164D01*
X15072119Y8674254D01*
X15034228Y8679105D01*
X14979470Y8679004D01*
X14940979Y8661003D01*
X14915347Y8617748D01*
X14899166Y8541882D01*
X14889028Y8426050D01*
X14881525Y8262897D01*
X14879464Y8211502D01*
X14871694Y8064918D01*
X14860827Y7962763D01*
X14843996Y7897073D01*
X14818338Y7859883D01*
X14780986Y7843230D01*
X14729076Y7839150D01*
X14708011Y7839753D01*
X14669288Y7849444D01*
X14641902Y7876721D01*
X14623937Y7928998D01*
X14613477Y8013688D01*
X14608605Y8138205D01*
X14607407Y8309962D01*
X14608314Y8458088D01*
X14613595Y8599995D01*
X14626270Y8702673D01*
X14649323Y8774673D01*
X14685739Y8824545D01*
X14738503Y8860840D01*
X14810599Y8892108D01*
X14867182Y8911316D01*
X14948735Y8922413D01*
X15037596Y8906997D01*
X15058987Y8900609D01*
X15135601Y8867934D01*
X15185224Y8832039D01*
X15190312Y8826167D01*
X15207850Y8815778D01*
X15219930Y8835854D01*
X15229080Y8894455D01*
X15237831Y8999638D01*
X15242814Y9060459D01*
X15256156Y9156916D01*
X15275684Y9216175D01*
X15304575Y9250160D01*
X15352028Y9277878D01*
X15415916Y9280526D01*
X15482327Y9233134D01*
G37*
G36*
X10353625Y8260275D02*
G01*
X10298786Y8096614D01*
X10283828Y8068314D01*
X10191409Y7955965D01*
X10067827Y7888547D01*
X9913101Y7866072D01*
X9816741Y7871234D01*
X9751866Y7891371D01*
X9698414Y7933183D01*
X9662773Y7966656D01*
X9637594Y7978512D01*
X9631304Y7953508D01*
X9637318Y7896236D01*
X9658870Y7812761D01*
X9688874Y7739125D01*
X9719664Y7697531D01*
X9754357Y7683216D01*
X9843038Y7675967D01*
X9942195Y7692180D01*
X10027752Y7729366D01*
X10100039Y7767242D01*
X10188078Y7781556D01*
X10254684Y7751239D01*
X10281027Y7711511D01*
X10283858Y7640975D01*
X10245218Y7569078D01*
X10171416Y7505681D01*
X10068764Y7460648D01*
X9997132Y7443786D01*
X9827248Y7431575D01*
X9673428Y7458508D01*
X9543695Y7521277D01*
X9446070Y7616574D01*
X9388575Y7741092D01*
X9383238Y7768185D01*
X9373293Y7858483D01*
X9365861Y7981909D01*
X9360967Y8127494D01*
X9358633Y8284271D01*
X9358831Y8408480D01*
X9649043Y8408480D01*
X9658919Y8279146D01*
X9692096Y8188199D01*
X9752337Y8129433D01*
X9844771Y8104129D01*
X9953119Y8127057D01*
X10001761Y8155399D01*
X10041457Y8209101D01*
X10062183Y8293841D01*
X10068390Y8420975D01*
X10067601Y8448027D01*
X10041623Y8560476D01*
X9985461Y8639429D01*
X9908010Y8679656D01*
X9818163Y8675928D01*
X9724815Y8623013D01*
X9710274Y8610003D01*
X9672583Y8563197D01*
X9654579Y8502835D01*
X9649043Y8408480D01*
X9358831Y8408480D01*
X9358883Y8441271D01*
X9361741Y8587528D01*
X9367230Y8712072D01*
X9375373Y8803937D01*
X9386195Y8852154D01*
X9417692Y8885120D01*
X9484580Y8905202D01*
X9556379Y8893879D01*
X9609752Y8851247D01*
X9635536Y8815928D01*
X9660193Y8816647D01*
X9703976Y8854413D01*
X9762154Y8892251D01*
X9869377Y8922611D01*
X9985828Y8924483D01*
X10088317Y8895395D01*
X10165573Y8844761D01*
X10268097Y8730419D01*
X10335480Y8587805D01*
X10364923Y8427548D01*
X10364479Y8420975D01*
X10353625Y8260275D01*
G37*
G36*
X15325121Y14700382D02*
G01*
X15519719Y14671262D01*
X15687544Y14598214D01*
X15823508Y14484223D01*
X15922525Y14332272D01*
X15937847Y14292319D01*
X15964150Y14166248D01*
X15973844Y14017221D01*
X15966289Y13866148D01*
X15940844Y13733938D01*
X15929124Y13701920D01*
X15867806Y13597610D01*
X15780037Y13496046D01*
X15681251Y13413297D01*
X15586883Y13365432D01*
X15526131Y13350664D01*
X15363305Y13335179D01*
X15210684Y13352705D01*
X15085879Y13401958D01*
X15022873Y13439429D01*
X14968173Y13465051D01*
X14942130Y13462385D01*
X14935502Y13433360D01*
X14935483Y13431437D01*
X14912023Y13373580D01*
X14855885Y13345883D01*
X14784316Y13357053D01*
X14767968Y13364899D01*
X14743570Y13382831D01*
X14728489Y13412619D01*
X14720488Y13464968D01*
X14717328Y13550586D01*
X14716772Y13680179D01*
X14716868Y13728029D01*
X14720479Y13867879D01*
X14733913Y13963688D01*
X14763370Y14023757D01*
X14815051Y14056387D01*
X14895157Y14069878D01*
X15009890Y14072531D01*
X15137333Y14068368D01*
X15235232Y14052366D01*
X15296271Y14021713D01*
X15329393Y13973642D01*
X15334446Y13933492D01*
X15303652Y13878990D01*
X15234358Y13840832D01*
X15136324Y13826460D01*
X15135899Y13826460D01*
X15052390Y13816964D01*
X15018439Y13787365D01*
X15033605Y13735775D01*
X15097446Y13660309D01*
X15145035Y13618585D01*
X15211716Y13588137D01*
X15303863Y13580389D01*
X15334321Y13581416D01*
X15431254Y13595340D01*
X15507637Y13620350D01*
X15566710Y13667080D01*
X15625882Y13763563D01*
X15661365Y13886463D01*
X15672386Y14022321D01*
X15658170Y14157677D01*
X15617943Y14279073D01*
X15550932Y14373048D01*
X15534961Y14386817D01*
X15453199Y14428817D01*
X15335665Y14449301D01*
X15270057Y14453499D01*
X15203026Y14447768D01*
X15147806Y14420336D01*
X15079234Y14362709D01*
X15024834Y14319200D01*
X14936225Y14274511D01*
X14864446Y14271629D01*
X14816351Y14309916D01*
X14798796Y14388736D01*
X14799335Y14401839D01*
X14831897Y14492182D01*
X14907689Y14573552D01*
X15016700Y14639644D01*
X15148919Y14684154D01*
X15294336Y14700779D01*
X15325121Y14700382D01*
G37*
G36*
X26722862Y11725043D02*
G01*
X26778946Y11665063D01*
X26801011Y11587077D01*
X26794940Y11542975D01*
X26775642Y11454889D01*
X26746013Y11336347D01*
X26709028Y11197783D01*
X26667664Y11049626D01*
X26624898Y10902308D01*
X26583707Y10766261D01*
X26547068Y10651914D01*
X26517957Y10569699D01*
X26499352Y10530048D01*
X26493338Y10524142D01*
X26435454Y10500032D01*
X26347747Y10490830D01*
X26296656Y10493055D01*
X26246407Y10505886D01*
X26206728Y10536599D01*
X26173604Y10592385D01*
X26143016Y10680439D01*
X26110947Y10807955D01*
X26073381Y10982125D01*
X25996642Y11350385D01*
X25920805Y11023137D01*
X25890500Y10892383D01*
X25863302Y10775071D01*
X25842512Y10685439D01*
X25831098Y10636283D01*
X25803806Y10570147D01*
X25732992Y10510698D01*
X25624599Y10490830D01*
X25596087Y10491577D01*
X25524085Y10508023D01*
X25478447Y10552348D01*
X25467298Y10575433D01*
X25440031Y10649865D01*
X25404497Y10759885D01*
X25363760Y10894577D01*
X25320884Y11043028D01*
X25278933Y11194325D01*
X25240969Y11337553D01*
X25210057Y11461799D01*
X25189261Y11556149D01*
X25181643Y11609688D01*
X25197488Y11668831D01*
X25252579Y11725856D01*
X25330394Y11748526D01*
X25347987Y11747410D01*
X25395664Y11728375D01*
X25437036Y11680809D01*
X25475357Y11598277D01*
X25513879Y11474343D01*
X25555856Y11302575D01*
X25562803Y11272277D01*
X25592925Y11149652D01*
X25619858Y11053176D01*
X25640889Y10991966D01*
X25653306Y10975136D01*
X25663661Y11001596D01*
X25683028Y11072354D01*
X25707452Y11174879D01*
X25733986Y11297396D01*
X25749945Y11373421D01*
X25783388Y11518940D01*
X25814101Y11621205D01*
X25846483Y11687734D01*
X25884932Y11726049D01*
X25933847Y11743666D01*
X25997626Y11748108D01*
X26001964Y11748104D01*
X26060568Y11740384D01*
X26107397Y11713461D01*
X26146210Y11660329D01*
X26180763Y11573982D01*
X26214814Y11447416D01*
X26252120Y11273624D01*
X26326421Y10904327D01*
X26414566Y11282024D01*
X26446839Y11414839D01*
X26485791Y11552880D01*
X26522298Y11648551D01*
X26559766Y11708571D01*
X26601604Y11739657D01*
X26651218Y11748526D01*
X26722862Y11725043D01*
G37*
G36*
X23231329Y18179709D02*
G01*
X23265330Y18161013D01*
X23334131Y18096282D01*
X23370009Y18019676D01*
X23363938Y17947030D01*
X23348177Y17922252D01*
X23301521Y17856295D01*
X23227934Y17755370D01*
X23130869Y17624119D01*
X23013778Y17467182D01*
X22880112Y17289202D01*
X22733323Y17094820D01*
X22576863Y16888677D01*
X22446217Y16716854D01*
X22297713Y16521247D01*
X22161714Y16341793D01*
X22041662Y16183047D01*
X21940997Y16049566D01*
X21863159Y15945907D01*
X21811588Y15876624D01*
X21789726Y15846275D01*
X21785494Y15826086D01*
X21796678Y15788862D01*
X21828355Y15731338D01*
X21884006Y15647966D01*
X21967108Y15533194D01*
X22081142Y15381474D01*
X22207997Y15214401D01*
X22435863Y14914023D01*
X22633497Y14653045D01*
X22802886Y14428780D01*
X22946015Y14238544D01*
X23064869Y14079651D01*
X23161434Y13949415D01*
X23237695Y13845152D01*
X23295639Y13764176D01*
X23337249Y13703801D01*
X23364513Y13661341D01*
X23379415Y13634113D01*
X23383941Y13619429D01*
X23382242Y13608866D01*
X23354658Y13556751D01*
X23304021Y13496262D01*
X23247758Y13446755D01*
X23185674Y13421491D01*
X23122547Y13440806D01*
X23043794Y13505200D01*
X23029558Y13520415D01*
X22979814Y13579680D01*
X22903938Y13674083D01*
X22805906Y13798403D01*
X22689698Y13947418D01*
X22559292Y14115906D01*
X22418664Y14298644D01*
X22271793Y14490412D01*
X22122658Y14685986D01*
X21975235Y14880145D01*
X21833504Y15067667D01*
X21701442Y15243329D01*
X21583026Y15401911D01*
X21482235Y15538190D01*
X21403048Y15646943D01*
X21349441Y15722950D01*
X21325392Y15760988D01*
X21317212Y15783352D01*
X21317377Y15826297D01*
X21342252Y15882356D01*
X21396898Y15966047D01*
X21419697Y15998389D01*
X21492989Y16099426D01*
X21588939Y16228853D01*
X21703570Y16381528D01*
X21832907Y16552309D01*
X21972975Y16736052D01*
X22119797Y16927616D01*
X22269400Y17121858D01*
X22417806Y17313636D01*
X22561042Y17497808D01*
X22695130Y17669231D01*
X22816097Y17822763D01*
X22919966Y17953262D01*
X23002762Y18055584D01*
X23060510Y18124589D01*
X23089233Y18155132D01*
X23121780Y18177488D01*
X23174576Y18195391D01*
X23231329Y18179709D01*
G37*
G36*
X24247222Y11748505D02*
G01*
X24308551Y11740713D01*
X24357242Y11714051D01*
X24397214Y11661445D01*
X24432385Y11575821D01*
X24466672Y11450105D01*
X24503995Y11277225D01*
X24577211Y10914619D01*
X24664829Y11282371D01*
X24673320Y11317394D01*
X24709006Y11452996D01*
X24743926Y11569476D01*
X24774457Y11655397D01*
X24796974Y11699324D01*
X24830355Y11726637D01*
X24903524Y11744764D01*
X24975345Y11723462D01*
X25030021Y11669525D01*
X25051756Y11589746D01*
X25050092Y11570787D01*
X25036020Y11496794D01*
X25010180Y11387117D01*
X24975682Y11252854D01*
X24935635Y11105100D01*
X24893149Y10954952D01*
X24851334Y10813507D01*
X24813300Y10691860D01*
X24782156Y10601108D01*
X24761014Y10552348D01*
X24736657Y10522182D01*
X24685788Y10497433D01*
X24600626Y10490830D01*
X24546171Y10493239D01*
X24496172Y10506259D01*
X24456747Y10537126D01*
X24423851Y10593036D01*
X24393436Y10681184D01*
X24361458Y10808764D01*
X24323869Y10982972D01*
X24246800Y11352079D01*
X24182056Y11064996D01*
X24142938Y10893152D01*
X24107381Y10746537D01*
X24076835Y10640713D01*
X24047741Y10569032D01*
X24016544Y10524850D01*
X23979686Y10501519D01*
X23933611Y10492395D01*
X23874761Y10490830D01*
X23844982Y10491643D01*
X23774055Y10508162D01*
X23729366Y10552348D01*
X23718288Y10575541D01*
X23691049Y10650209D01*
X23655492Y10760440D01*
X23614691Y10895304D01*
X23571721Y11043870D01*
X23529657Y11195209D01*
X23491573Y11338391D01*
X23460544Y11462484D01*
X23439644Y11556560D01*
X23431947Y11609688D01*
X23447746Y11668927D01*
X23502776Y11725882D01*
X23580556Y11748526D01*
X23597526Y11747497D01*
X23645788Y11728621D01*
X23687631Y11681067D01*
X23726306Y11598432D01*
X23765065Y11474316D01*
X23807157Y11302317D01*
X23813865Y11273061D01*
X23844007Y11150448D01*
X23871038Y11053900D01*
X23892224Y10992561D01*
X23904830Y10975576D01*
X23916169Y11004944D01*
X23935841Y11077916D01*
X23960376Y11182405D01*
X23986913Y11306858D01*
X24004545Y11390000D01*
X24041997Y11537248D01*
X24080610Y11639908D01*
X24124337Y11704796D01*
X24177129Y11738730D01*
X24242937Y11748526D01*
X24247222Y11748505D01*
G37*
G36*
X12939823Y14212595D02*
G01*
X12939593Y14004178D01*
X12939573Y13944339D01*
X12939017Y13768991D01*
X12937180Y13638440D01*
X12933380Y13545011D01*
X12926936Y13481027D01*
X12917164Y13438815D01*
X12903383Y13410698D01*
X12884910Y13389000D01*
X12836953Y13351760D01*
X12763232Y13338450D01*
X12688839Y13379567D01*
X12669522Y13401838D01*
X12650785Y13448440D01*
X12641403Y13523205D01*
X12638839Y13639309D01*
X12638839Y13853801D01*
X12435330Y13853801D01*
X12427500Y13853796D01*
X12322765Y13851628D01*
X12257608Y13843115D01*
X12217836Y13824752D01*
X12189259Y13793035D01*
X12179415Y13775636D01*
X12155982Y13698171D01*
X12146697Y13605334D01*
X12145143Y13569491D01*
X12119935Y13464113D01*
X12070428Y13385487D01*
X12005116Y13340380D01*
X11932495Y13335560D01*
X11861058Y13377792D01*
X11851201Y13389013D01*
X11832643Y13430675D01*
X11827466Y13497325D01*
X11833942Y13603357D01*
X11842539Y13683104D01*
X11868705Y13821854D01*
X11906184Y13913806D01*
X11956651Y13963884D01*
X11971106Y13972526D01*
X11984036Y13993329D01*
X11965853Y14026055D01*
X11911889Y14083141D01*
X11891102Y14104415D01*
X11844088Y14164418D01*
X11823289Y14227571D01*
X11819627Y14299373D01*
X12123036Y14299373D01*
X12128702Y14214214D01*
X12169356Y14145121D01*
X12175850Y14139695D01*
X12225682Y14116200D01*
X12306163Y14103611D01*
X12429097Y14099872D01*
X12638839Y14099872D01*
X12638839Y14263919D01*
X12638839Y14427967D01*
X12422062Y14427967D01*
X12391557Y14427819D01*
X12277040Y14422702D01*
X12204123Y14409008D01*
X12162321Y14385002D01*
X12153122Y14374596D01*
X12123036Y14299373D01*
X11819627Y14299373D01*
X11818602Y14319475D01*
X11819025Y14356878D01*
X11827766Y14434207D01*
X11855487Y14490612D01*
X11912168Y14550766D01*
X11918448Y14556636D01*
X11972902Y14601308D01*
X12031160Y14633123D01*
X12103388Y14654191D01*
X12199751Y14666625D01*
X12330417Y14672537D01*
X12505551Y14674038D01*
X12514152Y14674042D01*
X12647306Y14674368D01*
X12749393Y14670813D01*
X12824528Y14657032D01*
X12876821Y14626677D01*
X12910384Y14573402D01*
X12929331Y14490861D01*
X12937774Y14372708D01*
X12939166Y14263919D01*
X12939823Y14212595D01*
G37*
G36*
X16996911Y14687339D02*
G01*
X17096298Y14683001D01*
X17168028Y14670576D01*
X17229923Y14646118D01*
X17299802Y14605685D01*
X17413709Y14514219D01*
X17514549Y14375876D01*
X17555043Y14298284D01*
X17582145Y14222321D01*
X17594325Y14137277D01*
X17596840Y14020440D01*
X17595759Y13971883D01*
X17567625Y13771305D01*
X17500645Y13608123D01*
X17393741Y13480389D01*
X17245836Y13386153D01*
X17241022Y13383961D01*
X17112757Y13346052D01*
X16972137Y13335827D01*
X16834900Y13351545D01*
X16716788Y13391465D01*
X16633539Y13453849D01*
X16633330Y13454101D01*
X16605231Y13479912D01*
X16580686Y13469595D01*
X16545082Y13417072D01*
X16491054Y13352410D01*
X16434295Y13338405D01*
X16372870Y13377282D01*
X16353190Y13408150D01*
X16339326Y13465085D01*
X16332028Y13556211D01*
X16329905Y13691707D01*
X16329906Y13696057D01*
X16333005Y13845932D01*
X16346796Y13949806D01*
X16378285Y14016041D01*
X16434479Y14052999D01*
X16522386Y14069042D01*
X16649011Y14072531D01*
X16674284Y14072423D01*
X16788878Y14067274D01*
X16863100Y14052912D01*
X16908753Y14027281D01*
X16939161Y13992382D01*
X16955646Y13930549D01*
X16926166Y13877503D01*
X16856328Y13840416D01*
X16751741Y13826460D01*
X16748943Y13826454D01*
X16665391Y13816741D01*
X16631481Y13787163D01*
X16646711Y13735695D01*
X16710579Y13660309D01*
X16713861Y13657045D01*
X16773209Y13608448D01*
X16837085Y13585901D01*
X16930271Y13580389D01*
X17024715Y13587941D01*
X17141830Y13630771D01*
X17223476Y13713135D01*
X17271275Y13836962D01*
X17286848Y14004178D01*
X17277557Y14129887D01*
X17232566Y14277920D01*
X17151045Y14386955D01*
X17106083Y14416879D01*
X17034071Y14436148D01*
X16925545Y14441637D01*
X16841729Y14439890D01*
X16778303Y14429145D01*
X16732784Y14401897D01*
X16685424Y14350665D01*
X16653551Y14315331D01*
X16595894Y14274506D01*
X16533966Y14268641D01*
X16509560Y14272827D01*
X16441436Y14308070D01*
X16414551Y14367255D01*
X16427958Y14441992D01*
X16480712Y14523894D01*
X16571864Y14604572D01*
X16613655Y14632870D01*
X16669447Y14662734D01*
X16729421Y14679218D01*
X16810402Y14686238D01*
X16929217Y14687708D01*
X16996911Y14687339D01*
G37*
G36*
X16940110Y11014751D02*
G01*
X16916398Y10878860D01*
X16866503Y10766014D01*
X16784672Y10659115D01*
X16756611Y10631117D01*
X16633302Y10551979D01*
X16490980Y10513352D01*
X16344838Y10517664D01*
X16210073Y10567341D01*
X16111175Y10625692D01*
X16111175Y10520278D01*
X16114603Y10465505D01*
X16149063Y10368133D01*
X16221744Y10309634D01*
X16334096Y10288502D01*
X16374149Y10289068D01*
X16473227Y10309408D01*
X16575949Y10364540D01*
X16647339Y10403974D01*
X16741039Y10424224D01*
X16813082Y10395681D01*
X16861283Y10318697D01*
X16862668Y10314703D01*
X16872849Y10262420D01*
X16855481Y10217236D01*
X16803044Y10158454D01*
X16786327Y10143078D01*
X16692137Y10080538D01*
X16585603Y10036524D01*
X16534607Y10024385D01*
X16370878Y10010264D01*
X16208101Y10028829D01*
X16058916Y10076491D01*
X15935966Y10149664D01*
X15851892Y10244759D01*
X15840477Y10265933D01*
X15825420Y10302790D01*
X15813951Y10349509D01*
X15805431Y10413560D01*
X15799224Y10502414D01*
X15794691Y10623540D01*
X15791197Y10784408D01*
X15788104Y10992488D01*
X15786678Y11105962D01*
X15786580Y11116885D01*
X16111175Y11116885D01*
X16124055Y10980623D01*
X16165983Y10881145D01*
X16238512Y10821940D01*
X16315913Y10797811D01*
X16429240Y10799234D01*
X16525100Y10843850D01*
X16544915Y10861241D01*
X16568943Y10893932D01*
X16582426Y10941294D01*
X16588337Y11016657D01*
X16589646Y11133349D01*
X16589280Y11206473D01*
X16585680Y11297699D01*
X16575764Y11355285D01*
X16556561Y11392558D01*
X16525100Y11422847D01*
X16510492Y11433293D01*
X16419418Y11467226D01*
X16313777Y11473031D01*
X16221618Y11448350D01*
X16203012Y11435329D01*
X16154513Y11363813D01*
X16122640Y11253882D01*
X16111175Y11116885D01*
X15786580Y11116885D01*
X15785045Y11288210D01*
X15785223Y11426287D01*
X15787591Y11527119D01*
X15792527Y11597633D01*
X15800408Y11644754D01*
X15811612Y11675409D01*
X15826518Y11696524D01*
X15860882Y11723178D01*
X15931623Y11742948D01*
X16004273Y11735290D01*
X16060966Y11703401D01*
X16083834Y11650479D01*
X16089697Y11634583D01*
X16120502Y11641818D01*
X16183638Y11685162D01*
X16282161Y11739099D01*
X16421780Y11765539D01*
X16567263Y11746814D01*
X16704846Y11682980D01*
X16801627Y11601375D01*
X16882586Y11480329D01*
X16929082Y11326689D01*
X16944209Y11133349D01*
X16940110Y11014751D01*
G37*
G36*
X22497363Y11748505D02*
G01*
X22558687Y11740715D01*
X22607382Y11714053D01*
X22647369Y11661446D01*
X22682566Y11575821D01*
X22716892Y11450105D01*
X22754268Y11277225D01*
X22827598Y10914619D01*
X22916178Y11283558D01*
X22925077Y11319985D01*
X22960919Y11455468D01*
X22995786Y11571622D01*
X23026082Y11657089D01*
X23048210Y11700512D01*
X23082071Y11727960D01*
X23154778Y11745053D01*
X23226088Y11722919D01*
X23280352Y11668464D01*
X23301918Y11588591D01*
X23300365Y11570065D01*
X23286524Y11496022D01*
X23260888Y11386334D01*
X23226561Y11252096D01*
X23186647Y11104401D01*
X23144251Y10954342D01*
X23102477Y10813014D01*
X23064430Y10691510D01*
X23033214Y10600923D01*
X23011933Y10552348D01*
X22989679Y10524545D01*
X22938492Y10497991D01*
X22853505Y10490830D01*
X22829786Y10491481D01*
X22750292Y10504130D01*
X22703019Y10528699D01*
X22699713Y10533855D01*
X22680135Y10584862D01*
X22653205Y10675606D01*
X22622035Y10795006D01*
X22589737Y10931982D01*
X22581349Y10969379D01*
X22551708Y11100708D01*
X22526695Y11210293D01*
X22508730Y11287591D01*
X22500232Y11322057D01*
X22493801Y11312789D01*
X22478246Y11260428D01*
X22456492Y11172437D01*
X22431090Y11058539D01*
X22395811Y10896018D01*
X22365051Y10763311D01*
X22339883Y10668746D01*
X22317879Y10604209D01*
X22296607Y10561587D01*
X22273638Y10532764D01*
X22268356Y10528022D01*
X22206512Y10501277D01*
X22124039Y10491965D01*
X22044930Y10500540D01*
X21993179Y10527455D01*
X21976219Y10562041D01*
X21947396Y10641706D01*
X21910943Y10754681D01*
X21869798Y10890560D01*
X21826903Y11038935D01*
X21785197Y11189401D01*
X21747620Y11331549D01*
X21717111Y11454973D01*
X21696611Y11549267D01*
X21689058Y11604023D01*
X21702550Y11673140D01*
X21756975Y11729243D01*
X21850405Y11748526D01*
X21870401Y11746602D01*
X21911354Y11725488D01*
X21947980Y11675900D01*
X21983251Y11591417D01*
X22020138Y11465619D01*
X22061611Y11292084D01*
X22065125Y11276522D01*
X22094635Y11153567D01*
X22121320Y11055064D01*
X22142370Y10990700D01*
X22154976Y10970160D01*
X22166712Y10998337D01*
X22186005Y11069744D01*
X22209904Y11173249D01*
X22235697Y11297841D01*
X22255190Y11392406D01*
X22291876Y11538650D01*
X22330145Y11640618D01*
X22373863Y11705077D01*
X22426893Y11738792D01*
X22493098Y11748526D01*
X22497363Y11748505D01*
G37*
G36*
X18333712Y11027706D02*
G01*
X18306736Y10870668D01*
X18247678Y10742548D01*
X18151876Y10630657D01*
X18122810Y10606216D01*
X17995792Y10540455D01*
X17850437Y10514361D01*
X17703209Y10529192D01*
X17570576Y10586208D01*
X17549949Y10599514D01*
X17518856Y10612348D01*
X17507286Y10589644D01*
X17505578Y10521831D01*
X17509193Y10464944D01*
X17543759Y10367710D01*
X17616299Y10309484D01*
X17728499Y10288502D01*
X17753053Y10288480D01*
X17859552Y10306349D01*
X17964940Y10360959D01*
X18004110Y10385379D01*
X18074144Y10421812D01*
X18120169Y10436148D01*
X18141995Y10431859D01*
X18199645Y10395794D01*
X18249737Y10340243D01*
X18271132Y10286202D01*
X18270482Y10276722D01*
X18239697Y10210341D01*
X18172552Y10140543D01*
X18082533Y10078983D01*
X17983129Y10037317D01*
X17937884Y10026137D01*
X17764029Y10008323D01*
X17596387Y10027308D01*
X17445784Y10079693D01*
X17323046Y10162077D01*
X17239001Y10271058D01*
X17222134Y10306212D01*
X17206368Y10347755D01*
X17194820Y10396208D01*
X17186836Y10459533D01*
X17181764Y10545692D01*
X17178950Y10662646D01*
X17177741Y10818358D01*
X17177483Y11020789D01*
X17177485Y11039855D01*
X17177723Y11133349D01*
X17505578Y11133349D01*
X17507664Y11074418D01*
X17531348Y10945452D01*
X17579103Y10854811D01*
X17648024Y10809103D01*
X17708371Y10798167D01*
X17805446Y10795697D01*
X17882095Y10809883D01*
X17902176Y10821046D01*
X17951327Y10884131D01*
X17982413Y10980022D01*
X17995624Y11094619D01*
X17991146Y11213826D01*
X17969167Y11323545D01*
X17929876Y11409679D01*
X17873459Y11458130D01*
X17804379Y11472091D01*
X17709040Y11472950D01*
X17629838Y11458130D01*
X17602565Y11442011D01*
X17551585Y11372444D01*
X17517805Y11265765D01*
X17505578Y11133349D01*
X17177723Y11133349D01*
X17177996Y11240576D01*
X17179717Y11394158D01*
X17183112Y11507558D01*
X17188647Y11587737D01*
X17196785Y11641652D01*
X17207992Y11676262D01*
X17222732Y11698526D01*
X17253537Y11723475D01*
X17325276Y11743413D01*
X17398447Y11730512D01*
X17455337Y11689784D01*
X17478236Y11626239D01*
X17480484Y11619110D01*
X17508004Y11625134D01*
X17559802Y11666075D01*
X17598995Y11698302D01*
X17723888Y11757354D01*
X17861019Y11768325D01*
X18000762Y11731532D01*
X18133490Y11647290D01*
X18143950Y11638211D01*
X18234908Y11541711D01*
X18293648Y11434709D01*
X18325686Y11303242D01*
X18336539Y11133349D01*
X18335503Y11094619D01*
X18333712Y11027706D01*
G37*
G36*
X9547487Y11736137D02*
G01*
X9645191Y11666264D01*
X9646400Y11664929D01*
X9681148Y11631907D01*
X9707462Y11636241D01*
X9746176Y11680964D01*
X9749513Y11685107D01*
X9821825Y11738406D01*
X9901084Y11740519D01*
X9975667Y11690940D01*
X9991308Y11670787D01*
X10005416Y11640289D01*
X10015359Y11595082D01*
X10021851Y11527172D01*
X10025605Y11428564D01*
X10027334Y11291264D01*
X10027752Y11107280D01*
X10027404Y10976314D01*
X10025293Y10814703D01*
X10020865Y10696538D01*
X10013660Y10615011D01*
X10003218Y10563312D01*
X9989080Y10534635D01*
X9944432Y10504206D01*
X9853003Y10496283D01*
X9832798Y10498482D01*
X9778185Y10513593D01*
X9738878Y10546520D01*
X9712461Y10604619D01*
X9696517Y10695242D01*
X9688632Y10825743D01*
X9686390Y11003478D01*
X9686069Y11095451D01*
X9683967Y11218074D01*
X9678767Y11301840D01*
X9669141Y11356793D01*
X9653762Y11392976D01*
X9631304Y11420432D01*
X9612997Y11436006D01*
X9532188Y11469522D01*
X9444432Y11468597D01*
X9373515Y11432149D01*
X9371480Y11430030D01*
X9354436Y11401312D01*
X9342687Y11352723D01*
X9335367Y11275567D01*
X9331610Y11161148D01*
X9330551Y11000773D01*
X9330453Y10955679D01*
X9327104Y10785300D01*
X9317445Y10661152D01*
X9299389Y10576433D01*
X9270845Y10524341D01*
X9229726Y10498074D01*
X9173941Y10490830D01*
X9160316Y10490994D01*
X9100442Y10498947D01*
X9057718Y10524257D01*
X9029351Y10574371D01*
X9012547Y10656734D01*
X9004513Y10778793D01*
X9002456Y10947995D01*
X9001886Y11047385D01*
X8996367Y11206218D01*
X8982726Y11320853D01*
X8958221Y11398154D01*
X8920112Y11444985D01*
X8865656Y11468211D01*
X8792112Y11474696D01*
X8766353Y11474027D01*
X8711517Y11462613D01*
X8672044Y11431651D01*
X8645527Y11374137D01*
X8629564Y11283062D01*
X8621749Y11151421D01*
X8619679Y10972206D01*
X8619514Y10911980D01*
X8616064Y10753160D01*
X8606229Y10639434D01*
X8587505Y10563571D01*
X8557386Y10518338D01*
X8513368Y10496502D01*
X8452944Y10490830D01*
X8414972Y10493224D01*
X8368972Y10509220D01*
X8335802Y10546097D01*
X8313469Y10610602D01*
X8299983Y10709479D01*
X8293352Y10849473D01*
X8291584Y11037329D01*
X8293169Y11215010D01*
X8300309Y11366657D01*
X8315836Y11479825D01*
X8342573Y11562974D01*
X8383341Y11624561D01*
X8440962Y11673044D01*
X8518256Y11716882D01*
X8548520Y11730948D01*
X8690226Y11765459D01*
X8824987Y11746901D01*
X8948075Y11675724D01*
X9028502Y11608049D01*
X9122302Y11679594D01*
X9167570Y11709651D01*
X9294200Y11758200D01*
X9425665Y11766906D01*
X9547487Y11736137D01*
G37*
G36*
X24066720Y15463941D02*
G01*
X24066463Y15011181D01*
X24065852Y14609048D01*
X24064861Y14255171D01*
X24063466Y13947176D01*
X24061639Y13682691D01*
X24059355Y13459344D01*
X24056589Y13274762D01*
X24053316Y13126574D01*
X24049508Y13012405D01*
X24045142Y12929884D01*
X24040190Y12876639D01*
X24034629Y12850297D01*
X23988208Y12757527D01*
X23897660Y12642587D01*
X23783411Y12567954D01*
X23769703Y12562522D01*
X23752185Y12557394D01*
X23728993Y12552672D01*
X23697996Y12548339D01*
X23657064Y12544377D01*
X23604066Y12540768D01*
X23536870Y12537494D01*
X23453347Y12534539D01*
X23351364Y12531885D01*
X23228793Y12529514D01*
X23083501Y12527409D01*
X22913357Y12525551D01*
X22716232Y12523925D01*
X22489994Y12522511D01*
X22232513Y12521293D01*
X21941657Y12520253D01*
X21615296Y12519374D01*
X21251298Y12518638D01*
X20847534Y12518026D01*
X20401873Y12517523D01*
X19912183Y12517110D01*
X19376334Y12516770D01*
X18792195Y12516486D01*
X18157635Y12516239D01*
X17470523Y12516012D01*
X17454860Y12516007D01*
X16763584Y12515822D01*
X16124866Y12515719D01*
X15536626Y12515712D01*
X14996784Y12515815D01*
X14503260Y12516040D01*
X14053974Y12516400D01*
X13646847Y12516910D01*
X13279799Y12517582D01*
X12950751Y12518429D01*
X12657623Y12519466D01*
X12398334Y12520704D01*
X12170805Y12522157D01*
X11972958Y12523839D01*
X11802711Y12525762D01*
X11657985Y12527941D01*
X11536700Y12530388D01*
X11436777Y12533116D01*
X11356136Y12536138D01*
X11292697Y12539469D01*
X11244381Y12543121D01*
X11209108Y12547107D01*
X11184798Y12551441D01*
X11169371Y12556135D01*
X11065198Y12609663D01*
X10979292Y12688092D01*
X10913081Y12801164D01*
X10905781Y12818685D01*
X10898593Y12841744D01*
X10892254Y12871814D01*
X10886710Y12912073D01*
X10881908Y12965700D01*
X10877796Y13035872D01*
X10874319Y13125768D01*
X10871426Y13238566D01*
X10869062Y13377443D01*
X10867175Y13545578D01*
X10865712Y13746148D01*
X10864619Y13982333D01*
X10863845Y14257310D01*
X10863334Y14574257D01*
X10863036Y14936352D01*
X10862895Y15346773D01*
X10862860Y15808699D01*
X10862860Y15814782D01*
X11162413Y15814782D01*
X11162441Y15500082D01*
X11162606Y15071225D01*
X11162961Y14691938D01*
X11163549Y14359150D01*
X11164415Y14069794D01*
X11165603Y13820800D01*
X11167157Y13609098D01*
X11169122Y13431621D01*
X11171543Y13285300D01*
X11174464Y13167064D01*
X11177929Y13073846D01*
X11181983Y13002576D01*
X11186670Y12950185D01*
X11192035Y12913605D01*
X11198122Y12889767D01*
X11204975Y12875600D01*
X11247537Y12814834D01*
X17464566Y12814834D01*
X23681594Y12814834D01*
X23724156Y12875600D01*
X23728809Y12884113D01*
X23735147Y12904381D01*
X23740748Y12936367D01*
X23745656Y12983137D01*
X23749917Y13047763D01*
X23753573Y13133312D01*
X23756671Y13242854D01*
X23759254Y13379458D01*
X23761366Y13546192D01*
X23763053Y13746126D01*
X23764358Y13982328D01*
X23765326Y14257868D01*
X23766002Y14575815D01*
X23766430Y14939237D01*
X23766654Y15351203D01*
X23766719Y15814782D01*
X23766715Y16070698D01*
X23766667Y16501500D01*
X23766515Y16882458D01*
X23766200Y17216709D01*
X23765666Y17507386D01*
X23764852Y17757627D01*
X23763700Y17970568D01*
X23762153Y18149343D01*
X23760151Y18297088D01*
X23757636Y18416940D01*
X23754550Y18512035D01*
X23750834Y18585507D01*
X23746429Y18640493D01*
X23741278Y18680128D01*
X23735322Y18707549D01*
X23728501Y18725891D01*
X23720759Y18738289D01*
X23712036Y18747881D01*
X23706090Y18753426D01*
X23697818Y18759056D01*
X23685656Y18764239D01*
X23667487Y18768994D01*
X23641195Y18773338D01*
X23604663Y18777290D01*
X23555776Y18780868D01*
X23492416Y18784092D01*
X23412467Y18786980D01*
X23313813Y18789549D01*
X23194338Y18791820D01*
X23051926Y18793810D01*
X22884460Y18795537D01*
X22689823Y18797021D01*
X22465900Y18798280D01*
X22210574Y18799332D01*
X21921729Y18800196D01*
X21597249Y18800890D01*
X21235016Y18801434D01*
X20832916Y18801844D01*
X20388830Y18802141D01*
X19900644Y18802342D01*
X19366241Y18802467D01*
X18783505Y18802533D01*
X18150318Y18802559D01*
X17464566Y18802563D01*
X16836597Y18802560D01*
X16198903Y18802536D01*
X15611843Y18802475D01*
X15073302Y18802356D01*
X14581162Y18802162D01*
X14133309Y18801875D01*
X13727625Y18801475D01*
X13361993Y18800944D01*
X13034299Y18800263D01*
X12742425Y18799415D01*
X12484255Y18798380D01*
X12257673Y18797140D01*
X12060562Y18795676D01*
X11890807Y18793971D01*
X11746290Y18792005D01*
X11624895Y18789759D01*
X11524507Y18787217D01*
X11443009Y18784358D01*
X11378284Y18781164D01*
X11328216Y18777617D01*
X11290689Y18773698D01*
X11263587Y18769389D01*
X11244792Y18764672D01*
X11232190Y18759527D01*
X11223663Y18753936D01*
X11217095Y18747881D01*
X11212234Y18742832D01*
X11204050Y18732106D01*
X11196816Y18716869D01*
X11190472Y18693986D01*
X11184960Y18660322D01*
X11180222Y18612741D01*
X11176198Y18548106D01*
X11172831Y18463282D01*
X11170063Y18355134D01*
X11167834Y18220525D01*
X11166086Y18056320D01*
X11164760Y17859382D01*
X11163800Y17626577D01*
X11163144Y17354769D01*
X11162737Y17040820D01*
X11162518Y16681597D01*
X11162429Y16273963D01*
X11162413Y15814782D01*
X10862860Y15814782D01*
X10862861Y15876869D01*
X10862900Y16330941D01*
X10863041Y16733966D01*
X10863340Y17089132D01*
X10863851Y17399628D01*
X10864630Y17668640D01*
X10865731Y17899357D01*
X10867210Y18094966D01*
X10869121Y18258655D01*
X10871520Y18393611D01*
X10874461Y18503023D01*
X10878000Y18590077D01*
X10882191Y18657962D01*
X10887091Y18709865D01*
X10892753Y18748975D01*
X10899232Y18778477D01*
X10906585Y18801562D01*
X10914865Y18821415D01*
X10971850Y18911959D01*
X11085147Y19012803D01*
X11203425Y19089646D01*
X17437224Y19095941D01*
X23671024Y19102236D01*
X23806000Y19027588D01*
X23835103Y19010712D01*
X23934074Y18932140D01*
X24003454Y18829904D01*
X24065932Y18706869D01*
X24066702Y15816821D01*
X24066702Y15814782D01*
X24066720Y15463941D01*
G37*
D12*
%TO.C,TP3*%
X38250000Y13650000D02*
G75*
G02*
X36850000Y13650000I-700000J0D01*
G01*
X36850000Y13650000D02*
G75*
G02*
X38250000Y13650000I700000J0D01*
G01*
%TD*%
%LPC*%
D14*
%TO.C,TP11*%
X27917800Y5540400D03*
%TD*%
%TO.C,TP10*%
X27892400Y7547000D03*
%TD*%
%TO.C,TP9*%
X56035600Y7445400D03*
%TD*%
%TO.C,TP8*%
X58042200Y7470800D03*
%TD*%
D15*
%TO.C,J3*%
X4810000Y14320000D03*
X4810000Y8540000D03*
D16*
X5310000Y15750000D03*
D17*
X1130000Y15750000D03*
D16*
X5310000Y7110000D03*
D17*
X1130000Y7110000D03*
%TD*%
D18*
%TO.C,J5*%
X16460000Y21620000D03*
D19*
X19000000Y21620000D03*
X21540000Y21620000D03*
X24080000Y21620000D03*
X26620000Y21620000D03*
X29160000Y21620000D03*
X31700000Y21620000D03*
X34240000Y21620000D03*
X36780000Y21620000D03*
X39320000Y21620000D03*
X41860000Y21620000D03*
X44400000Y21620000D03*
%TD*%
D20*
%TO.C,U20*%
X57000800Y6057200D03*
%TD*%
D18*
%TO.C,J9*%
X52021051Y21620000D03*
D19*
X54561051Y21620000D03*
X57101051Y21620000D03*
X59641051Y21620000D03*
X62181051Y21620000D03*
X64721051Y21620000D03*
X67261051Y21620000D03*
%TD*%
D18*
%TO.C,J1*%
X52021051Y1338949D03*
D19*
X54561051Y1338949D03*
X57101051Y1338949D03*
X59641051Y1338949D03*
X62181051Y1338949D03*
X64721051Y1338949D03*
X67261051Y1338949D03*
%TD*%
D20*
%TO.C,U19*%
X29723000Y6384000D03*
%TD*%
D18*
%TO.C,J7*%
X6300000Y1300000D03*
D19*
X8840000Y1300000D03*
X11380000Y1300000D03*
X13920000Y1300000D03*
X16460000Y1300000D03*
X19000000Y1300000D03*
X21540000Y1300000D03*
X24080000Y1300000D03*
X26620000Y1300000D03*
X29160000Y1300000D03*
X31700000Y1300000D03*
X34240000Y1300000D03*
X36780000Y1300000D03*
X39320000Y1300000D03*
X41860000Y1300000D03*
X44400000Y1300000D03*
%TD*%
D21*
%TO.C,J4*%
X61395000Y5819800D03*
X60379000Y10899800D03*
X62411000Y10899800D03*
%TD*%
D14*
%TO.C,TP5*%
X40681051Y16568949D03*
%TD*%
%TO.C,TP4*%
X38631051Y16618949D03*
%TD*%
%TO.C,TP7*%
X43431051Y14518949D03*
%TD*%
%TO.C,TP6*%
X42831051Y16518949D03*
%TD*%
%TO.C,TP3*%
X37550000Y13650000D03*
%TD*%
%LPD*%
M02*
