%TF.GenerationSoftware,KiCad,Pcbnew,9.0.5*%
%TF.CreationDate,2025-11-18T14:05:17+01:00*%
%TF.ProjectId,AudioPlayground,41756469-6f50-46c6-9179-67726f756e64,rev?*%
%TF.SameCoordinates,PX5a9dfc5PY89ae535*%
%TF.FileFunction,Legend,Top*%
%TF.FilePolarity,Positive*%
%FSLAX46Y46*%
G04 Gerber Fmt 4.6, Leading zero omitted, Abs format (unit mm)*
G04 Created by KiCad (PCBNEW 9.0.5) date 2025-11-18 14:05:17*
%MOMM*%
%LPD*%
G01*
G04 APERTURE LIST*
G04 Aperture macros list*
%AMRoundRect*
0 Rectangle with rounded corners*
0 $1 Rounding radius*
0 $2 $3 $4 $5 $6 $7 $8 $9 X,Y pos of 4 corners*
0 Add a 4 corners polygon primitive as box body*
4,1,4,$2,$3,$4,$5,$6,$7,$8,$9,$2,$3,0*
0 Add four circle primitives for the rounded corners*
1,1,$1+$1,$2,$3*
1,1,$1+$1,$4,$5*
1,1,$1+$1,$6,$7*
1,1,$1+$1,$8,$9*
0 Add four rect primitives between the rounded corners*
20,1,$1+$1,$2,$3,$4,$5,0*
20,1,$1+$1,$4,$5,$6,$7,0*
20,1,$1+$1,$6,$7,$8,$9,0*
20,1,$1+$1,$8,$9,$2,$3,0*%
%AMFreePoly0*
4,1,50,0.017735,0.531603,0.024524,0.526168,0.244524,0.316168,0.259986,0.281162,0.251603,0.252265,0.235315,0.227834,0.217434,0.174189,0.211603,0.162265,0.200000,0.144860,0.200000,0.130000,0.197434,0.114189,0.180000,0.061887,0.180000,-0.051887,0.197434,-0.104189,0.200000,-0.120000,0.200000,-0.134860,0.211603,-0.152265,0.217434,-0.164189,0.233701,-0.212991,0.245355,-0.224645,
0.260000,-0.260000,0.245355,-0.295355,0.025355,-0.515355,-0.010000,-0.530000,-0.045355,-0.515355,-0.051603,-0.507735,-0.071603,-0.477735,-0.074721,-0.472361,-0.113327,-0.395149,-0.131603,-0.367735,-0.134721,-0.362361,-0.174721,-0.282361,-0.178507,-0.272127,-0.208507,-0.152127,-0.210000,-0.140000,-0.210000,-0.106155,-0.218507,-0.072127,-0.220000,-0.060000,-0.220000,0.070000,-0.218507,0.082127,
-0.210000,0.116155,-0.210000,0.150000,-0.208507,0.162127,-0.178507,0.282127,-0.174721,0.292361,-0.094721,0.452361,-0.091603,0.457735,-0.051603,0.517735,-0.019806,0.539029,0.017735,0.531603,0.017735,0.531603,$1*%
%AMFreePoly1*
4,1,65,0.032127,0.218507,0.066155,0.210000,0.100000,0.210000,0.112127,0.208507,0.146155,0.200000,0.190000,0.200000,0.212361,0.194721,0.247451,0.177176,0.282127,0.168507,0.285811,0.167434,0.315811,0.157434,0.322361,0.154721,0.442361,0.094721,0.447735,0.091603,0.477735,0.071603,0.480000,0.070000,0.520000,0.040000,0.539497,0.007071,0.530000,-0.030000,0.524524,-0.036168,
0.304524,-0.246168,0.268838,-0.259986,0.254189,-0.257434,0.224189,-0.247434,0.204645,-0.235355,0.192991,-0.223701,0.116013,-0.198042,0.083845,-0.190000,0.060000,-0.190000,0.044189,-0.187434,0.021887,-0.180000,-0.023845,-0.180000,-0.057873,-0.188507,-0.070000,-0.190000,-0.091887,-0.190000,-0.197834,-0.225315,-0.222265,-0.241603,-0.227639,-0.244721,-0.247639,-0.254721,-0.285811,-0.257434,
-0.304524,-0.246168,-0.524524,-0.036168,-0.539986,-0.001162,-0.526168,0.034524,-0.520000,0.040000,-0.480000,0.070000,-0.477735,0.071603,-0.447735,0.091603,-0.442361,0.094721,-0.405149,0.113327,-0.377735,0.131603,-0.372361,0.134721,-0.332361,0.154721,-0.322127,0.158507,-0.247451,0.177176,-0.212361,0.194721,-0.190000,0.200000,-0.156155,0.200000,-0.122127,0.208507,-0.110000,0.210000,
-0.066155,0.210000,-0.032127,0.218507,-0.020000,0.220000,0.020000,0.220000,0.032127,0.218507,0.032127,0.218507,$1*%
%AMFreePoly2*
4,1,54,-0.244645,0.245355,-0.232991,0.233701,-0.214189,0.227434,-0.202265,0.221603,-0.177834,0.205315,-0.131887,0.190000,-0.110000,0.190000,-0.097873,0.188507,-0.063845,0.180000,0.041887,0.180000,0.064189,0.187434,0.080000,0.190000,0.111887,0.190000,0.157834,0.205315,0.182265,0.221603,0.187639,0.224721,0.204851,0.233327,0.232265,0.251603,0.269806,0.259029,0.295355,0.245355,
0.515355,0.025355,0.530000,-0.010000,0.515355,-0.045355,0.502361,-0.054721,0.465149,-0.073327,0.438884,-0.090837,0.400000,-0.120000,0.382127,-0.128507,0.350530,-0.136406,0.327735,-0.151603,0.322361,-0.154721,0.282361,-0.174721,0.272127,-0.178507,0.192127,-0.198507,0.189806,-0.199029,0.140971,-0.208796,0.102127,-0.218507,0.090000,-0.220000,-0.120000,-0.220000,-0.132127,-0.218507,
-0.292127,-0.178507,-0.302361,-0.174721,-0.379183,-0.136310,-0.405811,-0.127434,-0.420000,-0.120000,-0.458884,-0.090837,-0.485149,-0.073327,-0.522361,-0.054721,-0.547434,-0.025811,-0.544721,0.012361,-0.535355,0.025355,-0.315355,0.245355,-0.280000,0.260000,-0.244645,0.245355,-0.244645,0.245355,$1*%
%AMFreePoly3*
4,1,57,0.035355,0.505355,0.065355,0.475355,0.071603,0.467735,0.091603,0.437735,0.094721,0.432361,0.154721,0.312361,0.158507,0.302127,0.167176,0.267451,0.184721,0.232361,0.188507,0.222127,0.208507,0.142127,0.210000,0.130000,0.210000,0.096155,0.218507,0.062127,0.220000,0.050000,0.220000,-0.080000,0.218507,-0.092127,0.210000,-0.126155,0.210000,-0.160000,0.208507,-0.172127,
0.188507,-0.252127,0.184721,-0.262361,0.167176,-0.297451,0.158507,-0.332127,0.154721,-0.342361,0.134721,-0.382361,0.131603,-0.387735,0.113327,-0.415149,0.074721,-0.492361,0.065355,-0.505355,0.035355,-0.535355,0.000000,-0.550000,-0.035355,-0.535355,-0.036168,-0.534524,-0.246168,-0.314524,-0.259986,-0.278838,-0.254721,-0.257639,-0.244721,-0.237639,-0.241603,-0.232265,-0.225315,-0.207834,
-0.190000,-0.101887,-0.190000,-0.080000,-0.188507,-0.067873,-0.180000,-0.033845,-0.180000,0.011887,-0.187434,0.034189,-0.190000,0.050000,-0.190000,0.071887,-0.225315,0.177834,-0.241603,0.202265,-0.247434,0.214189,-0.257434,0.244189,-0.254721,0.282361,-0.245355,0.295355,-0.035355,0.505355,0.000000,0.520000,0.035355,0.505355,0.035355,0.505355,$1*%
G04 Aperture macros list end*
%ADD10C,0.150000*%
%ADD11C,0.120000*%
%ADD12C,0.127000*%
%ADD13C,0.200000*%
%ADD14C,0.203200*%
%ADD15C,0.304800*%
%ADD16C,0.100000*%
%ADD17C,0.152400*%
%ADD18C,0.000000*%
%ADD19C,0.250000*%
%ADD20RoundRect,0.135000X0.185000X-0.135000X0.185000X0.135000X-0.185000X0.135000X-0.185000X-0.135000X0*%
%ADD21RoundRect,0.250000X-0.350000X0.450000X-0.350000X-0.450000X0.350000X-0.450000X0.350000X0.450000X0*%
%ADD22RoundRect,0.140000X-0.140000X-0.170000X0.140000X-0.170000X0.140000X0.170000X-0.140000X0.170000X0*%
%ADD23RoundRect,0.135000X0.135000X0.185000X-0.135000X0.185000X-0.135000X-0.185000X0.135000X-0.185000X0*%
%ADD24C,0.400000*%
%ADD25C,0.200000*%
%ADD26R,5.400000X5.000000*%
%ADD27RoundRect,0.135000X-0.185000X0.135000X-0.185000X-0.135000X0.185000X-0.135000X0.185000X0.135000X0*%
%ADD28C,0.650000*%
%ADD29RoundRect,0.150000X-0.425000X0.150000X-0.425000X-0.150000X0.425000X-0.150000X0.425000X0.150000X0*%
%ADD30RoundRect,0.075000X-0.500000X0.075000X-0.500000X-0.075000X0.500000X-0.075000X0.500000X0.075000X0*%
%ADD31O,2.100000X1.000000*%
%ADD32O,1.800000X1.000000*%
%ADD33RoundRect,0.140000X0.170000X-0.140000X0.170000X0.140000X-0.170000X0.140000X-0.170000X-0.140000X0*%
%ADD34RoundRect,0.140000X-0.170000X0.140000X-0.170000X-0.140000X0.170000X-0.140000X0.170000X0.140000X0*%
%ADD35RoundRect,0.046250X-0.423750X-0.138750X0.423750X-0.138750X0.423750X0.138750X-0.423750X0.138750X0*%
%ADD36RoundRect,0.046250X-0.138750X-0.423750X0.138750X-0.423750X0.138750X0.423750X-0.138750X0.423750X0*%
%ADD37RoundRect,0.050000X-1.050000X-1.050000X1.050000X-1.050000X1.050000X1.050000X-1.050000X1.050000X0*%
%ADD38RoundRect,0.093750X-0.156250X-0.093750X0.156250X-0.093750X0.156250X0.093750X-0.156250X0.093750X0*%
%ADD39RoundRect,0.075000X-0.250000X-0.075000X0.250000X-0.075000X0.250000X0.075000X-0.250000X0.075000X0*%
%ADD40R,1.000000X1.800000*%
%ADD41RoundRect,0.147500X0.147500X0.172500X-0.147500X0.172500X-0.147500X-0.172500X0.147500X-0.172500X0*%
%ADD42RoundRect,0.250000X-0.650000X0.325000X-0.650000X-0.325000X0.650000X-0.325000X0.650000X0.325000X0*%
%ADD43RoundRect,0.050800X-0.500000X-2.300000X0.500000X-2.300000X0.500000X2.300000X-0.500000X2.300000X0*%
%ADD44RoundRect,0.050800X0.800000X-1.700000X0.800000X1.700000X-0.800000X1.700000X-0.800000X-1.700000X0*%
%ADD45RoundRect,0.082500X0.442500X-0.192500X0.442500X0.192500X-0.442500X0.192500X-0.442500X-0.192500X0*%
%ADD46RoundRect,0.072000X1.128000X-0.168000X1.128000X0.168000X-1.128000X0.168000X-1.128000X-0.168000X0*%
%ADD47RoundRect,0.072000X0.168000X-0.628000X0.168000X0.628000X-0.168000X0.628000X-0.168000X-0.628000X0*%
%ADD48R,0.706399X0.229400*%
%ADD49RoundRect,0.135000X-0.135000X-0.185000X0.135000X-0.185000X0.135000X0.185000X-0.135000X0.185000X0*%
%ADD50RoundRect,0.162500X-0.162500X0.617500X-0.162500X-0.617500X0.162500X-0.617500X0.162500X0.617500X0*%
%ADD51RoundRect,0.140000X0.140000X0.170000X-0.140000X0.170000X-0.140000X-0.170000X0.140000X-0.170000X0*%
%ADD52R,1.700000X1.700000*%
%ADD53C,1.700000*%
%ADD54R,0.580000X0.280000*%
%ADD55C,0.350000*%
%ADD56R,0.720000X0.520000*%
%ADD57FreePoly0,90.000000*%
%ADD58FreePoly1,90.000000*%
%ADD59FreePoly2,90.000000*%
%ADD60FreePoly3,90.000000*%
%ADD61RoundRect,0.147500X0.172500X-0.147500X0.172500X0.147500X-0.172500X0.147500X-0.172500X-0.147500X0*%
%ADD62RoundRect,0.147500X-0.147500X-0.172500X0.147500X-0.172500X0.147500X0.172500X-0.147500X0.172500X0*%
%ADD63R,0.807999X0.254800*%
%ADD64R,0.254800X0.807999*%
%ADD65R,2.489200X2.489200*%
%ADD66RoundRect,0.250000X0.350000X-0.450000X0.350000X0.450000X-0.350000X0.450000X-0.350000X-0.450000X0*%
%ADD67RoundRect,0.147500X-0.172500X0.147500X-0.172500X-0.147500X0.172500X-0.147500X0.172500X0.147500X0*%
%ADD68RoundRect,0.150000X0.512500X0.150000X-0.512500X0.150000X-0.512500X-0.150000X0.512500X-0.150000X0*%
%ADD69R,0.704800X0.300000*%
%ADD70R,0.704850X0.249936*%
%ADD71R,0.350012X0.754888*%
%ADD72R,3.200000X1.300000*%
%ADD73R,0.807999X0.279800*%
%ADD74R,0.279800X0.807999*%
%ADD75R,5.359400X5.359400*%
%ADD76RoundRect,0.162500X0.162500X-0.617500X0.162500X0.617500X-0.162500X0.617500X-0.162500X-0.617500X0*%
%ADD77RoundRect,0.082500X-0.192500X-0.442500X0.192500X-0.442500X0.192500X0.442500X-0.192500X0.442500X0*%
%ADD78RoundRect,0.072000X-0.168000X-1.128000X0.168000X-1.128000X0.168000X1.128000X-0.168000X1.128000X0*%
%ADD79RoundRect,0.072000X-0.628000X-0.168000X0.628000X-0.168000X0.628000X0.168000X-0.628000X0.168000X0*%
%ADD80R,0.900000X1.700000*%
%ADD81RoundRect,0.250000X-0.450000X-0.350000X0.450000X-0.350000X0.450000X0.350000X-0.450000X0.350000X0*%
G04 APERTURE END LIST*
D10*
X20301204Y15414820D02*
X20301204Y16224343D01*
X20301204Y16224343D02*
X20253585Y16319581D01*
X20253585Y16319581D02*
X20205966Y16367200D01*
X20205966Y16367200D02*
X20110728Y16414820D01*
X20110728Y16414820D02*
X19920252Y16414820D01*
X19920252Y16414820D02*
X19825014Y16367200D01*
X19825014Y16367200D02*
X19777395Y16319581D01*
X19777395Y16319581D02*
X19729776Y16224343D01*
X19729776Y16224343D02*
X19729776Y15414820D01*
X19348823Y15414820D02*
X18729776Y15414820D01*
X18729776Y15414820D02*
X19063109Y15795772D01*
X19063109Y15795772D02*
X18920252Y15795772D01*
X18920252Y15795772D02*
X18825014Y15843391D01*
X18825014Y15843391D02*
X18777395Y15891010D01*
X18777395Y15891010D02*
X18729776Y15986248D01*
X18729776Y15986248D02*
X18729776Y16224343D01*
X18729776Y16224343D02*
X18777395Y16319581D01*
X18777395Y16319581D02*
X18825014Y16367200D01*
X18825014Y16367200D02*
X18920252Y16414820D01*
X18920252Y16414820D02*
X19205966Y16414820D01*
X19205966Y16414820D02*
X19301204Y16367200D01*
X19301204Y16367200D02*
X19348823Y16319581D01*
X22518998Y13890820D02*
X22518998Y14128915D01*
X22757093Y14033677D02*
X22518998Y14128915D01*
X22518998Y14128915D02*
X22280903Y14033677D01*
X22661855Y14319391D02*
X22518998Y14128915D01*
X22518998Y14128915D02*
X22376141Y14319391D01*
X22518999Y14981181D02*
X22518999Y14743086D01*
X22280904Y14838324D02*
X22518999Y14743086D01*
X22518999Y14743086D02*
X22757094Y14838324D01*
X22376142Y14552610D02*
X22518999Y14743086D01*
X22518999Y14743086D02*
X22661856Y14552610D01*
X26838348Y4198271D02*
X26838348Y4436366D01*
X27076443Y4341128D02*
X26838348Y4436366D01*
X26838348Y4436366D02*
X26600253Y4341128D01*
X26981205Y4626842D02*
X26838348Y4436366D01*
X26838348Y4436366D02*
X26695491Y4626842D01*
X29163276Y13934756D02*
X28353753Y13934756D01*
X28353753Y13934756D02*
X28258515Y13887137D01*
X28258515Y13887137D02*
X28210896Y13839518D01*
X28210896Y13839518D02*
X28163276Y13744280D01*
X28163276Y13744280D02*
X28163276Y13553804D01*
X28163276Y13553804D02*
X28210896Y13458566D01*
X28210896Y13458566D02*
X28258515Y13410947D01*
X28258515Y13410947D02*
X28353753Y13363328D01*
X28353753Y13363328D02*
X29163276Y13363328D01*
X29068038Y12934756D02*
X29115657Y12887137D01*
X29115657Y12887137D02*
X29163276Y12791899D01*
X29163276Y12791899D02*
X29163276Y12553804D01*
X29163276Y12553804D02*
X29115657Y12458566D01*
X29115657Y12458566D02*
X29068038Y12410947D01*
X29068038Y12410947D02*
X28972800Y12363328D01*
X28972800Y12363328D02*
X28877562Y12363328D01*
X28877562Y12363328D02*
X28734705Y12410947D01*
X28734705Y12410947D02*
X28163276Y12982375D01*
X28163276Y12982375D02*
X28163276Y12363328D01*
X32294276Y17590051D02*
X32056181Y17590051D01*
X32151419Y17828146D02*
X32056181Y17590051D01*
X32056181Y17590051D02*
X32151419Y17351956D01*
X31865705Y17732908D02*
X32056181Y17590051D01*
X32056181Y17590051D02*
X31865705Y17447194D01*
X31203915Y17590052D02*
X31442010Y17590052D01*
X31346772Y17351957D02*
X31442010Y17590052D01*
X31442010Y17590052D02*
X31346772Y17828147D01*
X31632486Y17447195D02*
X31442010Y17590052D01*
X31442010Y17590052D02*
X31632486Y17732909D01*
D11*
%TO.C,R1*%
X44861171Y15989632D02*
X44861171Y16296914D01*
X45621171Y15989632D02*
X45621171Y16296914D01*
%TO.C,R31*%
X23500000Y12126359D02*
X23500000Y12433641D01*
X24260000Y12126359D02*
X24260000Y12433641D01*
%TO.C,Y1*%
X56721171Y19758273D02*
X56721171Y15638273D01*
X60141171Y19758273D02*
X56721171Y19758273D01*
%TO.C,C58*%
X14372164Y13690000D02*
X14587836Y13690000D01*
X14372164Y12970000D02*
X14587836Y12970000D01*
%TO.C,C10*%
X46573335Y15988273D02*
X46789007Y15988273D01*
X46573335Y15268273D02*
X46789007Y15268273D01*
%TO.C,R25*%
X40073641Y18310000D02*
X39766359Y18310000D01*
X40073641Y17550000D02*
X39766359Y17550000D01*
%TO.C,U1*%
X48547222Y15697222D02*
X48547222Y9607222D01*
X48547222Y9607222D02*
X55767222Y9607222D01*
X55767222Y16827222D02*
X49677222Y16827222D01*
X55767222Y9607222D02*
X55767222Y16827222D01*
X48547222Y16827222D02*
X48047222Y16827222D01*
X48547222Y17327222D01*
X48547222Y16827222D01*
G36*
X48547222Y16827222D02*
G01*
X48047222Y16827222D01*
X48547222Y17327222D01*
X48547222Y16827222D01*
G37*
%TO.C,R33*%
X23500000Y14393641D02*
X23500000Y14086359D01*
X24260000Y14393641D02*
X24260000Y14086359D01*
%TO.C,J3*%
X2305000Y16100000D02*
X4005000Y16100000D01*
X2305000Y6760000D02*
X4005000Y6760000D01*
%TO.C,C27*%
X31970000Y18242164D02*
X31970000Y18457836D01*
X32690000Y18242164D02*
X32690000Y18457836D01*
%TO.C,C42*%
X44572164Y11440000D02*
X44787836Y11440000D01*
X44572164Y10720000D02*
X44787836Y10720000D01*
%TO.C,C41*%
X43172164Y5160000D02*
X43387836Y5160000D01*
X43172164Y4440000D02*
X43387836Y4440000D01*
%TO.C,C48*%
X7270000Y8657836D02*
X7270000Y8442164D01*
X7990000Y8657836D02*
X7990000Y8442164D01*
%TO.C,C23*%
X56767800Y13829636D02*
X56767800Y13613964D01*
X57487800Y13829636D02*
X57487800Y13613964D01*
D12*
%TO.C,U4*%
X38067050Y10945000D02*
X38067050Y10650000D01*
X38067050Y10945000D02*
X38362050Y10945000D01*
X38067050Y5945000D02*
X38067050Y6240000D01*
X38067050Y5945000D02*
X38362050Y5945000D01*
X43067050Y10945000D02*
X42772050Y10945000D01*
X43067050Y10945000D02*
X43067050Y10650000D01*
X43067050Y5945000D02*
X42772050Y5945000D01*
X43067050Y5945000D02*
X43067050Y6240000D01*
D13*
X37827050Y10645000D02*
G75*
G02*
X37627050Y10645000I-100000J0D01*
G01*
X37627050Y10645000D02*
G75*
G02*
X37827050Y10645000I100000J0D01*
G01*
D11*
%TO.C,C18*%
X57474564Y12072600D02*
X57690236Y12072600D01*
X57474564Y11352600D02*
X57690236Y11352600D01*
%TO.C,R21*%
X27850000Y18176359D02*
X27850000Y18483641D01*
X28610000Y18176359D02*
X28610000Y18483641D01*
%TO.C,R26*%
X57763441Y11152800D02*
X57456159Y11152800D01*
X57763441Y10392800D02*
X57456159Y10392800D01*
%TO.C,C9*%
X55641171Y18826109D02*
X55641171Y18610437D01*
X56361171Y18826109D02*
X56361171Y18610437D01*
%TO.C,C46*%
X20142164Y9690000D02*
X20357836Y9690000D01*
X20142164Y8970000D02*
X20357836Y8970000D01*
%TO.C,C45*%
X18470000Y8762164D02*
X18470000Y8977836D01*
X19190000Y8762164D02*
X19190000Y8977836D01*
%TO.C,U15*%
X9467000Y12220000D02*
X8417000Y12220000D01*
X9467000Y10240000D02*
X8167000Y10240000D01*
X8047000Y12220000D02*
X7767000Y12220000D01*
X8047000Y12500000D01*
X8047000Y12220000D01*
G36*
X8047000Y12220000D02*
G01*
X7767000Y12220000D01*
X8047000Y12500000D01*
X8047000Y12220000D01*
G37*
%TO.C,C8*%
X54637222Y18609386D02*
X54637222Y18825058D01*
X55357222Y18609386D02*
X55357222Y18825058D01*
%TO.C,Y4*%
X44225000Y13675000D02*
X45575000Y13675000D01*
X44225000Y11925000D02*
X45575000Y11925000D01*
%TO.C,R22*%
X28950000Y18186359D02*
X28950000Y18493641D01*
X29710000Y18186359D02*
X29710000Y18493641D01*
%TO.C,C40*%
X43172164Y4160000D02*
X43387836Y4160000D01*
X43172164Y3440000D02*
X43387836Y3440000D01*
%TO.C,R12*%
X22450000Y12423641D02*
X22450000Y12116359D01*
X23210000Y12423641D02*
X23210000Y12116359D01*
%TO.C,R20*%
X26850000Y18176359D02*
X26850000Y18483641D01*
X27610000Y18176359D02*
X27610000Y18483641D01*
%TO.C,C55*%
X46740000Y6411252D02*
X46740000Y4988748D01*
X48560000Y6411252D02*
X48560000Y4988748D01*
D14*
%TO.C,J2*%
X6681051Y14458949D02*
X6681051Y18458949D01*
X7531051Y16958949D02*
X7531051Y14458949D01*
X7531051Y14458949D02*
X6681051Y14458949D01*
D15*
X7887051Y15402949D02*
X8776051Y15402949D01*
D14*
X8431051Y21958949D02*
X12931051Y21958949D01*
X8931051Y16958949D02*
X7531051Y16958949D01*
D15*
X12586051Y15402949D02*
X13475051Y15402949D01*
X13030551Y14894949D02*
X13030551Y15847449D01*
D14*
X13831051Y16958949D02*
X12431051Y16958949D01*
X13831051Y14458949D02*
X13831051Y16958949D01*
X14681051Y18458949D02*
X14681051Y14458949D01*
X14681051Y14458949D02*
X13831051Y14458949D01*
D16*
%TO.C,U7*%
X50759000Y3604000D02*
X50759000Y3804000D01*
X50759000Y3604000D02*
X50959000Y3604000D01*
X54559000Y3604000D02*
X54739000Y3604000D01*
X54759000Y6604000D02*
X54559000Y6604000D01*
X54759000Y6604000D02*
X54759000Y6404000D01*
X54759000Y3604000D02*
X54559000Y3604000D01*
X54759000Y3604000D02*
X54759000Y3804000D01*
X50579000Y3134000D02*
X50279000Y3434000D01*
X50579000Y3434000D01*
X50579000Y3134000D01*
G36*
X50579000Y3134000D02*
G01*
X50279000Y3434000D01*
X50579000Y3434000D01*
X50579000Y3134000D01*
G37*
X50759000Y6304000D02*
X50759000Y6604000D01*
X51059000Y6604000D01*
X50759000Y6304000D01*
G36*
X50759000Y6304000D02*
G01*
X50759000Y6604000D01*
X51059000Y6604000D01*
X50759000Y6304000D01*
G37*
D11*
%TO.C,C14*%
X57483135Y10187600D02*
X57698807Y10187600D01*
X57483135Y9467600D02*
X57698807Y9467600D01*
%TO.C,C54*%
X40480000Y4387836D02*
X40480000Y4172164D01*
X41200000Y4387836D02*
X41200000Y4172164D01*
%TO.C,C35*%
X20411464Y19525000D02*
X20627136Y19525000D01*
X20411464Y18805000D02*
X20627136Y18805000D01*
D17*
%TO.C,U9*%
X15753000Y9948037D02*
X17302400Y9948037D01*
X17302400Y12411837D02*
X15753000Y12411837D01*
X18331125Y10429748D02*
G75*
G02*
X18127925Y10429748I-101600J0D01*
G01*
X18127925Y10429748D02*
G75*
G02*
X18331125Y10429748I101600J0D01*
G01*
D11*
%TO.C,R18*%
X25800000Y18483641D02*
X25800000Y18176359D01*
X26560000Y18483641D02*
X26560000Y18176359D01*
%TO.C,C36*%
X22470000Y10457836D02*
X22470000Y10242164D01*
X23190000Y10457836D02*
X23190000Y10242164D01*
%TO.C,C70*%
X25854164Y4224000D02*
X26069836Y4224000D01*
X25854164Y3504000D02*
X26069836Y3504000D01*
%TO.C,R15*%
X16373509Y19549300D02*
X16680791Y19549300D01*
X16373509Y18789300D02*
X16680791Y18789300D01*
%TO.C,C7*%
X51337222Y18609386D02*
X51337222Y18825058D01*
X52057222Y18609386D02*
X52057222Y18825058D01*
%TO.C,R6*%
X1793641Y5810000D02*
X1486359Y5810000D01*
X1793641Y5050000D02*
X1486359Y5050000D01*
%TO.C,R24*%
X41998641Y18310000D02*
X41691359Y18310000D01*
X41998641Y17550000D02*
X41691359Y17550000D01*
%TO.C,U5*%
X16620000Y6430000D02*
X16620000Y4630000D01*
X19840000Y5430000D02*
X19840000Y6230000D01*
X19840000Y5430000D02*
X19840000Y4630000D01*
X20120000Y6490000D02*
X19790000Y6730000D01*
X20120000Y6970000D01*
X20120000Y6490000D01*
G36*
X20120000Y6490000D02*
G01*
X19790000Y6730000D01*
X20120000Y6970000D01*
X20120000Y6490000D01*
G37*
%TO.C,R8*%
X23750000Y17276359D02*
X23750000Y17583641D01*
X24510000Y17276359D02*
X24510000Y17583641D01*
%TO.C,C67*%
X11670000Y4222164D02*
X11670000Y4437836D01*
X12390000Y4222164D02*
X12390000Y4437836D01*
%TO.C,R30*%
X23500000Y10473641D02*
X23500000Y10166359D01*
X24260000Y10473641D02*
X24260000Y10166359D01*
%TO.C,C47*%
X18567136Y19525000D02*
X18351464Y19525000D01*
X18567136Y18805000D02*
X18351464Y18805000D01*
%TO.C,J5*%
X15130000Y22950000D02*
X16460000Y22950000D01*
X15130000Y21620000D02*
X15130000Y22950000D01*
X17730000Y22950000D02*
X45730000Y22950000D01*
X17730000Y20290000D02*
X17730000Y22950000D01*
X17730000Y20290000D02*
X45730000Y20290000D01*
X45730000Y20290000D02*
X45730000Y22950000D01*
%TO.C,C37*%
X37822164Y12490000D02*
X38037836Y12490000D01*
X37822164Y11770000D02*
X38037836Y11770000D01*
%TO.C,C33*%
X36547836Y6790000D02*
X36332164Y6790000D01*
X36547836Y6070000D02*
X36332164Y6070000D01*
%TO.C,R34*%
X16320000Y9053641D02*
X16320000Y8746359D01*
X17080000Y9053641D02*
X17080000Y8746359D01*
D10*
%TO.C,U18*%
X22969000Y6853000D02*
X24129000Y6853000D01*
X22969000Y5193000D02*
X24129000Y5193000D01*
X22609000Y6523000D02*
G75*
G02*
X22469000Y6523000I-70000J0D01*
G01*
X22469000Y6523000D02*
G75*
G02*
X22609000Y6523000I70000J0D01*
G01*
D11*
%TO.C,R23*%
X43948641Y18310000D02*
X43641359Y18310000D01*
X43948641Y17550000D02*
X43641359Y17550000D01*
D10*
%TO.C,U20*%
X55600800Y7157200D02*
X55600800Y3557200D01*
X55600800Y3557200D02*
X55740800Y3557200D01*
X56600800Y3557200D02*
X57410800Y3557200D01*
X58270800Y3557200D02*
X58400800Y3557200D01*
X58400800Y7157200D02*
X55600800Y7157200D01*
X58400800Y3557200D02*
X58400800Y7157200D01*
X58880800Y4007200D02*
G75*
G02*
X58720800Y4007200I-80000J0D01*
G01*
X58720800Y4007200D02*
G75*
G02*
X58880800Y4007200I80000J0D01*
G01*
D11*
%TO.C,C56*%
X44390000Y7886252D02*
X44390000Y6463748D01*
X46210000Y7886252D02*
X46210000Y6463748D01*
D16*
%TO.C,D0*%
X25180000Y17240000D02*
G75*
G02*
X25080000Y17240000I-50000J0D01*
G01*
X25080000Y17240000D02*
G75*
G02*
X25180000Y17240000I50000J0D01*
G01*
D11*
%TO.C,C53*%
X13152164Y8840000D02*
X13367836Y8840000D01*
X13152164Y8120000D02*
X13367836Y8120000D01*
%TO.C,J9*%
X50691051Y22950000D02*
X52021051Y22950000D01*
X50691051Y21620000D02*
X50691051Y22950000D01*
X53291051Y22950000D02*
X68591051Y22950000D01*
X53291051Y20290000D02*
X53291051Y22950000D01*
X53291051Y20290000D02*
X68591051Y20290000D01*
X68591051Y20290000D02*
X68591051Y22950000D01*
%TO.C,J1*%
X50691051Y2668949D02*
X52021051Y2668949D01*
X50691051Y1338949D02*
X50691051Y2668949D01*
X53291051Y2668949D02*
X68591051Y2668949D01*
X53291051Y8949D02*
X53291051Y2668949D01*
X53291051Y8949D02*
X68591051Y8949D01*
X68591051Y8949D02*
X68591051Y2668949D01*
%TO.C,C31*%
X34537836Y8840000D02*
X34322164Y8840000D01*
X34537836Y8120000D02*
X34322164Y8120000D01*
%TO.C,C38*%
X37580000Y4387836D02*
X37580000Y4172164D01*
X38300000Y4387836D02*
X38300000Y4172164D01*
D16*
%TO.C,D1*%
X42755000Y18930000D02*
G75*
G02*
X42655000Y18930000I-50000J0D01*
G01*
X42655000Y18930000D02*
G75*
G02*
X42755000Y18930000I50000J0D01*
G01*
D11*
%TO.C,R4*%
X33983641Y11910000D02*
X33676359Y11910000D01*
X33983641Y11150000D02*
X33676359Y11150000D01*
%TO.C,C1*%
X43831171Y16237836D02*
X43831171Y16022164D01*
X44551171Y16237836D02*
X44551171Y16022164D01*
D17*
%TO.C,U3*%
X17367600Y18131700D02*
X17367600Y17690140D01*
X17367600Y14229860D02*
X17367600Y13788300D01*
X17367600Y13788300D02*
X17809160Y13788300D01*
X17809160Y18131700D02*
X17367600Y18131700D01*
X21269440Y13788300D02*
X21711000Y13788300D01*
X21711000Y18131700D02*
X21269440Y18131700D01*
X21711000Y17690140D02*
X21711000Y18131700D01*
X21711000Y13788300D02*
X21711000Y14229860D01*
D18*
G36*
X18967800Y13206000D02*
G01*
X18586800Y13206000D01*
X18586800Y13460000D01*
X18967800Y13460000D01*
X18967800Y13206000D01*
G37*
G36*
X19475800Y18456000D02*
G01*
X19094800Y18456000D01*
X19094800Y18710000D01*
X19475800Y18710000D01*
X19475800Y18456000D01*
G37*
D11*
%TO.C,C57*%
X41470000Y4387836D02*
X41470000Y4172164D01*
X42190000Y4387836D02*
X42190000Y4172164D01*
%TO.C,Y2*%
X32870000Y12120000D02*
X36290000Y12120000D01*
X36290000Y12120000D02*
X36290000Y16240000D01*
%TO.C,C39*%
X44562164Y10340000D02*
X44777836Y10340000D01*
X44562164Y9620000D02*
X44777836Y9620000D01*
%TO.C,R3*%
X16583641Y13510000D02*
X16276359Y13510000D01*
X16583641Y12750000D02*
X16276359Y12750000D01*
%TO.C,R9*%
X34550000Y9876359D02*
X34550000Y10183641D01*
X35310000Y9876359D02*
X35310000Y10183641D01*
%TO.C,C29*%
X29970000Y18222164D02*
X29970000Y18437836D01*
X30690000Y18222164D02*
X30690000Y18437836D01*
D10*
%TO.C,U13*%
X20937000Y6853000D02*
X22097000Y6853000D01*
X20937000Y5193000D02*
X22097000Y5193000D01*
X20577000Y6523000D02*
G75*
G02*
X20437000Y6523000I-70000J0D01*
G01*
X20437000Y6523000D02*
G75*
G02*
X20577000Y6523000I70000J0D01*
G01*
D11*
%TO.C,C15*%
X49720000Y7857836D02*
X49720000Y7642164D01*
X50440000Y7857836D02*
X50440000Y7642164D01*
%TO.C,R17*%
X15697150Y17505659D02*
X15697150Y17812941D01*
X16457150Y17505659D02*
X16457150Y17812941D01*
%TO.C,R13*%
X10976359Y9160000D02*
X11283641Y9160000D01*
X10976359Y8400000D02*
X11283641Y8400000D01*
%TO.C,C2*%
X4937836Y5890000D02*
X4722164Y5890000D01*
X4937836Y5170000D02*
X4722164Y5170000D01*
%TO.C,C65*%
X60476200Y13611364D02*
X60476200Y13827036D01*
X61196200Y13611364D02*
X61196200Y13827036D01*
%TO.C,C43*%
X42820000Y16237836D02*
X42820000Y16022164D01*
X43540000Y16237836D02*
X43540000Y16022164D01*
%TO.C,U10*%
X12767500Y12590000D02*
X11967500Y12590000D01*
X12767500Y12590000D02*
X13567500Y12590000D01*
X12767500Y9470000D02*
X11967500Y9470000D01*
X12767500Y9470000D02*
X13567500Y9470000D01*
X14307500Y9190000D02*
X13827500Y9190000D01*
X14067500Y9520000D01*
X14307500Y9190000D01*
G36*
X14307500Y9190000D02*
G01*
X13827500Y9190000D01*
X14067500Y9520000D01*
X14307500Y9190000D01*
G37*
%TO.C,C11*%
X52081171Y7851109D02*
X52081171Y7635437D01*
X52801171Y7851109D02*
X52801171Y7635437D01*
%TO.C,R2*%
X7876359Y13710000D02*
X8183641Y13710000D01*
X7876359Y12950000D02*
X8183641Y12950000D01*
D10*
%TO.C,U11*%
X20937000Y8758000D02*
X22097000Y8758000D01*
X20937000Y7098000D02*
X22097000Y7098000D01*
X20577000Y8428000D02*
G75*
G02*
X20437000Y8428000I-70000J0D01*
G01*
X20437000Y8428000D02*
G75*
G02*
X20577000Y8428000I70000J0D01*
G01*
D11*
%TO.C,R5*%
X30950000Y18483641D02*
X30950000Y18176359D01*
X31710000Y18483641D02*
X31710000Y18176359D01*
%TO.C,R14*%
X10976359Y8160000D02*
X11283641Y8160000D01*
X10976359Y7400000D02*
X11283641Y7400000D01*
%TO.C,C4*%
X48345000Y18627164D02*
X48345000Y18842836D01*
X49065000Y18627164D02*
X49065000Y18842836D01*
%TO.C,C24*%
X33020000Y17222164D02*
X33020000Y17437836D01*
X33740000Y17222164D02*
X33740000Y17437836D01*
D18*
%TO.C,U14*%
G36*
X26152500Y4312201D02*
G01*
X25771500Y4312201D01*
X25771500Y4566201D01*
X26152500Y4566201D01*
X26152500Y4312201D01*
G37*
D11*
%TO.C,R27*%
X15393641Y9310000D02*
X15086359Y9310000D01*
X15393641Y8550000D02*
X15086359Y8550000D01*
D16*
%TO.C,D5*%
X9720000Y7440000D02*
G75*
G02*
X9620000Y7440000I-50000J0D01*
G01*
X9620000Y7440000D02*
G75*
G02*
X9720000Y7440000I50000J0D01*
G01*
D19*
%TO.C,L4*%
X65474800Y16380200D02*
X69344800Y16380200D01*
X65474800Y6730200D02*
X65474800Y16380200D01*
X69344800Y16380200D02*
X69344800Y16000200D01*
X69344800Y16130200D02*
X69344800Y6730200D01*
X69344800Y6730200D02*
X65474800Y6730200D01*
D11*
%TO.C,C34*%
X36517836Y5790000D02*
X36302164Y5790000D01*
X36517836Y5070000D02*
X36302164Y5070000D01*
%TO.C,C26*%
X32587836Y8840000D02*
X32372164Y8840000D01*
X32587836Y8120000D02*
X32372164Y8120000D01*
%TO.C,C22*%
X35622164Y11890000D02*
X35837836Y11890000D01*
X35622164Y11170000D02*
X35837836Y11170000D01*
D10*
%TO.C,U19*%
X28323000Y7484000D02*
X28323000Y3884000D01*
X28323000Y3884000D02*
X28463000Y3884000D01*
X29323000Y3884000D02*
X30133000Y3884000D01*
X30993000Y3884000D02*
X31123000Y3884000D01*
X31123000Y7484000D02*
X28323000Y7484000D01*
X31123000Y3884000D02*
X31123000Y7484000D01*
X31603000Y4334000D02*
G75*
G02*
X31443000Y4334000I-80000J0D01*
G01*
X31443000Y4334000D02*
G75*
G02*
X31603000Y4334000I80000J0D01*
G01*
D11*
%TO.C,C6*%
X46799007Y16953273D02*
X46583335Y16953273D01*
X46799007Y16233273D02*
X46583335Y16233273D01*
%TO.C,U12*%
X9430000Y6890000D02*
X8630000Y6890000D01*
X9430000Y6890000D02*
X10230000Y6890000D01*
X9430000Y3770000D02*
X8630000Y3770000D01*
X9430000Y3770000D02*
X10230000Y3770000D01*
X10970000Y3490000D02*
X10490000Y3490000D01*
X10730000Y3820000D01*
X10970000Y3490000D01*
G36*
X10970000Y3490000D02*
G01*
X10490000Y3490000D01*
X10730000Y3820000D01*
X10970000Y3490000D01*
G37*
%TO.C,C60*%
X63270200Y13611364D02*
X63270200Y13827036D01*
X63990200Y13611364D02*
X63990200Y13827036D01*
D17*
%TO.C,U2*%
X24985896Y16805051D02*
X24985896Y16395491D01*
X24985896Y9950211D02*
X24985896Y9540651D01*
X24985896Y9540651D02*
X25395456Y9540651D01*
X25395456Y16805051D02*
X24985896Y16805051D01*
X31840736Y9540651D02*
X32250296Y9540651D01*
X32250296Y16805051D02*
X31840736Y16805051D01*
X32250296Y16395491D02*
X32250296Y16805051D01*
X32250296Y9540651D02*
X32250296Y9950211D01*
D11*
%TO.C,C50*%
X36557836Y4190000D02*
X36342164Y4190000D01*
X36557836Y3470000D02*
X36342164Y3470000D01*
%TO.C,U6*%
X12770000Y5680000D02*
X12770000Y6480000D01*
X12770000Y5680000D02*
X12770000Y4880000D01*
X15990000Y4680000D02*
X15990000Y6480000D01*
X12820000Y4380000D02*
X12490000Y4140000D01*
X12490000Y4620000D01*
X12820000Y4380000D01*
G36*
X12820000Y4380000D02*
G01*
X12490000Y4140000D01*
X12490000Y4620000D01*
X12820000Y4380000D01*
G37*
D10*
%TO.C,U17*%
X22969000Y8758000D02*
X24129000Y8758000D01*
X22969000Y7098000D02*
X24129000Y7098000D01*
X22609000Y8428000D02*
G75*
G02*
X22469000Y8428000I-70000J0D01*
G01*
X22469000Y8428000D02*
G75*
G02*
X22609000Y8428000I70000J0D01*
G01*
D11*
%TO.C,R28*%
X62079559Y14581800D02*
X62386841Y14581800D01*
X62079559Y13821800D02*
X62386841Y13821800D01*
%TO.C,C44*%
X54532600Y7832636D02*
X54532600Y7616964D01*
X55252600Y7832636D02*
X55252600Y7616964D01*
D16*
%TO.C,D2*%
X40805000Y18930000D02*
G75*
G02*
X40705000Y18930000I-50000J0D01*
G01*
X40705000Y18930000D02*
G75*
G02*
X40805000Y18930000I50000J0D01*
G01*
%TO.C,U8*%
X32190000Y7680000D02*
X32190000Y7480000D01*
X32190000Y7680000D02*
X32390000Y7680000D01*
X32190000Y3880000D02*
X32190000Y3700000D01*
X32190000Y3680000D02*
X32190000Y3880000D01*
X32190000Y3680000D02*
X32390000Y3680000D01*
X35190000Y3680000D02*
X34990000Y3680000D01*
X35190000Y3680000D02*
X35190000Y3880000D01*
X32020000Y7860000D02*
X31720000Y7860000D01*
X32020000Y8160000D01*
X32020000Y7860000D01*
G36*
X32020000Y7860000D02*
G01*
X31720000Y7860000D01*
X32020000Y8160000D01*
X32020000Y7860000D01*
G37*
X35190000Y7380000D02*
X34890000Y7680000D01*
X35190000Y7680000D01*
X35190000Y7380000D01*
G36*
X35190000Y7380000D02*
G01*
X34890000Y7680000D01*
X35190000Y7680000D01*
X35190000Y7380000D01*
G37*
D11*
%TO.C,J7*%
X4970000Y2630000D02*
X6300000Y2630000D01*
X4970000Y1300000D02*
X4970000Y2630000D01*
X7570000Y2630000D02*
X45730000Y2630000D01*
X7570000Y-30000D02*
X7570000Y2630000D01*
X7570000Y-30000D02*
X45730000Y-30000D01*
X45730000Y-30000D02*
X45730000Y2630000D01*
%TO.C,R7*%
X38610000Y4126359D02*
X38610000Y4433641D01*
X39370000Y4126359D02*
X39370000Y4433641D01*
%TO.C,C25*%
X22470000Y14337836D02*
X22470000Y14122164D01*
X23190000Y14337836D02*
X23190000Y14122164D01*
%TO.C,R11*%
X36286359Y9210000D02*
X36593641Y9210000D01*
X36286359Y8450000D02*
X36593641Y8450000D01*
%TO.C,RESET1*%
X34681051Y19518949D02*
X37981051Y19518949D01*
X34681051Y19218949D02*
X34681051Y19518949D01*
X34681051Y17018949D02*
X34681051Y16718949D01*
X34681051Y16718949D02*
X37981051Y16718949D01*
X37981051Y19518949D02*
X37981051Y19218949D01*
X37981051Y16718949D02*
X37981051Y17018949D01*
%TO.C,C16*%
X50731171Y7846109D02*
X50731171Y7630437D01*
X51451171Y7846109D02*
X51451171Y7630437D01*
%TO.C,C30*%
X30392164Y8840000D02*
X30607836Y8840000D01*
X30392164Y8120000D02*
X30607836Y8120000D01*
D10*
%TO.C,U16*%
X21953000Y4948000D02*
X23113000Y4948000D01*
X21953000Y3288000D02*
X23113000Y3288000D01*
X21593000Y4618000D02*
G75*
G02*
X21453000Y4618000I-70000J0D01*
G01*
X21453000Y4618000D02*
G75*
G02*
X21593000Y4618000I70000J0D01*
G01*
D11*
%TO.C,C17*%
X57494935Y9258273D02*
X57710607Y9258273D01*
X57494935Y8538273D02*
X57710607Y8538273D01*
%TO.C,C21*%
X32970000Y9972164D02*
X32970000Y10187836D01*
X33690000Y9972164D02*
X33690000Y10187836D01*
%TO.C,C51*%
X17470000Y8772164D02*
X17470000Y8987836D01*
X18190000Y8772164D02*
X18190000Y8987836D01*
%TO.C,R10*%
X36286359Y10210000D02*
X36593641Y10210000D01*
X36286359Y9450000D02*
X36593641Y9450000D01*
%TO.C,C19*%
X49337222Y18609386D02*
X49337222Y18825058D01*
X50057222Y18609386D02*
X50057222Y18825058D01*
%TO.C,R16*%
X15747150Y15472941D02*
X15747150Y15165659D01*
X16507150Y15472941D02*
X16507150Y15165659D01*
D16*
%TO.C,D3*%
X38892500Y18930000D02*
G75*
G02*
X38792500Y18930000I-50000J0D01*
G01*
X38792500Y18930000D02*
G75*
G02*
X38892500Y18930000I50000J0D01*
G01*
D11*
%TO.C,R19*%
X4686359Y4910000D02*
X4993641Y4910000D01*
X4686359Y4150000D02*
X4993641Y4150000D01*
%TO.C,C49*%
X8270000Y8637836D02*
X8270000Y8422164D01*
X8990000Y8637836D02*
X8990000Y8422164D01*
%TO.C,C3*%
X53537222Y18585437D02*
X53537222Y18801109D01*
X54257222Y18585437D02*
X54257222Y18801109D01*
%TO.C,C5*%
X45987836Y18290000D02*
X45772164Y18290000D01*
X45987836Y17570000D02*
X45772164Y17570000D01*
%TO.C,C12*%
X45993887Y19263949D02*
X45778215Y19263949D01*
X45993887Y18543949D02*
X45778215Y18543949D01*
%TO.C,Y3*%
X18120000Y13240000D02*
X18120000Y9820000D01*
X18120000Y9820000D02*
X22240000Y9820000D01*
%TO.C,C13*%
X45770000Y10737836D02*
X45770000Y10522164D01*
X46490000Y10737836D02*
X46490000Y10522164D01*
%TO.C,C28*%
X27627836Y8790000D02*
X27412164Y8790000D01*
X27627836Y8070000D02*
X27412164Y8070000D01*
%TO.C,C32*%
X36547836Y7840000D02*
X36332164Y7840000D01*
X36547836Y7120000D02*
X36332164Y7120000D01*
%TO.C,C52*%
X11670000Y6387836D02*
X11670000Y6172164D01*
X12390000Y6387836D02*
X12390000Y6172164D01*
%TO.C,C66*%
X6220000Y5107836D02*
X6220000Y4892164D01*
X6940000Y5107836D02*
X6940000Y4892164D01*
%TD*%
%LPC*%
D20*
%TO.C,R1*%
X45241171Y15633273D03*
X45241171Y16653273D03*
%TD*%
%TO.C,R31*%
X23880000Y11770000D03*
X23880000Y12790000D03*
%TD*%
D21*
%TO.C,Y1*%
X57581171Y18798273D03*
X57581171Y16598273D03*
X59281171Y16598273D03*
X59281171Y18798273D03*
%TD*%
D22*
%TO.C,C58*%
X14000000Y13330000D03*
X14960000Y13330000D03*
%TD*%
%TO.C,C10*%
X46201171Y15628273D03*
X47161171Y15628273D03*
%TD*%
D23*
%TO.C,R25*%
X40430000Y17930000D03*
X39410000Y17930000D03*
%TD*%
D24*
%TO.C,U1*%
X48957222Y16417222D03*
X48957222Y10017222D03*
X55357222Y16417222D03*
X55357222Y10017222D03*
D25*
X49957222Y16417222D03*
X51557222Y16417222D03*
X51957222Y16417222D03*
X52357222Y16417222D03*
X52757222Y16417222D03*
X53157222Y16417222D03*
X53557222Y16417222D03*
X53957222Y16417222D03*
X54357222Y16417222D03*
X48957222Y12217222D03*
X55357222Y12217222D03*
X49357222Y12017222D03*
X48957222Y11817222D03*
X55357222Y11817222D03*
X49357222Y11617222D03*
X48957222Y11417222D03*
X55357222Y11417222D03*
X49357222Y11217222D03*
X48957222Y11017222D03*
X55357222Y11017222D03*
X49357222Y10817222D03*
X48957222Y10617222D03*
X55357222Y10617222D03*
X49357222Y10417222D03*
X49757222Y10417222D03*
X50157222Y10417222D03*
X50557222Y10417222D03*
X50957222Y10417222D03*
X51357222Y10417222D03*
X51757222Y10417222D03*
X52157222Y10417222D03*
X52557222Y10417222D03*
X52957222Y10417222D03*
X53357222Y10417222D03*
X53757222Y10417222D03*
X54157222Y10417222D03*
X54557222Y10417222D03*
X54957222Y10417222D03*
X49557222Y10017222D03*
X49957222Y10017222D03*
X50357222Y10017222D03*
X50757222Y10017222D03*
X51157222Y10017222D03*
X51557222Y10017222D03*
X51957222Y10017222D03*
X52357222Y10017222D03*
X52757222Y10017222D03*
X53157222Y10017222D03*
X53557222Y10017222D03*
X53957222Y10017222D03*
X54357222Y10017222D03*
X54757222Y10017222D03*
X49357222Y16017222D03*
X49757222Y16017222D03*
X50157222Y16017222D03*
X50557222Y16017222D03*
X50957222Y16017222D03*
X51357222Y16017222D03*
X51757222Y16017222D03*
X52157222Y16017222D03*
X52557222Y16017222D03*
X52957222Y16017222D03*
X53357222Y16017222D03*
X53757222Y16017222D03*
X54157222Y16017222D03*
X54557222Y16017222D03*
X54957222Y16017222D03*
X48957222Y15817222D03*
X55357222Y15817222D03*
X49357222Y15617222D03*
X48957222Y15417222D03*
X55357222Y15417222D03*
D26*
X52357222Y13217222D03*
D25*
X49357222Y15217222D03*
X48957222Y15017222D03*
X55357222Y15017222D03*
X49357222Y14817222D03*
X48957222Y14617222D03*
X55357222Y14617222D03*
X49357222Y14417222D03*
X48957222Y14217222D03*
X55357222Y14217222D03*
X49357222Y14017222D03*
X48957222Y13817222D03*
X55357222Y13817222D03*
X49357222Y13617222D03*
X48957222Y13417222D03*
X55357222Y13417222D03*
X49357222Y13217222D03*
X48957222Y13017222D03*
X55357222Y13017222D03*
X49357222Y12817222D03*
X48957222Y12617222D03*
X55357222Y12617222D03*
X49357222Y12417222D03*
%TD*%
D27*
%TO.C,R33*%
X23880000Y14750000D03*
X23880000Y13730000D03*
%TD*%
D28*
%TO.C,J3*%
X4810000Y14320000D03*
X4810000Y8540000D03*
D29*
X5885000Y14630000D03*
X5885000Y13830000D03*
D30*
X5885000Y12680000D03*
X5885000Y11680000D03*
X5885000Y11180000D03*
X5885000Y10180000D03*
D29*
X5885000Y9030000D03*
X5885000Y8230000D03*
X5885000Y8230000D03*
X5885000Y9030000D03*
D30*
X5885000Y9680000D03*
X5885000Y10680000D03*
X5885000Y12180000D03*
X5885000Y13180000D03*
D29*
X5885000Y13830000D03*
X5885000Y14630000D03*
D31*
X5310000Y15750000D03*
D32*
X1130000Y15750000D03*
D31*
X5310000Y7110000D03*
D32*
X1130000Y7110000D03*
%TD*%
D33*
%TO.C,C27*%
X32330000Y17870000D03*
X32330000Y18830000D03*
%TD*%
D22*
%TO.C,C42*%
X44200000Y11080000D03*
X45160000Y11080000D03*
%TD*%
%TO.C,C41*%
X42800000Y4800000D03*
X43760000Y4800000D03*
%TD*%
D34*
%TO.C,C48*%
X7630000Y9030000D03*
X7630000Y8070000D03*
%TD*%
%TO.C,C23*%
X57127800Y14201800D03*
X57127800Y13241800D03*
%TD*%
D35*
%TO.C,U4*%
X38132050Y10195000D03*
X38132050Y9695000D03*
X38132050Y9195000D03*
X38132050Y8695000D03*
X38132050Y8195000D03*
X38132050Y7695000D03*
X38132050Y7195000D03*
X38132050Y6695000D03*
D36*
X38817050Y6010000D03*
X39317050Y6010000D03*
X39817050Y6010000D03*
X40317050Y6010000D03*
X40817050Y6010000D03*
X41317050Y6010000D03*
X41817050Y6010000D03*
X42317050Y6010000D03*
D35*
X43002050Y6695000D03*
X43002050Y7195000D03*
X43002050Y7695000D03*
X43002050Y8195000D03*
X43002050Y8695000D03*
X43002050Y9195000D03*
X43002050Y9695000D03*
X43002050Y10195000D03*
D36*
X42317050Y10880000D03*
X41817050Y10880000D03*
X41317050Y10880000D03*
X40817050Y10880000D03*
X40317050Y10880000D03*
X39817050Y10880000D03*
X39317050Y10880000D03*
X38817050Y10880000D03*
D37*
X40567050Y8445000D03*
%TD*%
D22*
%TO.C,C18*%
X57102400Y11712600D03*
X58062400Y11712600D03*
%TD*%
D20*
%TO.C,R21*%
X28230000Y17820000D03*
X28230000Y18840000D03*
%TD*%
D23*
%TO.C,R26*%
X58119800Y10772800D03*
X57099800Y10772800D03*
%TD*%
D34*
%TO.C,C9*%
X56001171Y19198273D03*
X56001171Y18238273D03*
%TD*%
D22*
%TO.C,C46*%
X19770000Y9330000D03*
X20730000Y9330000D03*
%TD*%
D33*
%TO.C,C45*%
X18830000Y8390000D03*
X18830000Y9350000D03*
%TD*%
D38*
%TO.C,U15*%
X7967000Y11767500D03*
D39*
X7892000Y11230000D03*
D38*
X7967000Y10692500D03*
X9667000Y10692500D03*
D39*
X9742000Y11230000D03*
D38*
X9667000Y11767500D03*
%TD*%
D33*
%TO.C,C8*%
X54997222Y18237222D03*
X54997222Y19197222D03*
%TD*%
D40*
%TO.C,Y4*%
X46150000Y12800000D03*
X43650000Y12800000D03*
%TD*%
D20*
%TO.C,R22*%
X29330000Y17830000D03*
X29330000Y18850000D03*
%TD*%
D41*
%TO.C,L3*%
X59012200Y14204400D03*
X58042200Y14204400D03*
%TD*%
D22*
%TO.C,C40*%
X42800000Y3800000D03*
X43760000Y3800000D03*
%TD*%
D27*
%TO.C,R12*%
X22830000Y12780000D03*
X22830000Y11760000D03*
%TD*%
D20*
%TO.C,R20*%
X27230000Y17820000D03*
X27230000Y18840000D03*
%TD*%
D42*
%TO.C,C55*%
X47650000Y7175000D03*
X47650000Y4225000D03*
%TD*%
D43*
%TO.C,J2*%
X9681051Y15258949D03*
X11681051Y15258949D03*
D44*
X7281051Y20458949D03*
X14081051Y20458949D03*
%TD*%
D45*
%TO.C,U7*%
X52084000Y4679000D03*
X53434000Y4679000D03*
X53434000Y5529000D03*
X52084000Y5529000D03*
D46*
X52759000Y3864000D03*
D47*
X51019000Y5104000D03*
X54499000Y5104000D03*
D46*
X52759000Y6344000D03*
%TD*%
D22*
%TO.C,C14*%
X57110971Y9827600D03*
X58070971Y9827600D03*
%TD*%
D34*
%TO.C,C54*%
X40840000Y4760000D03*
X40840000Y3800000D03*
%TD*%
D22*
%TO.C,C35*%
X20039300Y19165000D03*
X20999300Y19165000D03*
%TD*%
D48*
%TO.C,U9*%
X17325400Y10429748D03*
X17325400Y10929874D03*
X17325400Y11430000D03*
X17325400Y11930126D03*
X15730000Y11930126D03*
X15730000Y11430000D03*
X15730000Y10929874D03*
X15730000Y10429748D03*
%TD*%
D27*
%TO.C,R18*%
X26180000Y18840000D03*
X26180000Y17820000D03*
%TD*%
D34*
%TO.C,C36*%
X22830000Y10830000D03*
X22830000Y9870000D03*
%TD*%
D22*
%TO.C,C70*%
X25482000Y3864000D03*
X26442000Y3864000D03*
%TD*%
D49*
%TO.C,R15*%
X16017150Y19169300D03*
X17037150Y19169300D03*
%TD*%
D33*
%TO.C,C7*%
X51697222Y18237222D03*
X51697222Y19197222D03*
%TD*%
D23*
%TO.C,R6*%
X2150000Y5430000D03*
X1130000Y5430000D03*
%TD*%
%TO.C,R24*%
X42355000Y17930000D03*
X41335000Y17930000D03*
%TD*%
D50*
%TO.C,U5*%
X19180000Y6880000D03*
X18230000Y6880000D03*
X17280000Y6880000D03*
X17280000Y4180000D03*
X19180000Y4180000D03*
%TD*%
D20*
%TO.C,R8*%
X24130000Y16920000D03*
X24130000Y17940000D03*
%TD*%
D33*
%TO.C,C67*%
X12030000Y3850000D03*
X12030000Y4810000D03*
%TD*%
D27*
%TO.C,R30*%
X23880000Y10830000D03*
X23880000Y9810000D03*
%TD*%
D51*
%TO.C,C47*%
X18939300Y19165000D03*
X17979300Y19165000D03*
%TD*%
D52*
%TO.C,J5*%
X16460000Y21620000D03*
D53*
X19000000Y21620000D03*
X21540000Y21620000D03*
X24080000Y21620000D03*
X26620000Y21620000D03*
X29160000Y21620000D03*
X31700000Y21620000D03*
X34240000Y21620000D03*
X36780000Y21620000D03*
X39320000Y21620000D03*
X41860000Y21620000D03*
X44400000Y21620000D03*
%TD*%
D22*
%TO.C,C37*%
X37450000Y12130000D03*
X38410000Y12130000D03*
%TD*%
D51*
%TO.C,C33*%
X36920000Y6430000D03*
X35960000Y6430000D03*
%TD*%
D27*
%TO.C,R34*%
X16700000Y9410000D03*
X16700000Y8390000D03*
%TD*%
D54*
%TO.C,U18*%
X23129000Y6523000D03*
X23129000Y6023000D03*
X23129000Y5523000D03*
X23969000Y5523000D03*
X23969000Y6023000D03*
X23969000Y6523000D03*
%TD*%
D23*
%TO.C,R23*%
X44305000Y17930000D03*
X43285000Y17930000D03*
%TD*%
D55*
%TO.C,U20*%
X57000800Y6057200D03*
D56*
X57840800Y3987200D03*
X57840800Y4807200D03*
D57*
X57010800Y5427200D03*
D58*
X56370800Y6057200D03*
D59*
X57630800Y6067200D03*
D60*
X56990800Y6687200D03*
D56*
X56160800Y4807200D03*
X56160800Y3987200D03*
%TD*%
D42*
%TO.C,C56*%
X45300000Y8650000D03*
X45300000Y5700000D03*
%TD*%
D61*
%TO.C,D0*%
X25130000Y17845000D03*
X25130000Y18815000D03*
%TD*%
D22*
%TO.C,C53*%
X12780000Y8480000D03*
X13740000Y8480000D03*
%TD*%
D52*
%TO.C,J9*%
X52021051Y21620000D03*
D53*
X54561051Y21620000D03*
X57101051Y21620000D03*
X59641051Y21620000D03*
X62181051Y21620000D03*
X64721051Y21620000D03*
X67261051Y21620000D03*
%TD*%
D52*
%TO.C,J1*%
X52021051Y1338949D03*
D53*
X54561051Y1338949D03*
X57101051Y1338949D03*
X59641051Y1338949D03*
X62181051Y1338949D03*
X64721051Y1338949D03*
X67261051Y1338949D03*
%TD*%
D51*
%TO.C,C31*%
X34910000Y8480000D03*
X33950000Y8480000D03*
%TD*%
D34*
%TO.C,C38*%
X37940000Y4760000D03*
X37940000Y3800000D03*
%TD*%
D62*
%TO.C,D1*%
X43310000Y18930000D03*
X44280000Y18930000D03*
%TD*%
D23*
%TO.C,R4*%
X34340000Y11530000D03*
X33320000Y11530000D03*
%TD*%
D34*
%TO.C,C1*%
X44191171Y16610000D03*
X44191171Y15650000D03*
%TD*%
D63*
%TO.C,U3*%
X21480000Y14690000D03*
X21480000Y15198000D03*
X21480000Y15706000D03*
X21480000Y16214000D03*
X21480000Y16722000D03*
X21480000Y17230000D03*
D64*
X20809300Y17900700D03*
X20301300Y17900700D03*
X19793300Y17900700D03*
X19285300Y17900700D03*
X18777300Y17900700D03*
X18269300Y17900700D03*
D63*
X17598600Y17230000D03*
X17598600Y16722000D03*
X17598600Y16214000D03*
X17598600Y15706000D03*
X17598600Y15198000D03*
X17598600Y14690000D03*
D64*
X18269300Y14019300D03*
X18777300Y14019300D03*
X19285300Y14019300D03*
X19793300Y14019300D03*
X20301300Y14019300D03*
X20809300Y14019300D03*
D65*
X19539300Y15960000D03*
%TD*%
D34*
%TO.C,C57*%
X41830000Y4760000D03*
X41830000Y3800000D03*
%TD*%
D66*
%TO.C,Y2*%
X35430000Y13080000D03*
X35430000Y15280000D03*
X33730000Y15280000D03*
X33730000Y13080000D03*
%TD*%
D22*
%TO.C,C39*%
X44190000Y9980000D03*
X45150000Y9980000D03*
%TD*%
D23*
%TO.C,R3*%
X16940000Y13130000D03*
X15920000Y13130000D03*
%TD*%
D20*
%TO.C,R9*%
X34930000Y9520000D03*
X34930000Y10540000D03*
%TD*%
D33*
%TO.C,C29*%
X30330000Y17850000D03*
X30330000Y18810000D03*
%TD*%
D67*
%TO.C,L1*%
X50697222Y19203273D03*
X50697222Y18233273D03*
%TD*%
D54*
%TO.C,U13*%
X21097000Y6523000D03*
X21097000Y6023000D03*
X21097000Y5523000D03*
X21937000Y5523000D03*
X21937000Y6023000D03*
X21937000Y6523000D03*
%TD*%
D34*
%TO.C,C15*%
X50080000Y8230000D03*
X50080000Y7270000D03*
%TD*%
D61*
%TO.C,L2*%
X52897222Y18217222D03*
X52897222Y19187222D03*
%TD*%
D20*
%TO.C,R17*%
X16077150Y17149300D03*
X16077150Y18169300D03*
%TD*%
D49*
%TO.C,R13*%
X10620000Y8780000D03*
X11640000Y8780000D03*
%TD*%
D51*
%TO.C,C2*%
X5310000Y5530000D03*
X4350000Y5530000D03*
%TD*%
D33*
%TO.C,C65*%
X60836200Y13239200D03*
X60836200Y14199200D03*
%TD*%
D34*
%TO.C,C43*%
X43180000Y16610000D03*
X43180000Y15650000D03*
%TD*%
D68*
%TO.C,U10*%
X13905000Y10080000D03*
X13905000Y11030000D03*
X13905000Y11980000D03*
X11630000Y11980000D03*
X11630000Y10080000D03*
%TD*%
D34*
%TO.C,C11*%
X52441171Y8223273D03*
X52441171Y7263273D03*
%TD*%
D49*
%TO.C,R2*%
X7520000Y13330000D03*
X8540000Y13330000D03*
%TD*%
D54*
%TO.C,U11*%
X21097000Y8428000D03*
X21097000Y7928000D03*
X21097000Y7428000D03*
X21937000Y7428000D03*
X21937000Y7928000D03*
X21937000Y8428000D03*
%TD*%
D27*
%TO.C,R5*%
X31330000Y18840000D03*
X31330000Y17820000D03*
%TD*%
D49*
%TO.C,R14*%
X10620000Y7780000D03*
X11640000Y7780000D03*
%TD*%
D33*
%TO.C,C4*%
X48705000Y18255000D03*
X48705000Y19215000D03*
%TD*%
%TO.C,C24*%
X33380000Y16850000D03*
X33380000Y17810000D03*
%TD*%
D69*
%TO.C,U14*%
X26689400Y5399999D03*
D70*
X26689400Y5900000D03*
X26689400Y6400000D03*
D69*
X26689400Y6900001D03*
D71*
X25962000Y7102444D03*
D69*
X25234600Y6900001D03*
D70*
X25234600Y6400000D03*
X25234600Y5900000D03*
D69*
X25234600Y5399999D03*
D71*
X25962000Y5197556D03*
%TD*%
D23*
%TO.C,R27*%
X15750000Y8930000D03*
X14730000Y8930000D03*
%TD*%
D61*
%TO.C,D5*%
X9670000Y8045000D03*
X9670000Y9015000D03*
%TD*%
D72*
%TO.C,L4*%
X67414800Y15370200D03*
X67414800Y7750200D03*
%TD*%
D51*
%TO.C,C34*%
X36890000Y5430000D03*
X35930000Y5430000D03*
%TD*%
%TO.C,C26*%
X32960000Y8480000D03*
X32000000Y8480000D03*
%TD*%
D22*
%TO.C,C22*%
X35250000Y11530000D03*
X36210000Y11530000D03*
%TD*%
D55*
%TO.C,U19*%
X29723000Y6384000D03*
D56*
X30563000Y4314000D03*
X30563000Y5134000D03*
D57*
X29733000Y5754000D03*
D58*
X29093000Y6384000D03*
D59*
X30353000Y6394000D03*
D60*
X29713000Y7014000D03*
D56*
X28883000Y5134000D03*
X28883000Y4314000D03*
%TD*%
D51*
%TO.C,C6*%
X47171171Y16593273D03*
X46211171Y16593273D03*
%TD*%
D68*
%TO.C,U12*%
X10567500Y4380000D03*
X10567500Y5330000D03*
X10567500Y6280000D03*
X8292500Y6280000D03*
X8292500Y4380000D03*
%TD*%
D33*
%TO.C,C60*%
X63630200Y13239200D03*
X63630200Y14199200D03*
%TD*%
D73*
%TO.C,U2*%
X32019296Y10422851D03*
X32019296Y10922850D03*
X32019296Y11422852D03*
X32019296Y11922851D03*
X32019296Y12422850D03*
X32019296Y12922851D03*
X32019296Y13422851D03*
X32019296Y13922852D03*
X32019296Y14422851D03*
X32019296Y14922850D03*
X32019296Y15422852D03*
X32019296Y15922851D03*
D74*
X31368096Y16574051D03*
X30868097Y16574051D03*
X30368095Y16574051D03*
X29868096Y16574051D03*
X29368097Y16574051D03*
X28868096Y16574051D03*
X28368096Y16574051D03*
X27868095Y16574051D03*
X27368096Y16574051D03*
X26868097Y16574051D03*
X26368095Y16574051D03*
X25868096Y16574051D03*
D73*
X25216896Y15922851D03*
X25216896Y15422852D03*
X25216896Y14922850D03*
X25216896Y14422851D03*
X25216896Y13922852D03*
X25216896Y13422851D03*
X25216896Y12922851D03*
X25216896Y12422850D03*
X25216896Y11922851D03*
X25216896Y11422852D03*
X25216896Y10922850D03*
X25216896Y10422851D03*
D74*
X25868096Y9771651D03*
X26368095Y9771651D03*
X26868097Y9771651D03*
X27368096Y9771651D03*
X27868095Y9771651D03*
X28368096Y9771651D03*
X28868096Y9771651D03*
X29368097Y9771651D03*
X29868096Y9771651D03*
X30368095Y9771651D03*
X30868097Y9771651D03*
X31368096Y9771651D03*
D75*
X28618096Y13172851D03*
%TD*%
D51*
%TO.C,C50*%
X36930000Y3830000D03*
X35970000Y3830000D03*
%TD*%
D76*
%TO.C,U6*%
X13430000Y4230000D03*
X14380000Y4230000D03*
X15330000Y4230000D03*
X15330000Y6930000D03*
X13430000Y6930000D03*
%TD*%
D54*
%TO.C,U17*%
X23129000Y8428000D03*
X23129000Y7928000D03*
X23129000Y7428000D03*
X23969000Y7428000D03*
X23969000Y7928000D03*
X23969000Y8428000D03*
%TD*%
D49*
%TO.C,R28*%
X61723200Y14201800D03*
X62743200Y14201800D03*
%TD*%
D34*
%TO.C,C44*%
X54892600Y8204800D03*
X54892600Y7244800D03*
%TD*%
D62*
%TO.C,D2*%
X41360000Y18930000D03*
X42330000Y18930000D03*
%TD*%
D77*
%TO.C,U8*%
X33265000Y6355000D03*
X33265000Y5005000D03*
X34115000Y5005000D03*
X34115000Y6355000D03*
D78*
X32450000Y5680000D03*
D79*
X33690000Y7420000D03*
X33690000Y3940000D03*
D78*
X34930000Y5680000D03*
%TD*%
D52*
%TO.C,J7*%
X6300000Y1300000D03*
D53*
X8840000Y1300000D03*
X11380000Y1300000D03*
X13920000Y1300000D03*
X16460000Y1300000D03*
X19000000Y1300000D03*
X21540000Y1300000D03*
X24080000Y1300000D03*
X26620000Y1300000D03*
X29160000Y1300000D03*
X31700000Y1300000D03*
X34240000Y1300000D03*
X36780000Y1300000D03*
X39320000Y1300000D03*
X41860000Y1300000D03*
X44400000Y1300000D03*
%TD*%
D20*
%TO.C,R7*%
X38990000Y3770000D03*
X38990000Y4790000D03*
%TD*%
D34*
%TO.C,C25*%
X22830000Y14710000D03*
X22830000Y13750000D03*
%TD*%
D49*
%TO.C,R11*%
X35930000Y8830000D03*
X36950000Y8830000D03*
%TD*%
D80*
%TO.C,RESET1*%
X34631051Y18118949D03*
X38031051Y18118949D03*
%TD*%
D34*
%TO.C,C16*%
X51091171Y8218273D03*
X51091171Y7258273D03*
%TD*%
D22*
%TO.C,C30*%
X30020000Y8480000D03*
X30980000Y8480000D03*
%TD*%
D54*
%TO.C,U16*%
X22113000Y4618000D03*
X22113000Y4118000D03*
X22113000Y3618000D03*
X22953000Y3618000D03*
X22953000Y4118000D03*
X22953000Y4618000D03*
%TD*%
D22*
%TO.C,C17*%
X57122771Y8898273D03*
X58082771Y8898273D03*
%TD*%
D33*
%TO.C,C21*%
X33330000Y9600000D03*
X33330000Y10560000D03*
%TD*%
%TO.C,C51*%
X17830000Y8400000D03*
X17830000Y9360000D03*
%TD*%
D49*
%TO.C,R10*%
X35930000Y9830000D03*
X36950000Y9830000D03*
%TD*%
D33*
%TO.C,C19*%
X49697222Y18237222D03*
X49697222Y19197222D03*
%TD*%
D27*
%TO.C,R16*%
X16127150Y15829300D03*
X16127150Y14809300D03*
%TD*%
D62*
%TO.C,D3*%
X39447500Y18930000D03*
X40417500Y18930000D03*
%TD*%
D49*
%TO.C,R19*%
X4330000Y4530000D03*
X5350000Y4530000D03*
%TD*%
D34*
%TO.C,C49*%
X8630000Y9010000D03*
X8630000Y8050000D03*
%TD*%
D33*
%TO.C,C3*%
X53897222Y18213273D03*
X53897222Y19173273D03*
%TD*%
D51*
%TO.C,C5*%
X46360000Y17930000D03*
X45400000Y17930000D03*
%TD*%
%TO.C,C12*%
X46366051Y18903949D03*
X45406051Y18903949D03*
%TD*%
D81*
%TO.C,Y3*%
X19080000Y10680000D03*
X21280000Y10680000D03*
X21280000Y12380000D03*
X19080000Y12380000D03*
%TD*%
D34*
%TO.C,C13*%
X46130000Y11110000D03*
X46130000Y10150000D03*
%TD*%
D51*
%TO.C,C28*%
X28000000Y8430000D03*
X27040000Y8430000D03*
%TD*%
%TO.C,C32*%
X36920000Y7480000D03*
X35960000Y7480000D03*
%TD*%
D34*
%TO.C,C52*%
X12030000Y6760000D03*
X12030000Y5800000D03*
%TD*%
%TO.C,C66*%
X6580000Y5480000D03*
X6580000Y4520000D03*
%TD*%
%LPD*%
M02*
