%TF.GenerationSoftware,KiCad,Pcbnew,9.0.5*%
%TF.CreationDate,2025-12-23T10:30:06+01:00*%
%TF.ProjectId,AudioPlayground,41756469-6f50-46c6-9179-67726f756e64,rev?*%
%TF.SameCoordinates,PX5a9dfc5PY89ae535*%
%TF.FileFunction,Soldermask,Bot*%
%TF.FilePolarity,Negative*%
%FSLAX46Y46*%
G04 Gerber Fmt 4.6, Leading zero omitted, Abs format (unit mm)*
G04 Created by KiCad (PCBNEW 9.0.5) date 2025-12-23 10:30:06*
%MOMM*%
%LPD*%
G01*
G04 APERTURE LIST*
%ADD10C,1.000000*%
%ADD11C,0.650000*%
%ADD12O,2.100000X1.000000*%
%ADD13O,1.800000X1.000000*%
%ADD14R,1.700000X1.700000*%
%ADD15C,1.700000*%
%ADD16C,0.350000*%
%ADD17C,0.990600*%
G04 APERTURE END LIST*
D10*
%TO.C,TP11*%
X27917800Y5540400D03*
%TD*%
%TO.C,TP10*%
X27892400Y7547000D03*
%TD*%
%TO.C,TP9*%
X56035600Y7445400D03*
%TD*%
%TO.C,TP8*%
X58042200Y7470800D03*
%TD*%
D11*
%TO.C,J3*%
X4810000Y14320000D03*
X4810000Y8540000D03*
D12*
X5310000Y15750000D03*
D13*
X1130000Y15750000D03*
D12*
X5310000Y7110000D03*
D13*
X1130000Y7110000D03*
%TD*%
D14*
%TO.C,J5*%
X16460000Y21620000D03*
D15*
X19000000Y21620000D03*
X21540000Y21620000D03*
X24080000Y21620000D03*
X26620000Y21620000D03*
X29160000Y21620000D03*
X31700000Y21620000D03*
X34240000Y21620000D03*
X36780000Y21620000D03*
X39320000Y21620000D03*
X41860000Y21620000D03*
X44400000Y21620000D03*
%TD*%
D16*
%TO.C,U20*%
X57000800Y6057200D03*
%TD*%
D14*
%TO.C,J9*%
X52021051Y21620000D03*
D15*
X54561051Y21620000D03*
X57101051Y21620000D03*
X59641051Y21620000D03*
X62181051Y21620000D03*
X64721051Y21620000D03*
X67261051Y21620000D03*
%TD*%
D14*
%TO.C,J1*%
X52021051Y1338949D03*
D15*
X54561051Y1338949D03*
X57101051Y1338949D03*
X59641051Y1338949D03*
X62181051Y1338949D03*
X64721051Y1338949D03*
X67261051Y1338949D03*
%TD*%
D16*
%TO.C,U19*%
X29723000Y6384000D03*
%TD*%
D14*
%TO.C,J7*%
X6300000Y1300000D03*
D15*
X8840000Y1300000D03*
X11380000Y1300000D03*
X13920000Y1300000D03*
X16460000Y1300000D03*
X19000000Y1300000D03*
X21540000Y1300000D03*
X24080000Y1300000D03*
X26620000Y1300000D03*
X29160000Y1300000D03*
X31700000Y1300000D03*
X34240000Y1300000D03*
X36780000Y1300000D03*
X39320000Y1300000D03*
X41860000Y1300000D03*
X44400000Y1300000D03*
%TD*%
D17*
%TO.C,J4*%
X61395000Y5819800D03*
X60379000Y10899800D03*
X62411000Y10899800D03*
%TD*%
D10*
%TO.C,TP5*%
X40681051Y16568949D03*
%TD*%
%TO.C,TP4*%
X38631051Y16618949D03*
%TD*%
%TO.C,TP7*%
X43431051Y14518949D03*
%TD*%
%TO.C,TP6*%
X42831051Y16518949D03*
%TD*%
%TO.C,TP3*%
X37550000Y13650000D03*
%TD*%
M02*
