%TF.GenerationSoftware,KiCad,Pcbnew,9.0.5*%
%TF.CreationDate,2025-11-14T11:06:28+01:00*%
%TF.ProjectId,AudioPlayground,41756469-6f50-46c6-9179-67726f756e64,rev?*%
%TF.SameCoordinates,PX5a9dfc5PY89ae535*%
%TF.FileFunction,Soldermask,Top*%
%TF.FilePolarity,Negative*%
%FSLAX46Y46*%
G04 Gerber Fmt 4.6, Leading zero omitted, Abs format (unit mm)*
G04 Created by KiCad (PCBNEW 9.0.5) date 2025-11-14 11:06:28*
%MOMM*%
%LPD*%
G01*
G04 APERTURE LIST*
G04 Aperture macros list*
%AMRoundRect*
0 Rectangle with rounded corners*
0 $1 Rounding radius*
0 $2 $3 $4 $5 $6 $7 $8 $9 X,Y pos of 4 corners*
0 Add a 4 corners polygon primitive as box body*
4,1,4,$2,$3,$4,$5,$6,$7,$8,$9,$2,$3,0*
0 Add four circle primitives for the rounded corners*
1,1,$1+$1,$2,$3*
1,1,$1+$1,$4,$5*
1,1,$1+$1,$6,$7*
1,1,$1+$1,$8,$9*
0 Add four rect primitives between the rounded corners*
20,1,$1+$1,$2,$3,$4,$5,0*
20,1,$1+$1,$4,$5,$6,$7,0*
20,1,$1+$1,$6,$7,$8,$9,0*
20,1,$1+$1,$8,$9,$2,$3,0*%
G04 Aperture macros list end*
%ADD10RoundRect,0.135000X0.185000X-0.135000X0.185000X0.135000X-0.185000X0.135000X-0.185000X-0.135000X0*%
%ADD11RoundRect,0.250000X-0.350000X0.450000X-0.350000X-0.450000X0.350000X-0.450000X0.350000X0.450000X0*%
%ADD12RoundRect,0.140000X-0.140000X-0.170000X0.140000X-0.170000X0.140000X0.170000X-0.140000X0.170000X0*%
%ADD13RoundRect,0.135000X0.135000X0.185000X-0.135000X0.185000X-0.135000X-0.185000X0.135000X-0.185000X0*%
%ADD14C,0.400000*%
%ADD15C,0.200000*%
%ADD16R,5.400000X5.000000*%
%ADD17RoundRect,0.135000X-0.185000X0.135000X-0.185000X-0.135000X0.185000X-0.135000X0.185000X0.135000X0*%
%ADD18RoundRect,0.150000X-0.425000X0.150000X-0.425000X-0.150000X0.425000X-0.150000X0.425000X0.150000X0*%
%ADD19RoundRect,0.075000X-0.500000X0.075000X-0.500000X-0.075000X0.500000X-0.075000X0.500000X0.075000X0*%
%ADD20O,2.100000X1.000000*%
%ADD21O,1.800000X1.000000*%
%ADD22RoundRect,0.140000X0.170000X-0.140000X0.170000X0.140000X-0.170000X0.140000X-0.170000X-0.140000X0*%
%ADD23RoundRect,0.140000X-0.170000X0.140000X-0.170000X-0.140000X0.170000X-0.140000X0.170000X0.140000X0*%
%ADD24RoundRect,0.046250X-0.423750X-0.138750X0.423750X-0.138750X0.423750X0.138750X-0.423750X0.138750X0*%
%ADD25RoundRect,0.046250X-0.138750X-0.423750X0.138750X-0.423750X0.138750X0.423750X-0.138750X0.423750X0*%
%ADD26RoundRect,0.050000X-1.050000X-1.050000X1.050000X-1.050000X1.050000X1.050000X-1.050000X1.050000X0*%
%ADD27RoundRect,0.093750X-0.156250X-0.093750X0.156250X-0.093750X0.156250X0.093750X-0.156250X0.093750X0*%
%ADD28RoundRect,0.075000X-0.250000X-0.075000X0.250000X-0.075000X0.250000X0.075000X-0.250000X0.075000X0*%
%ADD29R,1.000000X1.800000*%
%ADD30RoundRect,0.147500X0.147500X0.172500X-0.147500X0.172500X-0.147500X-0.172500X0.147500X-0.172500X0*%
%ADD31RoundRect,0.250000X-0.650000X0.325000X-0.650000X-0.325000X0.650000X-0.325000X0.650000X0.325000X0*%
%ADD32RoundRect,0.050800X-0.500000X-2.300000X0.500000X-2.300000X0.500000X2.300000X-0.500000X2.300000X0*%
%ADD33RoundRect,0.050800X0.800000X-1.700000X0.800000X1.700000X-0.800000X1.700000X-0.800000X-1.700000X0*%
%ADD34RoundRect,0.082500X-0.442500X0.192500X-0.442500X-0.192500X0.442500X-0.192500X0.442500X0.192500X0*%
%ADD35RoundRect,0.072000X-1.128000X0.168000X-1.128000X-0.168000X1.128000X-0.168000X1.128000X0.168000X0*%
%ADD36RoundRect,0.072000X-0.168000X0.628000X-0.168000X-0.628000X0.168000X-0.628000X0.168000X0.628000X0*%
%ADD37R,0.706399X0.229400*%
%ADD38RoundRect,0.135000X-0.135000X-0.185000X0.135000X-0.185000X0.135000X0.185000X-0.135000X0.185000X0*%
%ADD39RoundRect,0.162500X-0.162500X0.617500X-0.162500X-0.617500X0.162500X-0.617500X0.162500X0.617500X0*%
%ADD40RoundRect,0.140000X0.140000X0.170000X-0.140000X0.170000X-0.140000X-0.170000X0.140000X-0.170000X0*%
%ADD41R,1.700000X1.700000*%
%ADD42C,1.700000*%
%ADD43RoundRect,0.147500X0.172500X-0.147500X0.172500X0.147500X-0.172500X0.147500X-0.172500X-0.147500X0*%
%ADD44RoundRect,0.147500X-0.147500X-0.172500X0.147500X-0.172500X0.147500X0.172500X-0.147500X0.172500X0*%
%ADD45R,0.807999X0.254800*%
%ADD46R,0.254800X0.807999*%
%ADD47R,2.489200X2.489200*%
%ADD48RoundRect,0.250000X0.350000X-0.450000X0.350000X0.450000X-0.350000X0.450000X-0.350000X-0.450000X0*%
%ADD49RoundRect,0.147500X-0.172500X0.147500X-0.172500X-0.147500X0.172500X-0.147500X0.172500X0.147500X0*%
%ADD50RoundRect,0.087500X0.250000X0.087500X-0.250000X0.087500X-0.250000X-0.087500X0.250000X-0.087500X0*%
%ADD51RoundRect,0.150000X0.512500X0.150000X-0.512500X0.150000X-0.512500X-0.150000X0.512500X-0.150000X0*%
%ADD52R,0.704800X0.300000*%
%ADD53R,0.704850X0.249936*%
%ADD54R,0.350012X0.754888*%
%ADD55R,3.200000X1.300000*%
%ADD56R,0.807999X0.279800*%
%ADD57R,0.279800X0.807999*%
%ADD58R,5.359400X5.359400*%
%ADD59RoundRect,0.162500X0.162500X-0.617500X0.162500X0.617500X-0.162500X0.617500X-0.162500X-0.617500X0*%
%ADD60C,1.000000*%
%ADD61RoundRect,0.082500X-0.192500X-0.442500X0.192500X-0.442500X0.192500X0.442500X-0.192500X0.442500X0*%
%ADD62RoundRect,0.072000X-0.168000X-1.128000X0.168000X-1.128000X0.168000X1.128000X-0.168000X1.128000X0*%
%ADD63RoundRect,0.072000X-0.628000X-0.168000X0.628000X-0.168000X0.628000X0.168000X-0.628000X0.168000X0*%
%ADD64R,0.900000X1.700000*%
%ADD65RoundRect,0.062500X-0.062500X-0.350000X0.062500X-0.350000X0.062500X0.350000X-0.062500X0.350000X0*%
%ADD66RoundRect,0.062500X-0.350000X-0.062500X0.350000X-0.062500X0.350000X0.062500X-0.350000X0.062500X0*%
%ADD67R,1.000000X3.000000*%
%ADD68RoundRect,0.250000X-0.450000X-0.350000X0.450000X-0.350000X0.450000X0.350000X-0.450000X0.350000X0*%
G04 APERTURE END LIST*
D10*
%TO.C,R1*%
X45241171Y15633273D03*
X45241171Y16653273D03*
%TD*%
%TO.C,R31*%
X23880000Y11770000D03*
X23880000Y12790000D03*
%TD*%
D11*
%TO.C,Y1*%
X57581171Y18798273D03*
X57581171Y16598273D03*
X59281171Y16598273D03*
X59281171Y18798273D03*
%TD*%
D12*
%TO.C,C58*%
X14000000Y13330000D03*
X14960000Y13330000D03*
%TD*%
%TO.C,C10*%
X46201171Y15628273D03*
X47161171Y15628273D03*
%TD*%
D13*
%TO.C,R25*%
X40430000Y17930000D03*
X39410000Y17930000D03*
%TD*%
D14*
%TO.C,U1*%
X48957222Y16417222D03*
X48957222Y10017222D03*
X55357222Y16417222D03*
X55357222Y10017222D03*
D15*
X49957222Y16417222D03*
X51557222Y16417222D03*
X51957222Y16417222D03*
X52357222Y16417222D03*
X52757222Y16417222D03*
X53157222Y16417222D03*
X53557222Y16417222D03*
X53957222Y16417222D03*
X54357222Y16417222D03*
X48957222Y12217222D03*
X55357222Y12217222D03*
X49357222Y12017222D03*
X48957222Y11817222D03*
X55357222Y11817222D03*
X49357222Y11617222D03*
X48957222Y11417222D03*
X55357222Y11417222D03*
X49357222Y11217222D03*
X48957222Y11017222D03*
X55357222Y11017222D03*
X49357222Y10817222D03*
X48957222Y10617222D03*
X55357222Y10617222D03*
X49357222Y10417222D03*
X49757222Y10417222D03*
X50157222Y10417222D03*
X50557222Y10417222D03*
X50957222Y10417222D03*
X51357222Y10417222D03*
X51757222Y10417222D03*
X52157222Y10417222D03*
X52557222Y10417222D03*
X52957222Y10417222D03*
X53357222Y10417222D03*
X53757222Y10417222D03*
X54157222Y10417222D03*
X54557222Y10417222D03*
X54957222Y10417222D03*
X49557222Y10017222D03*
X49957222Y10017222D03*
X50357222Y10017222D03*
X50757222Y10017222D03*
X51157222Y10017222D03*
X51557222Y10017222D03*
X51957222Y10017222D03*
X52357222Y10017222D03*
X52757222Y10017222D03*
X53157222Y10017222D03*
X53557222Y10017222D03*
X53957222Y10017222D03*
X54357222Y10017222D03*
X54757222Y10017222D03*
X49357222Y16017222D03*
X49757222Y16017222D03*
X50157222Y16017222D03*
X50557222Y16017222D03*
X50957222Y16017222D03*
X51357222Y16017222D03*
X51757222Y16017222D03*
X52157222Y16017222D03*
X52557222Y16017222D03*
X52957222Y16017222D03*
X53357222Y16017222D03*
X53757222Y16017222D03*
X54157222Y16017222D03*
X54557222Y16017222D03*
X54957222Y16017222D03*
X48957222Y15817222D03*
X55357222Y15817222D03*
X49357222Y15617222D03*
X48957222Y15417222D03*
X55357222Y15417222D03*
D16*
X52357222Y13217222D03*
D15*
X49357222Y15217222D03*
X48957222Y15017222D03*
X55357222Y15017222D03*
X49357222Y14817222D03*
X48957222Y14617222D03*
X55357222Y14617222D03*
X49357222Y14417222D03*
X48957222Y14217222D03*
X55357222Y14217222D03*
X49357222Y14017222D03*
X48957222Y13817222D03*
X55357222Y13817222D03*
X49357222Y13617222D03*
X48957222Y13417222D03*
X55357222Y13417222D03*
X49357222Y13217222D03*
X48957222Y13017222D03*
X55357222Y13017222D03*
X49357222Y12817222D03*
X48957222Y12617222D03*
X55357222Y12617222D03*
X49357222Y12417222D03*
%TD*%
D17*
%TO.C,R33*%
X23880000Y14750000D03*
X23880000Y13730000D03*
%TD*%
D18*
%TO.C,J3*%
X5885000Y14630000D03*
X5885000Y13830000D03*
D19*
X5885000Y12680000D03*
X5885000Y11680000D03*
X5885000Y11180000D03*
X5885000Y10180000D03*
D18*
X5885000Y9030000D03*
X5885000Y8230000D03*
X5885000Y8230000D03*
X5885000Y9030000D03*
D19*
X5885000Y9680000D03*
X5885000Y10680000D03*
X5885000Y12180000D03*
X5885000Y13180000D03*
D18*
X5885000Y13830000D03*
X5885000Y14630000D03*
D20*
X5310000Y15750000D03*
D21*
X1130000Y15750000D03*
D20*
X5310000Y7110000D03*
D21*
X1130000Y7110000D03*
%TD*%
D10*
%TO.C,R37*%
X31481051Y3558949D03*
X31481051Y4578949D03*
%TD*%
D22*
%TO.C,C27*%
X32330000Y17870000D03*
X32330000Y18830000D03*
%TD*%
D12*
%TO.C,C42*%
X44200000Y11080000D03*
X45160000Y11080000D03*
%TD*%
%TO.C,C41*%
X42800000Y4800000D03*
X43760000Y4800000D03*
%TD*%
D23*
%TO.C,C48*%
X7630000Y9030000D03*
X7630000Y8070000D03*
%TD*%
%TO.C,C23*%
X57127800Y14201800D03*
X57127800Y13241800D03*
%TD*%
D24*
%TO.C,U4*%
X38132050Y10195000D03*
X38132050Y9695000D03*
X38132050Y9195000D03*
X38132050Y8695000D03*
X38132050Y8195000D03*
X38132050Y7695000D03*
X38132050Y7195000D03*
X38132050Y6695000D03*
D25*
X38817050Y6010000D03*
X39317050Y6010000D03*
X39817050Y6010000D03*
X40317050Y6010000D03*
X40817050Y6010000D03*
X41317050Y6010000D03*
X41817050Y6010000D03*
X42317050Y6010000D03*
D24*
X43002050Y6695000D03*
X43002050Y7195000D03*
X43002050Y7695000D03*
X43002050Y8195000D03*
X43002050Y8695000D03*
X43002050Y9195000D03*
X43002050Y9695000D03*
X43002050Y10195000D03*
D25*
X42317050Y10880000D03*
X41817050Y10880000D03*
X41317050Y10880000D03*
X40817050Y10880000D03*
X40317050Y10880000D03*
X39817050Y10880000D03*
X39317050Y10880000D03*
X38817050Y10880000D03*
D26*
X40567050Y8445000D03*
%TD*%
D12*
%TO.C,C18*%
X57102400Y11712600D03*
X58062400Y11712600D03*
%TD*%
D10*
%TO.C,R21*%
X28230000Y17820000D03*
X28230000Y18840000D03*
%TD*%
D13*
%TO.C,R26*%
X58119800Y10772800D03*
X57099800Y10772800D03*
%TD*%
D23*
%TO.C,C9*%
X56001171Y19198273D03*
X56001171Y18238273D03*
%TD*%
D12*
%TO.C,C46*%
X19770000Y9330000D03*
X20730000Y9330000D03*
%TD*%
D22*
%TO.C,C45*%
X18830000Y8390000D03*
X18830000Y9350000D03*
%TD*%
D27*
%TO.C,U15*%
X7967000Y11767500D03*
D28*
X7892000Y11230000D03*
D27*
X7967000Y10692500D03*
X9667000Y10692500D03*
D28*
X9742000Y11230000D03*
D27*
X9667000Y11767500D03*
%TD*%
D22*
%TO.C,C8*%
X54997222Y18237222D03*
X54997222Y19197222D03*
%TD*%
D29*
%TO.C,Y4*%
X46150000Y12800000D03*
X43650000Y12800000D03*
%TD*%
D10*
%TO.C,R22*%
X29330000Y17830000D03*
X29330000Y18850000D03*
%TD*%
D30*
%TO.C,L3*%
X59012200Y14204400D03*
X58042200Y14204400D03*
%TD*%
D12*
%TO.C,C40*%
X42800000Y3800000D03*
X43760000Y3800000D03*
%TD*%
D17*
%TO.C,R12*%
X22830000Y12780000D03*
X22830000Y11760000D03*
%TD*%
D10*
%TO.C,R20*%
X27230000Y17820000D03*
X27230000Y18840000D03*
%TD*%
D31*
%TO.C,C55*%
X47650000Y7175000D03*
X47650000Y4225000D03*
%TD*%
D32*
%TO.C,J2*%
X9681051Y15258949D03*
X11681051Y15258949D03*
D33*
X7281051Y20458949D03*
X14081051Y20458949D03*
%TD*%
D34*
%TO.C,U7*%
X57785000Y6045000D03*
X56435000Y6045000D03*
X56435000Y5195000D03*
X57785000Y5195000D03*
D35*
X57110000Y6860000D03*
D36*
X58850000Y5620000D03*
X55370000Y5620000D03*
D35*
X57110000Y4380000D03*
%TD*%
D12*
%TO.C,C14*%
X57110971Y9827600D03*
X58070971Y9827600D03*
%TD*%
D23*
%TO.C,C54*%
X40840000Y4760000D03*
X40840000Y3800000D03*
%TD*%
D12*
%TO.C,C35*%
X20039300Y19165000D03*
X20999300Y19165000D03*
%TD*%
D37*
%TO.C,U9*%
X17325400Y10429748D03*
X17325400Y10929874D03*
X17325400Y11430000D03*
X17325400Y11930126D03*
X15730000Y11930126D03*
X15730000Y11430000D03*
X15730000Y10929874D03*
X15730000Y10429748D03*
%TD*%
D17*
%TO.C,R18*%
X26180000Y18840000D03*
X26180000Y17820000D03*
%TD*%
D12*
%TO.C,C69*%
X25075000Y7400000D03*
X26035000Y7400000D03*
%TD*%
D23*
%TO.C,C36*%
X22830000Y10830000D03*
X22830000Y9870000D03*
%TD*%
D12*
%TO.C,C70*%
X28021051Y3568949D03*
X28981051Y3568949D03*
%TD*%
D38*
%TO.C,R15*%
X16017150Y19169300D03*
X17037150Y19169300D03*
%TD*%
D22*
%TO.C,C7*%
X51697222Y18237222D03*
X51697222Y19197222D03*
%TD*%
D10*
%TO.C,R36*%
X28281051Y4548949D03*
X28281051Y5568949D03*
%TD*%
D13*
%TO.C,R6*%
X2150000Y5430000D03*
X1130000Y5430000D03*
%TD*%
%TO.C,R24*%
X42355000Y17930000D03*
X41335000Y17930000D03*
%TD*%
D39*
%TO.C,U5*%
X19180000Y6880000D03*
X18230000Y6880000D03*
X17280000Y6880000D03*
X17280000Y4180000D03*
X19180000Y4180000D03*
%TD*%
D10*
%TO.C,R8*%
X24130000Y16920000D03*
X24130000Y17940000D03*
%TD*%
D22*
%TO.C,C67*%
X12030000Y3850000D03*
X12030000Y4810000D03*
%TD*%
D17*
%TO.C,R30*%
X23880000Y10830000D03*
X23880000Y9810000D03*
%TD*%
D40*
%TO.C,C47*%
X18939300Y19165000D03*
X17979300Y19165000D03*
%TD*%
D41*
%TO.C,J5*%
X16460000Y21620000D03*
D42*
X19000000Y21620000D03*
X21540000Y21620000D03*
X24080000Y21620000D03*
X26620000Y21620000D03*
X29160000Y21620000D03*
X31700000Y21620000D03*
X34240000Y21620000D03*
X36780000Y21620000D03*
X39320000Y21620000D03*
X41860000Y21620000D03*
X44400000Y21620000D03*
%TD*%
D12*
%TO.C,C37*%
X37450000Y12130000D03*
X38410000Y12130000D03*
%TD*%
%TO.C,C68*%
X30521051Y7468949D03*
X31481051Y7468949D03*
%TD*%
D13*
%TO.C,R32*%
X26050000Y8430000D03*
X25030000Y8430000D03*
%TD*%
D40*
%TO.C,C33*%
X36920000Y6430000D03*
X35960000Y6430000D03*
%TD*%
D17*
%TO.C,R34*%
X16700000Y9410000D03*
X16700000Y8390000D03*
%TD*%
D13*
%TO.C,R23*%
X44305000Y17930000D03*
X43285000Y17930000D03*
%TD*%
D31*
%TO.C,C56*%
X45300000Y8650000D03*
X45300000Y5700000D03*
%TD*%
D43*
%TO.C,D0*%
X25130000Y17845000D03*
X25130000Y18815000D03*
%TD*%
D12*
%TO.C,C53*%
X12780000Y8480000D03*
X13740000Y8480000D03*
%TD*%
D41*
%TO.C,J9*%
X52021051Y21620000D03*
D42*
X54561051Y21620000D03*
X57101051Y21620000D03*
X59641051Y21620000D03*
X62181051Y21620000D03*
X64721051Y21620000D03*
X67261051Y21620000D03*
%TD*%
D41*
%TO.C,J1*%
X52021051Y1338949D03*
D42*
X54561051Y1338949D03*
X57101051Y1338949D03*
X59641051Y1338949D03*
X62181051Y1338949D03*
X64721051Y1338949D03*
X67261051Y1338949D03*
%TD*%
D40*
%TO.C,C31*%
X34910000Y8480000D03*
X33950000Y8480000D03*
%TD*%
D23*
%TO.C,C38*%
X37940000Y4760000D03*
X37940000Y3800000D03*
%TD*%
D44*
%TO.C,D1*%
X43310000Y18930000D03*
X44280000Y18930000D03*
%TD*%
D13*
%TO.C,R4*%
X34340000Y11530000D03*
X33320000Y11530000D03*
%TD*%
D23*
%TO.C,C1*%
X44191171Y16610000D03*
X44191171Y15650000D03*
%TD*%
D45*
%TO.C,U3*%
X21480000Y14690000D03*
X21480000Y15198000D03*
X21480000Y15706000D03*
X21480000Y16214000D03*
X21480000Y16722000D03*
X21480000Y17230000D03*
D46*
X20809300Y17900700D03*
X20301300Y17900700D03*
X19793300Y17900700D03*
X19285300Y17900700D03*
X18777300Y17900700D03*
X18269300Y17900700D03*
D45*
X17598600Y17230000D03*
X17598600Y16722000D03*
X17598600Y16214000D03*
X17598600Y15706000D03*
X17598600Y15198000D03*
X17598600Y14690000D03*
D46*
X18269300Y14019300D03*
X18777300Y14019300D03*
X19285300Y14019300D03*
X19793300Y14019300D03*
X20301300Y14019300D03*
X20809300Y14019300D03*
D47*
X19539300Y15960000D03*
%TD*%
D23*
%TO.C,C57*%
X41830000Y4760000D03*
X41830000Y3800000D03*
%TD*%
D48*
%TO.C,Y2*%
X35430000Y13080000D03*
X35430000Y15280000D03*
X33730000Y15280000D03*
X33730000Y13080000D03*
%TD*%
D12*
%TO.C,C39*%
X44190000Y9980000D03*
X45150000Y9980000D03*
%TD*%
D13*
%TO.C,R3*%
X16940000Y13130000D03*
X15920000Y13130000D03*
%TD*%
D10*
%TO.C,R9*%
X34930000Y9520000D03*
X34930000Y10540000D03*
%TD*%
D22*
%TO.C,C29*%
X30330000Y17850000D03*
X30330000Y18810000D03*
%TD*%
D49*
%TO.C,L1*%
X50697222Y19203273D03*
X50697222Y18233273D03*
%TD*%
D23*
%TO.C,C20*%
X59921800Y14201800D03*
X59921800Y13241800D03*
%TD*%
%TO.C,C15*%
X50080000Y8230000D03*
X50080000Y7270000D03*
%TD*%
D43*
%TO.C,L2*%
X52897222Y18217222D03*
X52897222Y19187222D03*
%TD*%
D10*
%TO.C,R17*%
X16077150Y17149300D03*
X16077150Y18169300D03*
%TD*%
D50*
%TO.C,U11*%
X29556051Y6468949D03*
X29556051Y6968949D03*
X29556051Y7468949D03*
X28131051Y7468949D03*
X28131051Y6468949D03*
%TD*%
D38*
%TO.C,R13*%
X10620000Y8780000D03*
X11640000Y8780000D03*
%TD*%
D40*
%TO.C,C2*%
X5310000Y5530000D03*
X4350000Y5530000D03*
%TD*%
D22*
%TO.C,C65*%
X60836200Y13239200D03*
X60836200Y14199200D03*
%TD*%
D23*
%TO.C,C43*%
X43180000Y16610000D03*
X43180000Y15650000D03*
%TD*%
D51*
%TO.C,U10*%
X13905000Y10080000D03*
X13905000Y11030000D03*
X13905000Y11980000D03*
X11630000Y11980000D03*
X11630000Y10080000D03*
%TD*%
D23*
%TO.C,C11*%
X52441171Y8223273D03*
X52441171Y7263273D03*
%TD*%
D38*
%TO.C,R2*%
X7520000Y13330000D03*
X8540000Y13330000D03*
%TD*%
D17*
%TO.C,R5*%
X31330000Y18840000D03*
X31330000Y17820000D03*
%TD*%
D38*
%TO.C,R14*%
X10620000Y7780000D03*
X11640000Y7780000D03*
%TD*%
D22*
%TO.C,C4*%
X48705000Y18255000D03*
X48705000Y19215000D03*
%TD*%
D10*
%TO.C,R35*%
X31481051Y5458949D03*
X31481051Y6478949D03*
%TD*%
D22*
%TO.C,C24*%
X33380000Y16850000D03*
X33380000Y17810000D03*
%TD*%
D52*
%TO.C,U14*%
X27108451Y4418948D03*
D53*
X27108451Y4918949D03*
X27108451Y5418949D03*
D52*
X27108451Y5918950D03*
D54*
X26381051Y6121393D03*
D52*
X25653651Y5918950D03*
D53*
X25653651Y5418949D03*
X25653651Y4918949D03*
D52*
X25653651Y4418948D03*
D54*
X26381051Y4216505D03*
%TD*%
D13*
%TO.C,R27*%
X15750000Y8930000D03*
X14730000Y8930000D03*
%TD*%
D43*
%TO.C,D5*%
X9670000Y8045000D03*
X9670000Y9015000D03*
%TD*%
D55*
%TO.C,L4*%
X67414800Y15370200D03*
X67414800Y7750200D03*
%TD*%
D40*
%TO.C,C34*%
X36890000Y5430000D03*
X35930000Y5430000D03*
%TD*%
%TO.C,C26*%
X32960000Y8480000D03*
X32000000Y8480000D03*
%TD*%
D12*
%TO.C,C22*%
X35250000Y11530000D03*
X36210000Y11530000D03*
%TD*%
D40*
%TO.C,C6*%
X47171171Y16593273D03*
X46211171Y16593273D03*
%TD*%
D51*
%TO.C,U12*%
X10567500Y4380000D03*
X10567500Y5330000D03*
X10567500Y6280000D03*
X8292500Y6280000D03*
X8292500Y4380000D03*
%TD*%
D22*
%TO.C,C60*%
X63630200Y13239200D03*
X63630200Y14199200D03*
%TD*%
D56*
%TO.C,U2*%
X32019296Y10422851D03*
X32019296Y10922850D03*
X32019296Y11422852D03*
X32019296Y11922851D03*
X32019296Y12422850D03*
X32019296Y12922851D03*
X32019296Y13422851D03*
X32019296Y13922852D03*
X32019296Y14422851D03*
X32019296Y14922850D03*
X32019296Y15422852D03*
X32019296Y15922851D03*
D57*
X31368096Y16574051D03*
X30868097Y16574051D03*
X30368095Y16574051D03*
X29868096Y16574051D03*
X29368097Y16574051D03*
X28868096Y16574051D03*
X28368096Y16574051D03*
X27868095Y16574051D03*
X27368096Y16574051D03*
X26868097Y16574051D03*
X26368095Y16574051D03*
X25868096Y16574051D03*
D56*
X25216896Y15922851D03*
X25216896Y15422852D03*
X25216896Y14922850D03*
X25216896Y14422851D03*
X25216896Y13922852D03*
X25216896Y13422851D03*
X25216896Y12922851D03*
X25216896Y12422850D03*
X25216896Y11922851D03*
X25216896Y11422852D03*
X25216896Y10922850D03*
X25216896Y10422851D03*
D57*
X25868096Y9771651D03*
X26368095Y9771651D03*
X26868097Y9771651D03*
X27368096Y9771651D03*
X27868095Y9771651D03*
X28368096Y9771651D03*
X28868096Y9771651D03*
X29368097Y9771651D03*
X29868096Y9771651D03*
X30368095Y9771651D03*
X30868097Y9771651D03*
X31368096Y9771651D03*
D58*
X28618096Y13172851D03*
%TD*%
D40*
%TO.C,C50*%
X36930000Y3830000D03*
X35970000Y3830000D03*
%TD*%
D59*
%TO.C,U6*%
X13430000Y4230000D03*
X14380000Y4230000D03*
X15330000Y4230000D03*
X15330000Y6930000D03*
X13430000Y6930000D03*
%TD*%
D38*
%TO.C,R28*%
X61723200Y14201800D03*
X62743200Y14201800D03*
%TD*%
D23*
%TO.C,C44*%
X54303800Y5848949D03*
X54303800Y4888949D03*
%TD*%
D44*
%TO.C,D2*%
X41360000Y18930000D03*
X42330000Y18930000D03*
%TD*%
D60*
%TO.C,TP1*%
X38181051Y15618949D03*
%TD*%
D61*
%TO.C,U8*%
X33265000Y6355000D03*
X33265000Y5005000D03*
X34115000Y5005000D03*
X34115000Y6355000D03*
D62*
X32450000Y5680000D03*
D63*
X33690000Y7420000D03*
X33690000Y3940000D03*
D62*
X34930000Y5680000D03*
%TD*%
D41*
%TO.C,J7*%
X6300000Y1300000D03*
D42*
X8840000Y1300000D03*
X11380000Y1300000D03*
X13920000Y1300000D03*
X16460000Y1300000D03*
X19000000Y1300000D03*
X21540000Y1300000D03*
X24080000Y1300000D03*
X26620000Y1300000D03*
X29160000Y1300000D03*
X31700000Y1300000D03*
X34240000Y1300000D03*
X36780000Y1300000D03*
X39320000Y1300000D03*
X41860000Y1300000D03*
X44400000Y1300000D03*
%TD*%
D10*
%TO.C,R7*%
X38990000Y3770000D03*
X38990000Y4790000D03*
%TD*%
D23*
%TO.C,C25*%
X22830000Y14710000D03*
X22830000Y13750000D03*
%TD*%
D38*
%TO.C,R11*%
X35930000Y8830000D03*
X36950000Y8830000D03*
%TD*%
D64*
%TO.C,RESET1*%
X34631051Y18118949D03*
X38031051Y18118949D03*
%TD*%
D23*
%TO.C,C16*%
X51091171Y8218273D03*
X51091171Y7258273D03*
%TD*%
D12*
%TO.C,C30*%
X30020000Y8480000D03*
X30980000Y8480000D03*
%TD*%
%TO.C,C17*%
X57122771Y8898273D03*
X58082771Y8898273D03*
%TD*%
D22*
%TO.C,C21*%
X33330000Y9600000D03*
X33330000Y10560000D03*
%TD*%
D65*
%TO.C,U13*%
X21692500Y8467500D03*
D66*
X20755000Y8030000D03*
X20755000Y7530000D03*
X20755000Y7030000D03*
X20755000Y6530000D03*
X20755000Y6030000D03*
X20755000Y5530000D03*
X20755000Y5030000D03*
X20755000Y4530000D03*
D65*
X21692500Y4092500D03*
X22192500Y4092500D03*
D66*
X23130000Y4530000D03*
X23130000Y5030000D03*
X23130000Y5530000D03*
X23130000Y6030000D03*
X23130000Y6530000D03*
X23130000Y7030000D03*
X23130000Y7530000D03*
X23130000Y8030000D03*
D65*
X22192500Y8467500D03*
D67*
X21942500Y6280000D03*
%TD*%
D22*
%TO.C,C51*%
X17830000Y8400000D03*
X17830000Y9360000D03*
%TD*%
D38*
%TO.C,R10*%
X35930000Y9830000D03*
X36950000Y9830000D03*
%TD*%
D22*
%TO.C,C19*%
X49697222Y18237222D03*
X49697222Y19197222D03*
%TD*%
D60*
%TO.C,TP2*%
X37550000Y13650000D03*
%TD*%
D17*
%TO.C,R16*%
X16127150Y15829300D03*
X16127150Y14809300D03*
%TD*%
D44*
%TO.C,D3*%
X39447500Y18930000D03*
X40417500Y18930000D03*
%TD*%
D38*
%TO.C,R19*%
X4330000Y4530000D03*
X5350000Y4530000D03*
%TD*%
D23*
%TO.C,C49*%
X8630000Y9010000D03*
X8630000Y8050000D03*
%TD*%
D22*
%TO.C,C3*%
X53897222Y18213273D03*
X53897222Y19173273D03*
%TD*%
D40*
%TO.C,C5*%
X46360000Y17930000D03*
X45400000Y17930000D03*
%TD*%
%TO.C,C12*%
X46366051Y18903949D03*
X45406051Y18903949D03*
%TD*%
D68*
%TO.C,Y3*%
X19080000Y10680000D03*
X21280000Y10680000D03*
X21280000Y12380000D03*
X19080000Y12380000D03*
%TD*%
D23*
%TO.C,C13*%
X46130000Y11110000D03*
X46130000Y10150000D03*
%TD*%
D40*
%TO.C,C28*%
X28000000Y8430000D03*
X27040000Y8430000D03*
%TD*%
%TO.C,C32*%
X36920000Y7480000D03*
X35960000Y7480000D03*
%TD*%
D23*
%TO.C,C52*%
X12030000Y6760000D03*
X12030000Y5800000D03*
%TD*%
%TO.C,C66*%
X6580000Y5480000D03*
X6580000Y4520000D03*
%TD*%
M02*
